Benne_0412.ufo
<glyph name="percent" format="1">
  <advance width="735"/>
  <unicode hex="0025"/>
  <outline>
    <contour>
      <point x="616" y="165" type="line"/>
      <point x="615" y="238"/>
      <point x="587" y="321"/>
      <point x="551" y="321" type="curve" smooth="yes"/>
      <point x="514" y="321"/>
      <point x="486" y="250"/>
      <point x="486" y="176" type="curve" smooth="yes"/>
      <point x="486" y="102"/>
      <point x="513" y="10"/>
      <point x="554" y="10" type="curve" smooth="yes"/>
      <point x="594" y="10"/>
      <point x="616" y="85"/>
      <point x="616" y="160" type="curve" smooth="yes"/>
    </contour>
    <contour>
      <point x="416" y="260"/>
      <point x="475" y="348"/>
      <point x="558" y="348" type="curve" smooth="yes"/>
      <point x="641" y="348"/>
      <point x="686" y="270"/>
      <point x="686" y="173" type="curve" smooth="yes"/>
      <point x="686" y="76"/>
      <point x="631" y="-14"/>
      <point x="546" y="-14" type="curve" smooth="yes"/>
      <point x="461" y="-14"/>
      <point x="416" y="67"/>
      <point x="416" y="164" type="curve" smooth="yes"/>
    </contour>
    <contour>
      <point x="249" y="447" type="line"/>
      <point x="248" y="520"/>
      <point x="220" y="603"/>
      <point x="184" y="603" type="curve" smooth="yes"/>
      <point x="147" y="603"/>
      <point x="119" y="532"/>
      <point x="119" y="458" type="curve" smooth="yes"/>
      <point x="119" y="384"/>
      <point x="146" y="292"/>
      <point x="187" y="292" type="curve" smooth="yes"/>
      <point x="227" y="292"/>
      <point x="249" y="367"/>
      <point x="249" y="442" type="curve" smooth="yes"/>
    </contour>
    <contour>
      <point x="49" y="542"/>
      <point x="108" y="630"/>
      <point x="191" y="630" type="curve" smooth="yes"/>
      <point x="274" y="630"/>
      <point x="319" y="552"/>
      <point x="319" y="455" type="curve" smooth="yes"/>
      <point x="319" y="358"/>
      <point x="264" y="268"/>
      <point x="179" y="268" type="curve" smooth="yes"/>
      <point x="94" y="268"/>
      <point x="49" y="349"/>
      <point x="49" y="446" type="curve" smooth="yes"/>
    </contour>
    <contour>
      <point x="548" y="638" type="line" smooth="yes"/>
      <point x="555" y="649"/>
      <point x="568" y="655"/>
      <point x="587" y="655" type="curve" smooth="yes"/>
      <point x="594" y="655"/>
      <point x="601" y="648"/>
      <point x="601" y="643" type="curve" smooth="yes"/>
      <point x="601" y="640"/>
      <point x="601" y="639"/>
      <point x="600" y="638" type="curve"/>
      <point x="188" y="-11" type="line" smooth="yes"/>
      <point x="182" y="-21"/>
      <point x="170" y="-26"/>
      <point x="152" y="-26" type="curve" smooth="yes"/>
      <point x="144" y="-26"/>
      <point x="135" y="-19"/>
      <point x="135" y="-15" type="curve" smooth="yes"/>
      <point x="135" y="-13"/>
      <point x="135" y="-12"/>
      <point x="136" y="-11" type="curve"/>
    </contour>
  </outline>
</glyph>
<glyph name="ampersand" format="1">
  <advance width="788"/>
  <unicode hex="0026"/>
  <outline>
    <contour>
      <point x="628" y="397" type="line"/>
      <point x="639" y="397"/>
      <point x="656" y="400"/>
      <point x="679" y="405" type="curve" smooth="yes"/>
      <point x="702" y="410"/>
      <point x="715" y="412"/>
      <point x="720" y="412" type="curve" smooth="yes"/>
      <point x="729" y="412"/>
      <point x="736" y="408"/>
      <point x="736" y="402" type="curve" smooth="yes"/>
      <point x="736" y="396"/>
      <point x="720" y="385"/>
      <point x="711" y="384" type="curve"/>
      <point x="684" y="382"/>
      <point x="659" y="372"/>
      <point x="638" y="353" type="curve"/>
      <point x="459" y="165" type="line"/>
      <point x="476" y="141" type="line" smooth="yes"/>
      <point x="507" y="97"/>
      <point x="510" y="93"/>
      <point x="535" y="67" type="curve" smooth="yes"/>
      <point x="560" y="41"/>
      <point x="589" y="34"/>
      <point x="610" y="34" type="curve" smooth="yes"/>
      <point x="621" y="34"/>
      <point x="628" y="34"/>
      <point x="631" y="35" type="curve"/>
      <point x="637" y="35"/>
      <point x="641" y="36"/>
      <point x="647" y="38" type="curve" smooth="yes"/>
      <point x="650" y="39"/>
      <point x="652" y="39"/>
      <point x="653" y="40" type="curve"/>
      <point x="654" y="40"/>
      <point x="657" y="41"/>
      <point x="660" y="43" type="curve"/>
      <point x="668" y="50"/>
      <point x="685" y="62"/>
      <point x="698" y="62" type="curve" smooth="yes"/>
      <point x="705" y="62"/>
      <point x="708" y="55"/>
      <point x="708" y="40" type="curve" smooth="yes"/>
      <point x="708" y="37"/>
      <point x="702" y="31"/>
      <point x="690" y="22" type="curve"/>
      <point x="665" y="5"/>
      <point x="619" y="-15"/>
      <point x="586" y="-15" type="curve" smooth="yes"/>
      <point x="517" y="-15"/>
      <point x="489" y="12"/>
      <point x="432" y="101" type="curve" smooth="yes"/>
      <point x="419" y="122" type="line"/>
      <point x="411" y="114"/>
      <point x="401" y="103"/>
      <point x="388" y="88" type="curve" smooth="yes"/>
      <point x="375" y="73"/>
      <point x="366" y="64"/>
      <point x="361" y="60" type="curve"/>
      <point x="356" y="55"/>
      <point x="348" y="48"/>
      <point x="337" y="37" type="curve" smooth="yes"/>
      <point x="326" y="26"/>
      <point x="317" y="18"/>
      <point x="310" y="15" type="curve"/>
      <point x="303" y="11"/>
      <point x="293" y="6"/>
      <point x="282" y="0" type="curve" smooth="yes"/>
      <point x="263" y="-10"/>
      <point x="240" y="-15"/>
      <point x="212" y="-15" type="curve" smooth="yes"/>
      <point x="117" y="-15"/>
      <point x="37" y="39"/>
      <point x="37" y="123" type="curve" smooth="yes"/>
      <point x="37" y="218"/>
      <point x="93" y="291"/>
      <point x="205" y="342" type="curve" smooth="yes"/>
      <point x="225" y="351" type="line"/>
      <point x="210" y="367" type="line" smooth="yes"/>
      <point x="168" y="409"/>
      <point x="147" y="448"/>
      <point x="147" y="485" type="curve" smooth="yes"/>
      <point x="147" y="557"/>
      <point x="212" y="599"/>
      <point x="281" y="599" type="curve" smooth="yes"/>
      <point x="350" y="599"/>
      <point x="407" y="558"/>
      <point x="407" y="496" type="curve" smooth="yes"/>
      <point x="407" y="434"/>
      <point x="371" y="384"/>
      <point x="310" y="361" type="curve" smooth="yes"/>
      <point x="296" y="356" type="line"/>
      <point x="305" y="346" type="line" smooth="yes"/>
      <point x="313" y="337"/>
      <point x="333" y="316"/>
      <point x="365" y="284" type="curve" smooth="yes"/>
      <point x="396" y="251"/>
      <point x="420" y="224"/>
      <point x="435" y="201" type="curve" smooth="yes"/>
      <point x="447" y="183" type="line"/>
      <point x="465" y="202" type="line" smooth="yes"/>
      <point x="513" y="254"/>
      <point x="575" y="338"/>
      <point x="575" y="350" type="curve" smooth="yes"/>
      <point x="575" y="362"/>
      <point x="562" y="378"/>
      <point x="552" y="380" type="curve" smooth="yes"/>
      <point x="547" y="381"/>
      <point x="543" y="382"/>
      <point x="540" y="385" type="curve" smooth="yes"/>
      <point x="537" y="388"/>
      <point x="535" y="390"/>
      <point x="535" y="391" type="curve" smooth="yes"/>
      <point x="535" y="398"/>
      <point x="542" y="402"/>
      <point x="557" y="402" type="curve"/>
    </contour>
    <contour>
      <point x="240" y="334" type="line"/>
      <point x="219" y="326" type="line" smooth="yes"/>
      <point x="130" y="291"/>
      <point x="117" y="226"/>
      <point x="117" y="161" type="curve" smooth="yes"/>
      <point x="117" y="96"/>
      <point x="169" y="50"/>
      <point x="234" y="50" type="curve" smooth="yes"/>
      <point x="299" y="50"/>
      <point x="346" y="75"/>
      <point x="398" y="131" type="curve"/>
      <point x="407" y="140" type="line"/>
      <point x="395" y="159" type="line" smooth="yes"/>
      <point x="378" y="186"/>
      <point x="352" y="217"/>
      <point x="318" y="253" type="curve" smooth="yes"/>
      <point x="283" y="288"/>
      <point x="261" y="311"/>
      <point x="252" y="321" type="curve" smooth="yes"/>
    </contour>
    <contour>
      <point x="279" y="376" type="line"/>
      <point x="292" y="382" type="line" smooth="yes"/>
      <point x="329" y="399"/>
      <point x="347" y="436"/>
      <point x="347" y="493" type="curve" smooth="yes"/>
      <point x="347" y="532"/>
      <point x="317" y="571"/>
      <point x="278" y="571" type="curve" smooth="yes"/>
      <point x="239" y="571"/>
      <point x="207" y="546"/>
      <point x="207" y="513" type="curve" smooth="yes"/>
      <point x="207" y="480"/>
      <point x="226" y="440"/>
      <point x="264" y="393" type="curve"/>
    </contour>
  </outline>
</glyph>
<glyph name="zero" format="1">
  <advance width="507"/>
  <unicode hex="0030"/>
  <outline>
    <contour>
      <point x="389" y="296"/>
      <point x="339" y="372"/>
      <point x="259" y="372" type="curve" smooth="yes"/>
      <point x="178" y="372"/>
      <point x="118" y="301"/>
      <point x="118" y="206" type="curve" smooth="yes"/>
      <point x="118" y="111"/>
      <point x="169" y="26"/>
      <point x="251" y="26" type="curve" smooth="yes"/>
      <point x="333" y="26"/>
      <point x="389" y="87"/>
      <point x="389" y="192" type="curve" smooth="yes"/>
    </contour>
    <contour>
      <point x="40" y="321"/>
      <point x="136" y="413"/>
      <point x="253" y="413" type="curve" smooth="yes"/>
      <point x="370" y="413"/>
      <point x="467" y="320"/>
      <point x="467" y="202" type="curve" smooth="yes"/>
      <point x="467" y="84"/>
      <point x="372" y="-15"/>
      <point x="254" y="-15" type="curve" smooth="yes"/>
      <point x="136" y="-15"/>
      <point x="40" y="85"/>
      <point x="40" y="203" type="curve" smooth="yes"/>
    </contour>
  </outline>
</glyph>
<glyph name="five" format="1">
  <advance width="375"/>
  <unicode hex="0035"/>
  <outline>
    <contour>
      <point x="79" y="-189"/>
      <point x="68" y="-185"/>
      <point x="68" y="-177" type="curve" smooth="yes"/>
      <point x="68" y="-170"/>
      <point x="79" y="-164"/>
      <point x="101" y="-160" type="curve" smooth="yes"/>
      <point x="197" y="-143"/>
      <point x="245" y="-90"/>
      <point x="245" y="0" type="curve" smooth="yes"/>
      <point x="245" y="65"/>
      <point x="199" y="121"/>
      <point x="108" y="167" type="curve" smooth="yes"/>
      <point x="75" y="184"/>
      <point x="58" y="202"/>
      <point x="58" y="222" type="curve" smooth="yes"/>
      <point x="58" y="261"/>
      <point x="68" y="303"/>
      <point x="89" y="347" type="curve" smooth="yes"/>
      <point x="96" y="362"/>
      <point x="108" y="373"/>
      <point x="125" y="380" type="curve" smooth="yes"/>
      <point x="164" y="395"/>
      <point x="213" y="407"/>
      <point x="271" y="415" type="curve"/>
      <point x="272" y="415" type="line" smooth="yes"/>
      <point x="279" y="415"/>
      <point x="283" y="409"/>
      <point x="283" y="398" type="curve" smooth="yes"/>
      <point x="283" y="375"/>
      <point x="257" y="330"/>
      <point x="232" y="325" type="curve" smooth="yes"/>
      <point x="195" y="318"/>
      <point x="155" y="313"/>
      <point x="110" y="312" type="curve" smooth="yes"/>
      <point x="103" y="312"/>
      <point x="97" y="302"/>
      <point x="92" y="282" type="curve"/>
      <point x="91" y="281"/>
      <point x="91" y="279"/>
      <point x="91" y="276" type="curve" smooth="yes"/>
      <point x="91" y="267"/>
      <point x="98" y="259"/>
      <point x="111" y="252" type="curve" smooth="yes"/>
      <point x="183" y="212"/>
      <point x="234" y="178"/>
      <point x="263" y="150" type="curve" smooth="yes"/>
      <point x="295" y="119"/>
      <point x="325" y="65"/>
      <point x="325" y="17" type="curve" smooth="yes"/>
      <point x="325" y="-104"/>
      <point x="211" y="-189"/>
      <point x="102" y="-189" type="curve" smooth="yes"/>
    </contour>
  </outline>
</glyph>
<glyph name="K" format="1">
  <advance width="681"/>
  <unicode hex="004B"/>
  <outline>
    <contour>
      <point x="172" y="651" type="line"/>
      <point x="269" y="653" type="line" smooth="yes"/>
      <point x="288" y="653"/>
      <point x="298" y="649"/>
      <point x="298" y="642" type="curve" smooth="yes"/>
      <point x="298" y="633"/>
      <point x="287" y="626"/>
      <point x="264" y="622" type="curve" smooth="yes"/>
      <point x="219" y="614"/>
      <point x="211" y="595"/>
      <point x="211" y="551" type="curve" smooth="yes"/>
      <point x="211" y="364" type="line" smooth="yes"/>
      <point x="211" y="351"/>
      <point x="213" y="345"/>
      <point x="216" y="345" type="curve" smooth="yes"/>
      <point x="223" y="345"/>
      <point x="232" y="351"/>
      <point x="243" y="363" type="curve" smooth="yes"/>
      <point x="443" y="567" type="line" smooth="yes"/>
      <point x="453" y="577"/>
      <point x="458" y="588"/>
      <point x="458" y="599" type="curve" smooth="yes"/>
      <point x="458" y="610"/>
      <point x="452" y="617"/>
      <point x="439" y="620" type="curve" smooth="yes"/>
      <point x="418" y="625"/>
      <point x="408" y="632"/>
      <point x="408" y="640" type="curve" smooth="yes"/>
      <point x="408" y="647"/>
      <point x="418" y="651"/>
      <point x="437" y="651" type="curve" smooth="yes"/>
      <point x="491" y="651" type="line" smooth="yes"/>
      <point x="566" y="651"/>
      <point x="617" y="652"/>
      <point x="646" y="655" type="curve"/>
      <point x="653" y="655" type="line" smooth="yes"/>
      <point x="668" y="655"/>
      <point x="675" y="651"/>
      <point x="675" y="644" type="curve" smooth="yes"/>
      <point x="675" y="635"/>
      <point x="664" y="628"/>
      <point x="642" y="624" type="curve" smooth="yes"/>
      <point x="517" y="601"/>
      <point x="426" y="512"/>
      <point x="298" y="371" type="curve"/>
      <point x="294" y="366"/>
      <point x="296" y="360"/>
      <point x="303" y="353" type="curve" smooth="yes"/>
      <point x="545" y="95" type="line" smooth="yes"/>
      <point x="592" y="43"/>
      <point x="602" y="36"/>
      <point x="651" y="25" type="curve" smooth="yes"/>
      <point x="676" y="20"/>
      <point x="688" y="13"/>
      <point x="688" y="6" type="curve" smooth="yes"/>
      <point x="688" y="-1"/>
      <point x="678" y="-5"/>
      <point x="659" y="-5" type="curve"/>
      <point x="520" y="0" type="line"/>
      <point x="439" y="-1" type="line" smooth="yes"/>
      <point x="420" y="-1"/>
      <point x="410" y="3"/>
      <point x="410" y="10" type="curve" smooth="yes"/>
      <point x="410" y="17"/>
      <point x="419" y="23"/>
      <point x="438" y="28" type="curve"/>
      <point x="456" y="32"/>
      <point x="465" y="38"/>
      <point x="465" y="47" type="curve" smooth="yes"/>
      <point x="465" y="52"/>
      <point x="460" y="61"/>
      <point x="450" y="72" type="curve" smooth="yes"/>
      <point x="238" y="306" type="line"/>
      <point x="227" y="317"/>
      <point x="219" y="323"/>
      <point x="215" y="323" type="curve" smooth="yes"/>
      <point x="212" y="323"/>
      <point x="211" y="310"/>
      <point x="211" y="283" type="curve" smooth="yes"/>
      <point x="211" y="230"/>
      <point x="199" y="39"/>
      <point x="280" y="24" type="curve" smooth="yes"/>
      <point x="302" y="20"/>
      <point x="313" y="14"/>
      <point x="313" y="7" type="curve" smooth="yes"/>
      <point x="313" y="-1"/>
      <point x="303" y="-5"/>
      <point x="284" y="-5" type="curve" smooth="yes"/>
      <point x="265" y="-5"/>
      <point x="246" y="-4"/>
      <point x="229" y="-1" type="curve"/>
      <point x="212" y="1"/>
      <point x="197" y="2"/>
      <point x="186" y="2" type="curve"/>
      <point x="60" y="-5" type="line"/>
      <point x="41" y="-5"/>
      <point x="31" y="-1"/>
      <point x="31" y="7" type="curve" smooth="yes"/>
      <point x="31" y="14"/>
      <point x="43" y="20"/>
      <point x="67" y="25" type="curve"/>
      <point x="114" y="33"/>
      <point x="131" y="52"/>
      <point x="131" y="101" type="curve" smooth="yes"/>
      <point x="131" y="551" type="line" smooth="yes"/>
      <point x="131" y="596"/>
      <point x="114" y="613"/>
      <point x="67" y="622" type="curve" smooth="yes"/>
      <point x="43" y="626"/>
      <point x="31" y="633"/>
      <point x="31" y="642" type="curve" smooth="yes"/>
      <point x="31" y="649"/>
      <point x="41" y="653"/>
      <point x="60" y="653" type="curve" smooth="yes"/>
    </contour>
  </outline>
</glyph>
<glyph name="q" format="1">
  <advance width="522"/>
  <unicode hex="0071"/>
  <outline>
    <contour>
      <point x="412" y="-280" type="line"/>
      <point x="331" y="-285" type="line"/>
      <point x="318" y="-285"/>
      <point x="311" y="-282"/>
      <point x="311" y="-275" type="curve" smooth="yes"/>
      <point x="311" y="-269"/>
      <point x="319" y="-263"/>
      <point x="334" y="-258" type="curve"/>
      <point x="335" y="-258"/>
      <point x="336" y="-258"/>
      <point x="338" y="-257" type="curve"/>
      <point x="360" y="-250"/>
      <point x="373" y="-241"/>
      <point x="376" y="-230" type="curve"/>
      <point x="377" y="-227"/>
      <point x="377" y="-223"/>
      <point x="377" y="-220" type="curve" smooth="yes"/>
      <point x="377" y="-5" type="line" smooth="yes"/>
      <point x="377" y="15"/>
      <point x="375" y="25"/>
      <point x="372" y="25" type="curve" smooth="yes"/>
      <point x="369" y="25"/>
      <point x="365" y="23"/>
      <point x="362" y="20" type="curve"/>
      <point x="336" y="-3"/>
      <point x="295" y="-14"/>
      <point x="238" y="-14" type="curve" smooth="yes"/>
      <point x="124" y="-14"/>
      <point x="35" y="57"/>
      <point x="35" y="187" type="curve" smooth="yes"/>
      <point x="35" y="317"/>
      <point x="135" y="414"/>
      <point x="282" y="414" type="curve" smooth="yes"/>
      <point x="323" y="414"/>
      <point x="360" y="409"/>
      <point x="392" y="398" type="curve" smooth="yes"/>
      <point x="410" y="392" type="line"/>
      <point x="423" y="392"/>
      <point x="428" y="398"/>
      <point x="436" y="417" type="curve"/>
      <point x="439" y="420"/>
      <point x="441" y="421"/>
      <point x="444" y="421" type="curve" smooth="yes"/>
      <point x="449" y="421"/>
      <point x="459" y="416"/>
      <point x="459" y="411" type="curve"/>
      <point x="458" y="404" type="line"/>
      <point x="451" y="373"/>
      <point x="447" y="336"/>
      <point x="447" y="295" type="curve" smooth="yes"/>
      <point x="447" y="-220" type="line" smooth="yes"/>
      <point x="447" y="-233"/>
      <point x="453" y="-242"/>
      <point x="466" y="-247" type="curve"/>
      <point x="476" y="-252" type="line"/>
      <point x="487" y="-256"/>
      <point x="494" y="-258"/>
      <point x="499" y="-258" type="curve"/>
      <point x="514" y="-263"/>
      <point x="522" y="-269"/>
      <point x="522" y="-275" type="curve" smooth="yes"/>
      <point x="522" y="-282"/>
      <point x="515" y="-285"/>
      <point x="502" y="-285" type="curve"/>
    </contour>
    <contour>
      <point x="374" y="335"/>
      <point x="324" y="382"/>
      <point x="253" y="382" type="curve" smooth="yes"/>
      <point x="181" y="382"/>
      <point x="117" y="316"/>
      <point x="117" y="201" type="curve" smooth="yes"/>
      <point x="117" y="86"/>
      <point x="197" y="24"/>
      <point x="272" y="24" type="curve" smooth="yes"/>
      <point x="347" y="24"/>
      <point x="378" y="30"/>
      <point x="378" y="156" type="curve" smooth="yes"/>
      <point x="378" y="219"/>
      <point x="378" y="258"/>
      <point x="377" y="275" type="curve" smooth="yes"/>
    </contour>
  </outline>
</glyph>
<glyph name="u" format="1">
  <advance width="527"/>
  <unicode hex="0075"/>
  <outline>
    <contour>
      <point x="364" y="51" type="line"/>
      <point x="364" y="57" type="line"/>
      <point x="316" y="10"/>
      <point x="261" y="-14"/>
      <point x="199" y="-14" type="curve" smooth="yes"/>
      <point x="131" y="-14"/>
      <point x="85" y="29"/>
      <point x="85" y="105" type="curve" smooth="yes"/>
      <point x="85" y="308" type="line" smooth="yes"/>
      <point x="85" y="335"/>
      <point x="71" y="354"/>
      <point x="42" y="365" type="curve"/>
      <point x="33" y="368"/>
      <point x="29" y="373"/>
      <point x="29" y="382" type="curve" smooth="yes"/>
      <point x="29" y="390"/>
      <point x="34" y="395"/>
      <point x="44" y="397" type="curve"/>
      <point x="67" y="398"/>
      <point x="102" y="403"/>
      <point x="147" y="414" type="curve"/>
      <point x="156" y="415"/>
      <point x="162" y="409"/>
      <point x="161" y="400" type="curve" smooth="yes"/>
      <point x="157" y="369"/>
      <point x="155" y="344"/>
      <point x="155" y="323" type="curve" smooth="yes"/>
      <point x="155" y="128" type="line" smooth="yes"/>
      <point x="155" y="80"/>
      <point x="196" y="37"/>
      <point x="239" y="37" type="curve" smooth="yes"/>
      <point x="316" y="37"/>
      <point x="368" y="76"/>
      <point x="368" y="132" type="curve" smooth="yes"/>
      <point x="368" y="315" type="line" smooth="yes"/>
      <point x="368" y="351"/>
      <point x="334" y="364"/>
      <point x="303" y="365" type="curve" smooth="yes"/>
      <point x="288" y="365"/>
      <point x="280" y="371"/>
      <point x="280" y="382" type="curve" smooth="yes"/>
      <point x="280" y="387"/>
      <point x="283" y="391"/>
      <point x="289" y="394" type="curve"/>
      <point x="294" y="396"/>
      <point x="303" y="397"/>
      <point x="315" y="398" type="curve"/>
      <point x="339" y="398"/>
      <point x="365" y="400"/>
      <point x="382" y="403" type="curve"/>
      <point x="391" y="404"/>
      <point x="397" y="405"/>
      <point x="400" y="406" type="curve"/>
      <point x="404" y="406"/>
      <point x="415" y="409"/>
      <point x="432" y="415" type="curve"/>
      <point x="434" y="415" type="line" smooth="yes"/>
      <point x="443" y="415"/>
      <point x="452" y="406"/>
      <point x="444" y="393" type="curve" smooth="yes"/>
      <point x="440" y="386"/>
      <point x="438" y="364"/>
      <point x="438" y="326" type="curve" smooth="yes"/>
      <point x="438" y="114" type="line" smooth="yes"/>
      <point x="438" y="68"/>
      <point x="444" y="45"/>
      <point x="456" y="45" type="curve" smooth="yes"/>
      <point x="477" y="45"/>
      <point x="492" y="46"/>
      <point x="502" y="48" type="curve" smooth="yes"/>
      <point x="512" y="50"/>
      <point x="517" y="46"/>
      <point x="517" y="36" type="curve" smooth="yes"/>
      <point x="517" y="26"/>
      <point x="512" y="21"/>
      <point x="503" y="21" type="curve"/>
      <point x="468" y="16"/>
      <point x="438" y="9"/>
      <point x="413" y="-2" type="curve" smooth="yes"/>
      <point x="387" y="-13"/>
      <point x="372" y="-19"/>
      <point x="367" y="-19" type="curve" smooth="yes"/>
      <point x="362" y="-19"/>
      <point x="359" y="-18"/>
      <point x="359" y="-15" type="curve"/>
    </contour>
  </outline>
</glyph>
<glyph name="exclamdown" format="1">
  <advance width="282"/>
  <unicode hex="00A1"/>
  <outline>
    <contour>
      <point x="183" y="380"/>
      <point x="169" y="374"/>
      <point x="152" y="374" type="curve" smooth="yes"/>
      <point x="119" y="374"/>
      <point x="92" y="401"/>
      <point x="92" y="434" type="curve" smooth="yes"/>
      <point x="92" y="467"/>
      <point x="119" y="494"/>
      <point x="152" y="494" type="curve" smooth="yes"/>
      <point x="185" y="494"/>
      <point x="212" y="467"/>
      <point x="212" y="434" type="curve" smooth="yes"/>
      <point x="212" y="417"/>
      <point x="206" y="403"/>
      <point x="195" y="392" type="curve" smooth="yes"/>
    </contour>
    <contour>
      <point x="201" y="-153"/>
      <point x="184" y="-180"/>
      <point x="152" y="-180" type="curve" smooth="yes"/>
      <point x="119" y="-180"/>
      <point x="101" y="-150"/>
      <point x="101" y="-102" type="curve" smooth="yes"/>
      <point x="101" y="-78"/>
      <point x="109" y="24"/>
      <point x="124" y="205" type="curve" smooth="yes"/>
      <point x="127" y="236"/>
      <point x="137" y="263"/>
      <point x="152" y="263" type="curve" smooth="yes"/>
      <point x="161" y="263"/>
      <point x="171" y="235"/>
      <point x="174" y="211" type="curve" smooth="yes"/>
      <point x="192" y="37"/>
      <point x="201" y="-65"/>
      <point x="201" y="-94" type="curve" smooth="yes"/>
    </contour>
  </outline>
</glyph>
<glyph name="macron" format="1">
  <advance width="400"/>
  <unicode hex="00AF"/>
  <outline>
    <contour>
      <point x="331" y="704" type="line"/>
      <point x="331" y="749" type="line"/>
      <point x="68" y="749" type="line"/>
      <point x="68" y="704" type="line"/>
    </contour>
  </outline>
</glyph>
<glyph name="idieresis" format="1">
  <advance width="221"/>
  <unicode hex="00EF"/>
  <outline>
    <contour>
      <point x="141" y="0" type="line"/>
      <point x="141" y="507" type="line"/>
      <point x="80" y="507" type="line"/>
      <point x="80" y="0" type="line"/>
    </contour>
    <component base="dieresis" xOffset="-89" yOffset="-87"/>
  </outline>
</glyph>
<glyph name="lslash" format="1">
  <advance width="278"/>
  <unicode hex="0142"/>
  <outline>
    <contour>
      <point x="162" y="0" type="line"/>
      <point x="162" y="707" type="line"/>
      <point x="101" y="707" type="line"/>
      <point x="101" y="0" type="line"/>
    </contour>
    <contour>
      <point x="243" y="417" type="line"/>
      <point x="243" y="483" type="line"/>
      <point x="35" y="334" type="line"/>
      <point x="35" y="268" type="line"/>
    </contour>
  </outline>
</glyph>
<glyph name="circumflex" format="1">
  <advance width="400"/>
  <unicode hex="02C6"/>
  <outline>
    <contour>
      <point x="113" y="648" type="line"/>
      <point x="199" y="755" type="line"/>
      <point x="286" y="648" type="line"/>
      <point x="350" y="648" type="line"/>
      <point x="231" y="798" type="line"/>
      <point x="168" y="798" type="line"/>
      <point x="49" y="648" type="line"/>
    </contour>
  </outline>
</glyph>
<glyph name="hungarumlaut" format="1">
  <advance width="400"/>
  <unicode hex="02DD"/>
  <outline>
    <contour>
      <point x="231" y="648" type="line"/>
      <point x="366" y="798" type="line"/>
      <point x="285" y="798" type="line"/>
      <point x="182" y="648" type="line"/>
    </contour>
    <contour>
      <point x="83" y="648" type="line"/>
      <point x="214" y="798" type="line"/>
      <point x="133" y="798" type="line"/>
      <point x="34" y="648" type="line"/>
    </contour>
  </outline>
</glyph>
<glyph name="knAnusvara" format="1">
  <advance width="556"/>
  <unicode hex="0C82"/>
  <outline>
    <contour>
      <point x="88" y="396"/>
      <point x="173" y="515"/>
      <point x="278" y="515" type="curve" smooth="yes"/>
      <point x="383" y="515"/>
      <point x="468" y="396"/>
      <point x="468" y="249" type="curve" smooth="yes"/>
      <point x="468" y="103"/>
      <point x="383" y="-14"/>
      <point x="278" y="-14" type="curve" smooth="yes"/>
      <point x="173" y="-14"/>
      <point x="88" y="103"/>
      <point x="88" y="249" type="curve" smooth="yes"/>
    </contour>
    <contour>
      <point x="135" y="172"/>
      <point x="199" y="100"/>
      <point x="278" y="100" type="curve" smooth="yes"/>
      <point x="357" y="100"/>
      <point x="421" y="168"/>
      <point x="421" y="249" type="curve" smooth="yes"/>
      <point x="421" y="348"/>
      <point x="357" y="425"/>
      <point x="278" y="425" type="curve" smooth="yes"/>
      <point x="199" y="425"/>
      <point x="135" y="353"/>
      <point x="135" y="262" type="curve" smooth="yes"/>
    </contour>
  </outline>
</glyph>
<glyph name="knA" format="1">
  <advance width="780"/>
  <unicode hex="0C85"/>
  <outline>
    <contour>
      <point x="103" y="171"/>
      <point x="199" y="71"/>
      <point x="390" y="71" type="curve" smooth="yes"/>
      <point x="580" y="71"/>
      <point x="678" y="171"/>
      <point x="678" y="294" type="curve" smooth="yes"/>
      <point x="678" y="389"/>
      <point x="638" y="459"/>
      <point x="560" y="459" type="curve" smooth="yes"/>
      <point x="518" y="459"/>
      <point x="493" y="440"/>
      <point x="493" y="405" type="curve" smooth="yes"/>
      <point x="493" y="375"/>
      <point x="512" y="354"/>
      <point x="560" y="354" type="curve" smooth="yes"/>
      <point x="613" y="354" type="line"/>
      <point x="613" y="283" type="line"/>
      <point x="383" y="283" type="line"/>
      <point x="383" y="354" type="line"/>
      <point x="478" y="354" type="line"/>
      <point x="469" y="362"/>
      <point x="464" y="379"/>
      <point x="464" y="405" type="curve" smooth="yes"/>
      <point x="464" y="467"/>
      <point x="490" y="520"/>
      <point x="560" y="520" type="curve" smooth="yes"/>
      <point x="646" y="520"/>
      <point x="725" y="414"/>
      <point x="725" y="283" type="curve" smooth="yes"/>
      <point x="725" y="104"/>
      <point x="601" y="-14"/>
      <point x="390" y="-14" type="curve"/>
      <point x="179" y="-14"/>
      <point x="55" y="104"/>
      <point x="55" y="283" type="curve"/>
      <point x="55" y="414"/>
      <point x="127" y="519"/>
      <point x="229" y="519" type="curve" smooth="yes"/>
      <point x="300" y="519"/>
      <point x="336" y="457"/>
      <point x="336" y="391" type="curve" smooth="yes"/>
      <point x="336" y="325"/>
      <point x="294" y="273"/>
      <point x="231" y="273" type="curve" smooth="yes"/>
      <point x="173" y="273"/>
      <point x="131" y="308"/>
      <point x="131" y="381" type="curve" smooth="yes"/>
      <point x="131" y="394"/>
      <point x="132" y="407"/>
      <point x="135" y="429" type="curve"/>
      <point x="156" y="497" type="line"/>
      <point x="171" y="501"/>
      <point x="176" y="475"/>
      <point x="165" y="450" type="curve"/>
      <point x="162" y="440"/>
      <point x="161" y="419"/>
      <point x="161" y="408" type="curve" smooth="yes"/>
      <point x="161" y="362"/>
      <point x="189" y="344"/>
      <point x="231" y="344" type="curve" smooth="yes"/>
      <point x="278" y="344"/>
      <point x="306" y="365"/>
      <point x="306" y="401" type="curve" smooth="yes"/>
      <point x="306" y="440"/>
      <point x="272" y="459"/>
      <point x="234" y="459" type="curve" smooth="yes"/>
      <point x="141" y="459"/>
      <point x="103" y="407"/>
      <point x="103" y="294" type="curve"/>
    </contour>
  </outline>
</glyph>
<glyph name="knAA" format="1">
  <advance width="742"/>
  <unicode hex="0C86"/>
  <outline>
    <contour>
      <point x="102" y="171"/>
      <point x="201" y="71"/>
      <point x="370" y="71" type="curve"/>
      <point x="514" y="71"/>
      <point x="618" y="126"/>
      <point x="618" y="213" type="curve" smooth="yes"/>
      <point x="618" y="286"/>
      <point x="512" y="328"/>
      <point x="512" y="416" type="curve" smooth="yes"/>
      <point x="512" y="477"/>
      <point x="564" y="519"/>
      <point x="612" y="519" type="curve" smooth="yes"/>
      <point x="665" y="519"/>
      <point x="707" y="471"/>
      <point x="707" y="403" type="curve" smooth="yes"/>
      <point x="707" y="327"/>
      <point x="651" y="283"/>
      <point x="567" y="283" type="curve"/>
      <point x="395" y="283" type="line"/>
      <point x="395" y="355" type="line"/>
      <point x="600" y="355" type="line" smooth="yes"/>
      <point x="645" y="355"/>
      <point x="672" y="383"/>
      <point x="672" y="413" type="curve" smooth="yes"/>
      <point x="672" y="440"/>
      <point x="650" y="459"/>
      <point x="618" y="459" type="curve" smooth="yes"/>
      <point x="585" y="459"/>
      <point x="558" y="440"/>
      <point x="558" y="406" type="curve" smooth="yes"/>
      <point x="558" y="337"/>
      <point x="672" y="314"/>
      <point x="672" y="199" type="curve" smooth="yes"/>
      <point x="672" y="73"/>
      <point x="534" y="-14"/>
      <point x="380" y="-14" type="curve"/>
      <point x="179" y="-14"/>
      <point x="55" y="104"/>
      <point x="55" y="276" type="curve"/>
      <point x="55" y="414"/>
      <point x="127" y="519"/>
      <point x="229" y="519" type="curve" smooth="yes"/>
      <point x="300" y="519"/>
      <point x="336" y="457"/>
      <point x="336" y="391" type="curve" smooth="yes"/>
      <point x="336" y="325"/>
      <point x="294" y="273"/>
      <point x="231" y="273" type="curve" smooth="yes"/>
      <point x="173" y="273"/>
      <point x="131" y="308"/>
      <point x="131" y="381" type="curve" smooth="yes"/>
      <point x="131" y="394"/>
      <point x="132" y="407"/>
      <point x="135" y="429" type="curve"/>
      <point x="156" y="497" type="line"/>
      <point x="171" y="501"/>
      <point x="176" y="475"/>
      <point x="165" y="450" type="curve"/>
      <point x="162" y="440"/>
      <point x="161" y="419"/>
      <point x="161" y="408" type="curve" smooth="yes"/>
      <point x="161" y="362"/>
      <point x="189" y="344"/>
      <point x="231" y="344" type="curve" smooth="yes"/>
      <point x="278" y="344"/>
      <point x="306" y="365"/>
      <point x="306" y="401" type="curve" smooth="yes"/>
      <point x="306" y="440"/>
      <point x="272" y="459"/>
      <point x="234" y="459" type="curve" smooth="yes"/>
      <point x="141" y="459"/>
      <point x="103" y="407"/>
      <point x="103" y="294" type="curve"/>
    </contour>
  </outline>
</glyph>
<glyph name="knI" format="1">
  <advance width="740"/>
  <unicode hex="0C87"/>
  <outline>
    <contour>
      <point x="435" y="519"/>
      <point x="366" y="461"/>
      <point x="343" y="377" type="curve"/>
      <point x="341" y="377" type="line"/>
      <point x="318" y="461"/>
      <point x="249" y="519"/>
      <point x="180" y="519" type="curve"/>
      <point x="104" y="519"/>
      <point x="45" y="456"/>
      <point x="45" y="377" type="curve" smooth="yes"/>
      <point x="45" y="347"/>
      <point x="54" y="321"/>
      <point x="75" y="296" type="curve"/>
      <point x="106" y="317" type="line"/>
      <point x="100" y="325"/>
      <point x="94" y="340"/>
      <point x="94" y="359" type="curve" smooth="yes"/>
      <point x="94" y="401"/>
      <point x="122" y="444"/>
      <point x="183" y="444" type="curve"/>
      <point x="268" y="444"/>
      <point x="324" y="358"/>
      <point x="338" y="283" type="curve"/>
      <point x="347" y="283" type="line"/>
      <point x="359" y="357"/>
      <point x="415" y="446"/>
      <point x="499" y="446" type="curve"/>
      <point x="564" y="446"/>
      <point x="599" y="377"/>
      <point x="599" y="285" type="curve"/>
      <point x="599" y="149"/>
      <point x="529" y="71"/>
      <point x="407" y="71" type="curve"/>
      <point x="348" y="71"/>
      <point x="307" y="85"/>
      <point x="307" y="124" type="curve" smooth="yes"/>
      <point x="307" y="153"/>
      <point x="342" y="176"/>
      <point x="400" y="176" type="curve" smooth="yes"/>
      <point x="535" y="176"/>
      <point x="636" y="48"/>
      <point x="636" y="-70" type="curve" smooth="yes"/>
      <point x="636" y="-85"/>
      <point x="648" y="-97"/>
      <point x="660" y="-97" type="curve" smooth="yes"/>
      <point x="673" y="-97"/>
      <point x="685" y="-85"/>
      <point x="685" y="-61" type="curve" smooth="yes"/>
      <point x="685" y="30"/>
      <point x="579" y="223"/>
      <point x="390" y="223" type="curve" smooth="yes"/>
      <point x="294" y="223"/>
      <point x="234" y="168"/>
      <point x="234" y="108" type="curve" smooth="yes"/>
      <point x="234" y="38"/>
      <point x="309" y="-14"/>
      <point x="399" y="-14" type="curve" smooth="yes"/>
      <point x="544" y="-14"/>
      <point x="648" y="108"/>
      <point x="648" y="294" type="curve"/>
      <point x="648" y="430"/>
      <point x="597" y="519"/>
      <point x="504" y="519" type="curve"/>
    </contour>
  </outline>
</glyph>
<glyph name="knII" format="1">
  <advance width="896"/>
  <unicode hex="0C88"/>
  <outline>
    <contour>
      <point x="817" y="226"/>
      <point x="689" y="279"/>
      <point x="689" y="363" type="curve" smooth="yes"/>
      <point x="689" y="399"/>
      <point x="713" y="418"/>
      <point x="739" y="418" type="curve" smooth="yes"/>
      <point x="767" y="418"/>
      <point x="790" y="399"/>
      <point x="790" y="362" type="curve" smooth="yes"/>
      <point x="790" y="324"/>
      <point x="773" y="298"/>
      <point x="692" y="298" type="curve" smooth="yes"/>
      <point x="45" y="298" type="line"/>
      <point x="45" y="239" type="line"/>
      <point x="659" y="239" type="line" smooth="yes"/>
      <point x="784" y="239"/>
      <point x="836" y="286"/>
      <point x="836" y="369" type="curve"/>
      <point x="836" y="434"/>
      <point x="790" y="479"/>
      <point x="741" y="479" type="curve" smooth="yes"/>
      <point x="685" y="479"/>
      <point x="642" y="441"/>
      <point x="642" y="379" type="curve" smooth="yes"/>
      <point x="642" y="277"/>
      <point x="760" y="241"/>
      <point x="760" y="140" type="curve"/>
      <point x="761" y="108"/>
      <point x="746" y="89"/>
      <point x="716" y="79" type="curve" smooth="yes"/>
      <point x="697" y="72"/>
      <point x="676" y="74"/>
      <point x="661" y="69" type="curve" smooth="yes"/>
      <point x="644" y="63"/>
      <point x="633" y="48"/>
      <point x="633" y="30" type="curve" smooth="yes"/>
      <point x="633" y="5"/>
      <point x="652" y="-14"/>
      <point x="690" y="-14" type="curve" smooth="yes"/>
      <point x="762" y="-14"/>
      <point x="817" y="33"/>
      <point x="817" y="111" type="curve"/>
    </contour>
    <contour>
      <point x="236" y="478"/>
      <point x="115" y="402"/>
      <point x="115" y="250" type="curve" smooth="yes"/>
      <point x="115" y="99"/>
      <point x="206" y="-14"/>
      <point x="345" y="-14" type="curve"/>
      <point x="484" y="-14"/>
      <point x="575" y="99"/>
      <point x="575" y="250" type="curve" smooth="yes"/>
      <point x="575" y="402"/>
      <point x="454" y="478"/>
      <point x="345" y="478" type="curve"/>
    </contour>
    <contour>
      <point x="446" y="443"/>
      <point x="521" y="360"/>
      <point x="521" y="261" type="curve" smooth="yes"/>
      <point x="521" y="151"/>
      <point x="446" y="71"/>
      <point x="345" y="71" type="curve"/>
      <point x="244" y="71"/>
      <point x="169" y="151"/>
      <point x="169" y="261" type="curve" smooth="yes"/>
      <point x="169" y="360"/>
      <point x="244" y="443"/>
      <point x="345" y="443" type="curve"/>
    </contour>
    <contour>
      <point x="490" y="644" type="line"/>
      <point x="514" y="635"/>
      <point x="536" y="610"/>
      <point x="536" y="576" type="curve" smooth="yes"/>
      <point x="536" y="536"/>
      <point x="505" y="509"/>
      <point x="444" y="509" type="curve" smooth="yes"/>
      <point x="115" y="509" type="line"/>
      <point x="115" y="434" type="line"/>
      <point x="235" y="434" type="line"/>
      <point x="345" y="444" type="line"/>
      <point x="444" y="434" type="line"/>
      <point x="525" y="434"/>
      <point x="579" y="480"/>
      <point x="579" y="552" type="curve" smooth="yes"/>
      <point x="579" y="607"/>
      <point x="548" y="648"/>
      <point x="505" y="664" type="curve"/>
    </contour>
  </outline>
</glyph>
<glyph name="knU" format="1">
  <advance width="1027"/>
  <unicode hex="0C89"/>
  <outline>
    <contour>
      <point x="871" y="71"/>
      <point x="925" y="123"/>
      <point x="925" y="253" type="curve"/>
      <point x="925" y="365"/>
      <point x="886" y="414"/>
      <point x="849" y="426" type="curve" smooth="yes"/>
      <point x="825" y="434"/>
      <point x="816" y="430"/>
      <point x="793" y="436" type="curve" smooth="yes"/>
      <point x="776" y="441"/>
      <point x="765" y="457"/>
      <point x="765" y="477" type="curve" smooth="yes"/>
      <point x="765" y="500"/>
      <point x="784" y="519"/>
      <point x="820" y="519" type="curve" smooth="yes"/>
      <point x="895" y="519"/>
      <point x="972" y="439"/>
      <point x="972" y="283" type="curve"/>
      <point x="972" y="113"/>
      <point x="888" y="-14"/>
      <point x="781" y="-14" type="curve"/>
      <point x="680" y="-14"/>
      <point x="629" y="65"/>
      <point x="629" y="150" type="curve" smooth="yes"/>
      <point x="629" y="220"/>
      <point x="634" y="276"/>
      <point x="634" y="339" type="curve" smooth="yes"/>
      <point x="634" y="406"/>
      <point x="604" y="454"/>
      <point x="550" y="454" type="curve"/>
      <point x="491" y="454"/>
      <point x="464" y="396"/>
      <point x="464" y="339" type="curve" smooth="yes"/>
      <point x="464" y="284"/>
      <point x="476" y="229"/>
      <point x="476" y="150" type="curve" smooth="yes"/>
      <point x="476" y="42"/>
      <point x="396" y="-14"/>
      <point x="288" y="-14" type="curve"/>
      <point x="162" y="-14"/>
      <point x="55" y="107"/>
      <point x="55" y="283" type="curve"/>
      <point x="55" y="414"/>
      <point x="127" y="519"/>
      <point x="229" y="519" type="curve" smooth="yes"/>
      <point x="300" y="519"/>
      <point x="336" y="457"/>
      <point x="336" y="391" type="curve" smooth="yes"/>
      <point x="336" y="325"/>
      <point x="294" y="273"/>
      <point x="231" y="273" type="curve" smooth="yes"/>
      <point x="173" y="273"/>
      <point x="131" y="308"/>
      <point x="131" y="381" type="curve" smooth="yes"/>
      <point x="131" y="394"/>
      <point x="132" y="407"/>
      <point x="135" y="429" type="curve"/>
      <point x="156" y="497" type="line"/>
      <point x="171" y="501"/>
      <point x="176" y="475"/>
      <point x="165" y="450" type="curve"/>
      <point x="162" y="440"/>
      <point x="161" y="419"/>
      <point x="161" y="408" type="curve" smooth="yes"/>
      <point x="161" y="362"/>
      <point x="189" y="344"/>
      <point x="231" y="344" type="curve" smooth="yes"/>
      <point x="278" y="344"/>
      <point x="306" y="365"/>
      <point x="306" y="401" type="curve" smooth="yes"/>
      <point x="306" y="440"/>
      <point x="272" y="459"/>
      <point x="234" y="459" type="curve" smooth="yes"/>
      <point x="141" y="459"/>
      <point x="103" y="407"/>
      <point x="103" y="294" type="curve"/>
      <point x="103" y="218"/>
      <point x="154" y="71"/>
      <point x="300" y="71" type="curve" smooth="yes"/>
      <point x="378" y="71"/>
      <point x="435" y="118"/>
      <point x="435" y="189" type="curve" smooth="yes"/>
      <point x="435" y="256"/>
      <point x="418" y="312"/>
      <point x="418" y="368" type="curve" smooth="yes"/>
      <point x="418" y="453"/>
      <point x="468" y="519"/>
      <point x="555" y="519" type="curve"/>
      <point x="636" y="519"/>
      <point x="680" y="453"/>
      <point x="680" y="375" type="curve" smooth="yes"/>
      <point x="680" y="312"/>
      <point x="671" y="256"/>
      <point x="671" y="206" type="curve" smooth="yes"/>
      <point x="671" y="138"/>
      <point x="712" y="71"/>
      <point x="785" y="71" type="curve"/>
    </contour>
  </outline>
</glyph>
<glyph name="knUU" format="1">
  <advance width="1341"/>
  <unicode hex="0C8A"/>
  <outline>
    <contour>
      <point x="162" y="440"/>
      <point x="161" y="419"/>
      <point x="161" y="408" type="curve" smooth="yes"/>
      <point x="161" y="362"/>
      <point x="189" y="344"/>
      <point x="231" y="344" type="curve" smooth="yes"/>
      <point x="278" y="344"/>
      <point x="306" y="365"/>
      <point x="306" y="401" type="curve" smooth="yes"/>
      <point x="306" y="440"/>
      <point x="272" y="454"/>
      <point x="234" y="454" type="curve"/>
      <point x="141" y="454"/>
      <point x="103" y="407"/>
      <point x="103" y="294" type="curve"/>
      <point x="103" y="218"/>
      <point x="154" y="71"/>
      <point x="280" y="71" type="curve" smooth="yes"/>
      <point x="368" y="71"/>
      <point x="425" y="118"/>
      <point x="425" y="189" type="curve" smooth="yes"/>
      <point x="425" y="256"/>
      <point x="408" y="312"/>
      <point x="408" y="368" type="curve" smooth="yes"/>
      <point x="408" y="453"/>
      <point x="458" y="519"/>
      <point x="545" y="519" type="curve"/>
      <point x="626" y="519"/>
      <point x="670" y="453"/>
      <point x="670" y="375" type="curve" smooth="yes"/>
      <point x="670" y="312"/>
      <point x="661" y="256"/>
      <point x="661" y="206" type="curve" smooth="yes"/>
      <point x="661" y="138"/>
      <point x="682" y="71"/>
      <point x="765" y="71" type="curve" smooth="yes"/>
      <point x="848" y="71"/>
      <point x="864" y="177"/>
      <point x="864" y="293" type="curve"/>
      <point x="864" y="456"/>
      <point x="962" y="519"/>
      <point x="1055" y="519" type="curve"/>
      <point x="1172" y="519"/>
      <point x="1286" y="438"/>
      <point x="1286" y="252" type="curve" smooth="yes"/>
      <point x="1286" y="77"/>
      <point x="1207" y="-14"/>
      <point x="1108" y="-14" type="curve" smooth="yes"/>
      <point x="1047" y="-14"/>
      <point x="996" y="36"/>
      <point x="996" y="99" type="curve"/>
      <point x="996" y="153"/>
      <point x="1026" y="206"/>
      <point x="1086" y="206" type="curve" smooth="yes"/>
      <point x="1129" y="206"/>
      <point x="1154" y="176"/>
      <point x="1154" y="149" type="curve" smooth="yes"/>
      <point x="1154" y="120"/>
      <point x="1133" y="97"/>
      <point x="1105" y="97" type="curve" smooth="yes"/>
      <point x="1078" y="97"/>
      <point x="1060" y="118"/>
      <point x="1060" y="148" type="curve" smooth="yes"/>
      <point x="1060" y="154"/>
      <point x="1059" y="155"/>
      <point x="1057" y="155" type="curve" smooth="yes"/>
      <point x="1044" y="155"/>
      <point x="1037" y="132"/>
      <point x="1037" y="116" type="curve"/>
      <point x="1037" y="79"/>
      <point x="1072" y="50"/>
      <point x="1115" y="50" type="curve" smooth="yes"/>
      <point x="1197" y="50"/>
      <point x="1244" y="125"/>
      <point x="1244" y="217" type="curve" smooth="yes"/>
      <point x="1244" y="373"/>
      <point x="1159" y="454"/>
      <point x="1066" y="454" type="curve" smooth="yes"/>
      <point x="981" y="454"/>
      <point x="911" y="416"/>
      <point x="911" y="294" type="curve"/>
      <point x="911" y="103"/>
      <point x="885" y="-14"/>
      <point x="758" y="-14" type="curve" smooth="yes"/>
      <point x="660" y="-14"/>
      <point x="619" y="65"/>
      <point x="619" y="150" type="curve" smooth="yes"/>
      <point x="619" y="220"/>
      <point x="624" y="276"/>
      <point x="624" y="339" type="curve" smooth="yes"/>
      <point x="624" y="406"/>
      <point x="594" y="454"/>
      <point x="540" y="454" type="curve"/>
      <point x="481" y="454"/>
      <point x="454" y="396"/>
      <point x="454" y="339" type="curve" smooth="yes"/>
      <point x="454" y="284"/>
      <point x="466" y="229"/>
      <point x="466" y="150" type="curve" smooth="yes"/>
      <point x="466" y="42"/>
      <point x="396" y="-14"/>
      <point x="288" y="-14" type="curve"/>
      <point x="162" y="-14"/>
      <point x="55" y="107"/>
      <point x="55" y="283" type="curve"/>
      <point x="55" y="414"/>
      <point x="127" y="519"/>
      <point x="229" y="519" type="curve" smooth="yes"/>
      <point x="300" y="519"/>
      <point x="336" y="457"/>
      <point x="336" y="391" type="curve" smooth="yes"/>
      <point x="336" y="325"/>
      <point x="294" y="273"/>
      <point x="231" y="273" type="curve" smooth="yes"/>
      <point x="173" y="273"/>
      <point x="131" y="308"/>
      <point x="131" y="381" type="curve" smooth="yes"/>
      <point x="131" y="394"/>
      <point x="132" y="407"/>
      <point x="135" y="429" type="curve"/>
      <point x="156" y="497" type="line"/>
      <point x="171" y="501"/>
      <point x="176" y="475"/>
      <point x="165" y="450" type="curve"/>
    </contour>
  </outline>
</glyph>
<glyph name="knvR" format="1">
  <advance width="1081"/>
  <unicode hex="0C8B"/>
  <outline>
    <contour>
      <point x="366" y="436"/>
      <point x="260" y="519"/>
      <point x="167" y="519" type="curve"/>
      <point x="96" y="519"/>
      <point x="60" y="457"/>
      <point x="60" y="401" type="curve" smooth="yes"/>
      <point x="60" y="325"/>
      <point x="102" y="283"/>
      <point x="165" y="283" type="curve" smooth="yes"/>
      <point x="223" y="283"/>
      <point x="265" y="308"/>
      <point x="265" y="381" type="curve" smooth="yes"/>
      <point x="265" y="394"/>
      <point x="264" y="407"/>
      <point x="261" y="429" type="curve"/>
      <point x="221" y="450" type="line"/>
      <point x="234" y="440"/>
      <point x="235" y="419"/>
      <point x="235" y="408" type="curve" smooth="yes"/>
      <point x="235" y="372"/>
      <point x="207" y="354"/>
      <point x="165" y="354" type="curve" smooth="yes"/>
      <point x="118" y="354"/>
      <point x="90" y="375"/>
      <point x="90" y="407" type="curve" smooth="yes"/>
      <point x="90" y="440"/>
      <point x="114" y="459"/>
      <point x="152" y="459" type="curve"/>
      <point x="239" y="459"/>
      <point x="324" y="381"/>
      <point x="324" y="253" type="curve"/>
      <point x="324" y="124"/>
      <point x="239" y="46"/>
      <point x="152" y="46" type="curve"/>
      <point x="114" y="46"/>
      <point x="90" y="65"/>
      <point x="90" y="98" type="curve" smooth="yes"/>
      <point x="90" y="130"/>
      <point x="118" y="151"/>
      <point x="165" y="151" type="curve" smooth="yes"/>
      <point x="207" y="151"/>
      <point x="235" y="133"/>
      <point x="235" y="97" type="curve" smooth="yes"/>
      <point x="235" y="86"/>
      <point x="234" y="65"/>
      <point x="221" y="55" type="curve"/>
      <point x="261" y="76" type="line"/>
      <point x="264" y="98"/>
      <point x="265" y="111"/>
      <point x="265" y="124" type="curve" smooth="yes"/>
      <point x="265" y="197"/>
      <point x="223" y="222"/>
      <point x="165" y="222" type="curve" smooth="yes"/>
      <point x="102" y="222"/>
      <point x="60" y="180"/>
      <point x="60" y="104" type="curve" smooth="yes"/>
      <point x="60" y="48"/>
      <point x="96" y="-14"/>
      <point x="167" y="-14" type="curve"/>
      <point x="260" y="-14"/>
      <point x="366" y="69"/>
      <point x="366" y="253" type="curve"/>
    </contour>
    <contour>
      <point x="686" y="392"/>
      <point x="572" y="509"/>
      <point x="486" y="509" type="curve" smooth="yes"/>
      <point x="450" y="509"/>
      <point x="431" y="496"/>
      <point x="431" y="473" type="curve" smooth="yes"/>
      <point x="431" y="450"/>
      <point x="442" y="434"/>
      <point x="472" y="434" type="curve"/>
      <point x="571" y="434"/>
      <point x="644" y="338"/>
      <point x="644" y="257" type="curve" smooth="yes"/>
      <point x="644" y="158"/>
      <point x="575" y="71"/>
      <point x="490" y="71" type="curve"/>
      <point x="403" y="71"/>
      <point x="354" y="145"/>
      <point x="334" y="189" type="curve"/>
      <point x="310" y="139" type="line"/>
      <point x="322" y="82"/>
      <point x="397" y="-14"/>
      <point x="502" y="-14" type="curve"/>
      <point x="627" y="-14"/>
      <point x="686" y="109"/>
      <point x="686" y="245" type="curve" smooth="yes"/>
    </contour>
    <contour>
      <point x="628" y="644" type="line"/>
      <point x="652" y="635"/>
      <point x="674" y="610"/>
      <point x="674" y="576" type="curve" smooth="yes"/>
      <point x="674" y="536"/>
      <point x="643" y="509"/>
      <point x="582" y="509" type="curve" smooth="yes"/>
      <point x="390" y="509" type="line"/>
      <point x="390" y="434" type="line"/>
      <point x="582" y="434" type="line" smooth="yes"/>
      <point x="663" y="434"/>
      <point x="717" y="480"/>
      <point x="717" y="552" type="curve" smooth="yes"/>
      <point x="717" y="607"/>
      <point x="686" y="648"/>
      <point x="643" y="664" type="curve"/>
    </contour>
    <contour>
      <point x="743" y="71"/>
      <point x="694" y="145"/>
      <point x="674" y="189" type="curve"/>
      <point x="650" y="139" type="line"/>
      <point x="662" y="82"/>
      <point x="737" y="-14"/>
      <point x="833" y="-14" type="curve"/>
      <point x="946" y="-14"/>
      <point x="1026" y="115"/>
      <point x="1026" y="242" type="curve"/>
      <point x="1026" y="415"/>
      <point x="940" y="513"/>
      <point x="869" y="513" type="curve" smooth="yes"/>
      <point x="838" y="513"/>
      <point x="821" y="493"/>
      <point x="821" y="470" type="curve" smooth="yes"/>
      <point x="821" y="451"/>
      <point x="833" y="435"/>
      <point x="849" y="430" type="curve" smooth="yes"/>
      <point x="872" y="423"/>
      <point x="893" y="428"/>
      <point x="917" y="420" type="curve" smooth="yes"/>
      <point x="954" y="407"/>
      <point x="985" y="344"/>
      <point x="985" y="255" type="curve"/>
      <point x="985" y="159"/>
      <point x="915" y="71"/>
      <point x="833" y="71" type="curve"/>
    </contour>
  </outline>
</glyph>
<glyph name="knvL" format="1">
  <advance width="971"/>
  <unicode hex="0C8C"/>
  <outline>
    <contour>
      <point x="916" y="372"/>
      <point x="813" y="509"/>
      <point x="726" y="509" type="curve" smooth="yes"/>
      <point x="691" y="509"/>
      <point x="671" y="496"/>
      <point x="671" y="473" type="curve" smooth="yes"/>
      <point x="671" y="456"/>
      <point x="682" y="444"/>
      <point x="695" y="437" type="curve" smooth="yes"/>
      <point x="710" y="429"/>
      <point x="733" y="435"/>
      <point x="766" y="427" type="curve" smooth="yes"/>
      <point x="815" y="414"/>
      <point x="874" y="306"/>
      <point x="874" y="215" type="curve"/>
      <point x="874" y="135"/>
      <point x="816" y="71"/>
      <point x="728" y="71" type="curve" smooth="yes"/>
      <point x="559" y="71" type="line" smooth="yes"/>
      <point x="496" y="71"/>
      <point x="464" y="113"/>
      <point x="464" y="155" type="curve" smooth="yes"/>
      <point x="464" y="236"/>
      <point x="607" y="252"/>
      <point x="607" y="371" type="curve" smooth="yes"/>
      <point x="607" y="461"/>
      <point x="548" y="519"/>
      <point x="484" y="519" type="curve" smooth="yes"/>
      <point x="415" y="519"/>
      <point x="347" y="461"/>
      <point x="324" y="377" type="curve"/>
      <point x="322" y="377" type="line"/>
      <point x="299" y="461"/>
      <point x="230" y="519"/>
      <point x="161" y="519" type="curve" smooth="yes"/>
      <point x="85" y="519"/>
      <point x="26" y="456"/>
      <point x="26" y="377" type="curve" smooth="yes"/>
      <point x="26" y="347"/>
      <point x="34" y="321"/>
      <point x="56" y="296" type="curve"/>
      <point x="87" y="317" type="line"/>
      <point x="80" y="325"/>
      <point x="74" y="340"/>
      <point x="74" y="354" type="curve" smooth="yes"/>
      <point x="74" y="392"/>
      <point x="105" y="444"/>
      <point x="164" y="444" type="curve" smooth="yes"/>
      <point x="249" y="444"/>
      <point x="304" y="358"/>
      <point x="318" y="283" type="curve"/>
      <point x="327" y="283" type="line"/>
      <point x="340" y="358"/>
      <point x="396" y="444"/>
      <point x="479" y="444" type="curve" smooth="yes"/>
      <point x="532" y="444"/>
      <point x="560" y="416"/>
      <point x="560" y="372" type="curve" smooth="yes"/>
      <point x="560" y="269"/>
      <point x="417" y="275"/>
      <point x="417" y="140" type="curve" smooth="yes"/>
      <point x="417" y="55"/>
      <point x="470" y="0"/>
      <point x="536" y="0" type="curve" smooth="yes"/>
      <point x="728" y="0" type="line" smooth="yes"/>
      <point x="846" y="0"/>
      <point x="916" y="73"/>
      <point x="916" y="194" type="curve"/>
    </contour>
  </outline>
</glyph>
<glyph name="knE" format="1">
  <advance width="725"/>
  <unicode hex="0C8E"/>
  <outline>
    <contour>
      <point x="418" y="71"/>
      <point x="352" y="146"/>
      <point x="339" y="221" type="curve"/>
      <point x="330" y="221" type="line"/>
      <point x="316" y="145"/>
      <point x="251" y="71"/>
      <point x="178" y="71" type="curve" smooth="yes"/>
      <point x="125" y="71"/>
      <point x="93" y="114"/>
      <point x="93" y="156" type="curve"/>
      <point x="93" y="203"/>
      <point x="119" y="227"/>
      <point x="156" y="227" type="curve" smooth="yes"/>
      <point x="186" y="227"/>
      <point x="211" y="217"/>
      <point x="222" y="193" type="curve"/>
      <point x="238" y="208" type="line"/>
      <point x="225" y="250"/>
      <point x="201" y="287"/>
      <point x="153" y="287" type="curve" smooth="yes"/>
      <point x="93" y="287"/>
      <point x="50" y="232"/>
      <point x="50" y="143" type="curve"/>
      <point x="50" y="56"/>
      <point x="84" y="-14"/>
      <point x="173" y="-14" type="curve" smooth="yes"/>
      <point x="243" y="-14"/>
      <point x="311" y="43"/>
      <point x="334" y="126" type="curve"/>
      <point x="336" y="126" type="line"/>
      <point x="359" y="43"/>
      <point x="427" y="-14"/>
      <point x="497" y="-14" type="curve"/>
      <point x="608" y="-14"/>
      <point x="670" y="78"/>
      <point x="670" y="224" type="curve" smooth="yes"/>
      <point x="670" y="426"/>
      <point x="476" y="519"/>
      <point x="343" y="519" type="curve" smooth="yes"/>
      <point x="308" y="519"/>
      <point x="288" y="500"/>
      <point x="288" y="477" type="curve" smooth="yes"/>
      <point x="288" y="460"/>
      <point x="297" y="444"/>
      <point x="312" y="438" type="curve" smooth="yes"/>
      <point x="334" y="430"/>
      <point x="354" y="439"/>
      <point x="383" y="439" type="curve" smooth="yes"/>
      <point x="512" y="439"/>
      <point x="629" y="362"/>
      <point x="629" y="237" type="curve" smooth="yes"/>
      <point x="629" y="168"/>
      <point x="589" y="71"/>
      <point x="491" y="71" type="curve"/>
    </contour>
  </outline>
</glyph>
<glyph name="knEE" format="1">
  <advance width="724"/>
  <unicode hex="0C8F"/>
  <outline>
    <contour>
      <point x="608" y="-14"/>
      <point x="670" y="78"/>
      <point x="670" y="224" type="curve"/>
      <point x="670" y="391"/>
      <point x="547" y="532"/>
      <point x="373" y="532" type="curve"/>
      <point x="349" y="480"/>
      <point x="318" y="457"/>
      <point x="273" y="457" type="curve" smooth="yes"/>
      <point x="217" y="457"/>
      <point x="174" y="506"/>
      <point x="190" y="581" type="curve"/>
      <point x="169" y="594" type="line"/>
      <point x="104" y="500"/>
      <point x="152" y="378"/>
      <point x="265" y="378" type="curve" smooth="yes"/>
      <point x="330" y="378"/>
      <point x="369" y="420"/>
      <point x="394" y="476" type="curve"/>
      <point x="522" y="459"/>
      <point x="629" y="370"/>
      <point x="629" y="237" type="curve"/>
      <point x="629" y="151"/>
      <point x="578" y="71"/>
      <point x="490" y="71" type="curve"/>
      <point x="417" y="71"/>
      <point x="352" y="146"/>
      <point x="339" y="221" type="curve"/>
      <point x="330" y="221" type="line"/>
      <point x="316" y="145"/>
      <point x="250" y="71"/>
      <point x="177" y="71" type="curve" smooth="yes"/>
      <point x="124" y="71"/>
      <point x="93" y="114"/>
      <point x="93" y="156" type="curve"/>
      <point x="93" y="203"/>
      <point x="120" y="227"/>
      <point x="157" y="227" type="curve" smooth="yes"/>
      <point x="187" y="227"/>
      <point x="212" y="217"/>
      <point x="223" y="193" type="curve"/>
      <point x="239" y="208" type="line"/>
      <point x="226" y="250"/>
      <point x="202" y="287"/>
      <point x="154" y="287" type="curve" smooth="yes"/>
      <point x="93" y="287"/>
      <point x="50" y="232"/>
      <point x="50" y="145" type="curve"/>
      <point x="50" y="56"/>
      <point x="84" y="-14"/>
      <point x="174" y="-14" type="curve" smooth="yes"/>
      <point x="242" y="-14"/>
      <point x="311" y="43"/>
      <point x="334" y="126" type="curve"/>
      <point x="336" y="126" type="line"/>
      <point x="359" y="43"/>
      <point x="426" y="-14"/>
      <point x="498" y="-14" type="curve"/>
    </contour>
  </outline>
</glyph>
<glyph name="knAI" format="1">
  <advance width="742"/>
  <unicode hex="0C90"/>
  <outline>
    <contour>
      <point x="444" y="519"/>
      <point x="377" y="461"/>
      <point x="354" y="377" type="curve"/>
      <point x="352" y="377" type="line"/>
      <point x="329" y="461"/>
      <point x="259" y="519"/>
      <point x="190" y="519" type="curve" smooth="yes"/>
      <point x="102" y="519"/>
      <point x="40" y="431"/>
      <point x="40" y="350" type="curve"/>
      <point x="71" y="330" type="line"/>
      <point x="88" y="377"/>
      <point x="114" y="444"/>
      <point x="194" y="444" type="curve" smooth="yes"/>
      <point x="279" y="444"/>
      <point x="335" y="358"/>
      <point x="349" y="283" type="curve"/>
      <point x="358" y="283" type="line"/>
      <point x="370" y="357"/>
      <point x="426" y="444"/>
      <point x="509" y="444" type="curve" smooth="yes"/>
      <point x="599" y="444"/>
      <point x="646" y="370"/>
      <point x="646" y="254" type="curve" smooth="yes"/>
      <point x="646" y="151"/>
      <point x="595" y="71"/>
      <point x="509" y="71" type="curve" smooth="yes"/>
      <point x="435" y="71"/>
      <point x="370" y="146"/>
      <point x="357" y="221" type="curve"/>
      <point x="348" y="221" type="line"/>
      <point x="334" y="145"/>
      <point x="269" y="71"/>
      <point x="196" y="71" type="curve" smooth="yes"/>
      <point x="143" y="71"/>
      <point x="111" y="114"/>
      <point x="111" y="156" type="curve" smooth="yes"/>
      <point x="111" y="203"/>
      <point x="138" y="227"/>
      <point x="174" y="227" type="curve" smooth="yes"/>
      <point x="205" y="227"/>
      <point x="230" y="217"/>
      <point x="241" y="193" type="curve"/>
      <point x="257" y="208" type="line"/>
      <point x="244" y="250"/>
      <point x="220" y="287"/>
      <point x="172" y="287" type="curve" smooth="yes"/>
      <point x="111" y="287"/>
      <point x="68" y="232"/>
      <point x="68" y="145" type="curve" smooth="yes"/>
      <point x="68" y="56"/>
      <point x="102" y="-14"/>
      <point x="193" y="-14" type="curve" smooth="yes"/>
      <point x="260" y="-14"/>
      <point x="329" y="43"/>
      <point x="352" y="126" type="curve"/>
      <point x="354" y="126" type="line"/>
      <point x="377" y="43"/>
      <point x="445" y="-14"/>
      <point x="513" y="-14" type="curve" smooth="yes"/>
      <point x="623" y="-14"/>
      <point x="687" y="77"/>
      <point x="687" y="254" type="curve" smooth="yes"/>
      <point x="687" y="391"/>
      <point x="627" y="519"/>
      <point x="513" y="519" type="curve" smooth="yes"/>
    </contour>
  </outline>
</glyph>
<glyph name="knO" format="1">
  <advance width="678"/>
  <unicode hex="0C92"/>
  <outline>
    <contour>
      <point x="638" y="172"/>
      <point x="609" y="222"/>
      <point x="575" y="251" type="curve"/>
      <point x="554" y="236" type="line"/>
      <point x="578" y="212"/>
      <point x="590" y="183"/>
      <point x="590" y="154" type="curve" smooth="yes"/>
      <point x="590" y="116"/>
      <point x="565" y="71"/>
      <point x="507" y="71" type="curve" smooth="yes"/>
      <point x="434" y="71"/>
      <point x="368" y="146"/>
      <point x="355" y="221" type="curve"/>
      <point x="346" y="221" type="line"/>
      <point x="332" y="145"/>
      <point x="267" y="71"/>
      <point x="194" y="71" type="curve" smooth="yes"/>
      <point x="141" y="71"/>
      <point x="114" y="114"/>
      <point x="114" y="156" type="curve" smooth="yes"/>
      <point x="114" y="187"/>
      <point x="138" y="223"/>
      <point x="172" y="257" type="curve" smooth="yes"/>
      <point x="213" y="298"/>
      <point x="261" y="349"/>
      <point x="261" y="399" type="curve" smooth="yes"/>
      <point x="261" y="465"/>
      <point x="213" y="519"/>
      <point x="137" y="519" type="curve" smooth="yes"/>
      <point x="62" y="519"/>
      <point x="23" y="465"/>
      <point x="23" y="413" type="curve" smooth="yes"/>
      <point x="23" y="381"/>
      <point x="31" y="352"/>
      <point x="52" y="330" type="curve"/>
      <point x="72" y="345" type="line"/>
      <point x="65" y="360"/>
      <point x="62" y="372"/>
      <point x="62" y="383" type="curve" smooth="yes"/>
      <point x="62" y="421"/>
      <point x="85" y="452"/>
      <point x="137" y="452" type="curve" smooth="yes"/>
      <point x="174" y="452"/>
      <point x="208" y="427"/>
      <point x="208" y="385" type="curve" smooth="yes"/>
      <point x="208" y="344"/>
      <point x="177" y="311"/>
      <point x="145" y="278" type="curve" smooth="yes"/>
      <point x="106" y="238"/>
      <point x="63" y="193"/>
      <point x="63" y="125" type="curve" smooth="yes"/>
      <point x="63" y="38"/>
      <point x="124" y="-14"/>
      <point x="191" y="-14" type="curve" smooth="yes"/>
      <point x="259" y="-14"/>
      <point x="327" y="43"/>
      <point x="350" y="126" type="curve"/>
      <point x="352" y="126" type="line"/>
      <point x="375" y="43"/>
      <point x="443" y="-14"/>
      <point x="511" y="-14" type="curve" smooth="yes"/>
      <point x="577" y="-14"/>
      <point x="638" y="38"/>
      <point x="638" y="125" type="curve" smooth="yes"/>
    </contour>
  </outline>
</glyph>
<glyph name="knOO" format="1">
  <advance width="698"/>
  <unicode hex="0C93"/>
  <outline>
    <contour>
      <point x="172" y="532"/>
      <point x="159" y="562"/>
      <point x="159" y="592" type="curve" smooth="yes"/>
      <point x="159" y="625"/>
      <point x="181" y="657"/>
      <point x="222" y="672" type="curve"/>
      <point x="204" y="694" type="line"/>
      <point x="139" y="682"/>
      <point x="101" y="641"/>
      <point x="101" y="598" type="curve" smooth="yes"/>
      <point x="101" y="553"/>
      <point x="130" y="519"/>
      <point x="186" y="495" type="curve"/>
      <point x="207" y="510" type="line"/>
    </contour>
    <contour>
      <point x="658" y="185"/>
      <point x="631" y="220"/>
      <point x="600" y="250" type="curve"/>
      <point x="574" y="233" type="line"/>
      <point x="596" y="209"/>
      <point x="608" y="184"/>
      <point x="608" y="154" type="curve"/>
      <point x="608" y="116"/>
      <point x="575" y="71"/>
      <point x="527" y="71" type="curve" smooth="yes"/>
      <point x="454" y="71"/>
      <point x="388" y="146"/>
      <point x="375" y="221" type="curve"/>
      <point x="366" y="221" type="line"/>
      <point x="352" y="145"/>
      <point x="287" y="71"/>
      <point x="214" y="71" type="curve" smooth="yes"/>
      <point x="161" y="71"/>
      <point x="134" y="114"/>
      <point x="134" y="156" type="curve"/>
      <point x="134" y="187"/>
      <point x="164" y="219"/>
      <point x="196" y="253" type="curve" smooth="yes"/>
      <point x="236" y="294"/>
      <point x="281" y="340"/>
      <point x="281" y="399" type="curve" smooth="yes"/>
      <point x="281" y="473"/>
      <point x="223" y="519"/>
      <point x="157" y="519" type="curve" smooth="yes"/>
      <point x="99" y="519"/>
      <point x="40" y="485"/>
      <point x="40" y="416" type="curve" smooth="yes"/>
      <point x="40" y="384"/>
      <point x="51" y="352"/>
      <point x="72" y="330" type="curve"/>
      <point x="103" y="350" type="line"/>
      <point x="95" y="365"/>
      <point x="93" y="377"/>
      <point x="93" y="388" type="curve" smooth="yes"/>
      <point x="93" y="425"/>
      <point x="118" y="452"/>
      <point x="157" y="452" type="curve" smooth="yes"/>
      <point x="194" y="452"/>
      <point x="228" y="427"/>
      <point x="228" y="385" type="curve" smooth="yes"/>
      <point x="228" y="344"/>
      <point x="197" y="311"/>
      <point x="165" y="278" type="curve" smooth="yes"/>
      <point x="126" y="238"/>
      <point x="83" y="193"/>
      <point x="83" y="125" type="curve"/>
      <point x="83" y="38"/>
      <point x="144" y="-14"/>
      <point x="211" y="-14" type="curve" smooth="yes"/>
      <point x="279" y="-14"/>
      <point x="347" y="43"/>
      <point x="370" y="126" type="curve"/>
      <point x="372" y="126" type="line"/>
      <point x="395" y="43"/>
      <point x="463" y="-14"/>
      <point x="531" y="-14" type="curve" smooth="yes"/>
      <point x="597" y="-14"/>
      <point x="658" y="38"/>
      <point x="658" y="125" type="curve"/>
    </contour>
  </outline>
</glyph>
<glyph name="knAU" format="1">
  <advance width="713"/>
  <unicode hex="0C94"/>
  <outline>
    <contour>
      <point x="658" y="185"/>
      <point x="631" y="220"/>
      <point x="600" y="250" type="curve"/>
      <point x="574" y="233" type="line"/>
      <point x="596" y="209"/>
      <point x="608" y="184"/>
      <point x="608" y="156" type="curve"/>
      <point x="623" y="127" type="line"/>
      <point x="658" y="127" type="line"/>
    </contour>
    <contour>
      <point x="393" y="485"/>
      <point x="413" y="500"/>
      <point x="431" y="500" type="curve" smooth="yes"/>
      <point x="435" y="500"/>
      <point x="436" y="499"/>
      <point x="436" y="493" type="curve" smooth="yes"/>
      <point x="436" y="463"/>
      <point x="454" y="442"/>
      <point x="481" y="442" type="curve" smooth="yes"/>
      <point x="509" y="442"/>
      <point x="530" y="465"/>
      <point x="530" y="494" type="curve" smooth="yes"/>
      <point x="530" y="521"/>
      <point x="505" y="551"/>
      <point x="462" y="551" type="curve" smooth="yes"/>
      <point x="402" y="551"/>
      <point x="348" y="498"/>
      <point x="348" y="419" type="curve"/>
      <point x="348" y="341"/>
      <point x="413" y="287"/>
      <point x="487" y="287" type="curve" smooth="yes"/>
      <point x="573" y="287"/>
      <point x="635" y="364"/>
      <point x="635" y="467" type="curve" smooth="yes"/>
      <point x="635" y="602"/>
      <point x="543" y="698"/>
      <point x="394" y="698" type="curve" smooth="yes"/>
      <point x="44" y="698" type="line"/>
      <point x="44" y="626" type="line"/>
      <point x="271" y="626" type="line"/>
      <point x="272" y="623"/>
      <point x="273" y="618"/>
      <point x="273" y="614" type="curve" smooth="yes"/>
      <point x="273" y="599"/>
      <point x="265" y="578"/>
      <point x="237" y="578" type="curve" smooth="yes"/>
      <point x="44" y="578" type="line"/>
      <point x="44" y="508" type="line"/>
      <point x="198" y="508" type="line"/>
      <point x="219" y="508" type="line"/>
      <point x="273" y="508"/>
      <point x="313" y="541"/>
      <point x="313" y="586" type="curve" smooth="yes"/>
      <point x="313" y="599"/>
      <point x="310" y="613"/>
      <point x="303" y="626" type="curve"/>
      <point x="394" y="626" type="line" smooth="yes"/>
      <point x="521" y="626"/>
      <point x="596" y="561"/>
      <point x="596" y="467" type="curve" smooth="yes"/>
      <point x="596" y="399"/>
      <point x="553" y="349"/>
      <point x="487" y="349" type="curve" smooth="yes"/>
      <point x="434" y="349"/>
      <point x="393" y="386"/>
      <point x="393" y="446" type="curve"/>
    </contour>
    <contour>
      <point x="134" y="189"/>
      <point x="164" y="219"/>
      <point x="196" y="253" type="curve" smooth="yes"/>
      <point x="236" y="294"/>
      <point x="281" y="340"/>
      <point x="281" y="399" type="curve" smooth="yes"/>
      <point x="281" y="473"/>
      <point x="223" y="519"/>
      <point x="157" y="519" type="curve" smooth="yes"/>
      <point x="99" y="519"/>
      <point x="40" y="485"/>
      <point x="40" y="416" type="curve" smooth="yes"/>
      <point x="40" y="384"/>
      <point x="51" y="352"/>
      <point x="72" y="330" type="curve"/>
      <point x="103" y="350" type="line"/>
      <point x="95" y="365"/>
      <point x="93" y="377"/>
      <point x="93" y="388" type="curve" smooth="yes"/>
      <point x="93" y="425"/>
      <point x="118" y="452"/>
      <point x="157" y="452" type="curve" smooth="yes"/>
      <point x="194" y="452"/>
      <point x="228" y="427"/>
      <point x="228" y="385" type="curve" smooth="yes"/>
      <point x="228" y="344"/>
      <point x="197" y="311"/>
      <point x="165" y="278" type="curve" smooth="yes"/>
      <point x="126" y="238"/>
      <point x="83" y="195"/>
      <point x="83" y="127" type="curve"/>
      <point x="126" y="127" type="line"/>
      <point x="134" y="158" type="line"/>
    </contour>
    <contour>
      <point x="658" y="185"/>
      <point x="631" y="220"/>
      <point x="600" y="250" type="curve"/>
      <point x="574" y="233" type="line"/>
      <point x="596" y="209"/>
      <point x="608" y="184"/>
      <point x="608" y="154" type="curve"/>
      <point x="608" y="116"/>
      <point x="575" y="71"/>
      <point x="527" y="71" type="curve" smooth="yes"/>
      <point x="454" y="71"/>
      <point x="388" y="146"/>
      <point x="375" y="221" type="curve"/>
      <point x="366" y="221" type="line"/>
      <point x="352" y="145"/>
      <point x="287" y="71"/>
      <point x="214" y="71" type="curve" smooth="yes"/>
      <point x="161" y="71"/>
      <point x="134" y="114"/>
      <point x="134" y="156" type="curve"/>
      <point x="134" y="187"/>
      <point x="164" y="219"/>
      <point x="196" y="253" type="curve" smooth="yes"/>
      <point x="236" y="294"/>
      <point x="281" y="340"/>
      <point x="281" y="399" type="curve" smooth="yes"/>
      <point x="281" y="473"/>
      <point x="223" y="519"/>
      <point x="157" y="519" type="curve" smooth="yes"/>
      <point x="99" y="519"/>
      <point x="40" y="485"/>
      <point x="40" y="416" type="curve" smooth="yes"/>
      <point x="40" y="384"/>
      <point x="51" y="352"/>
      <point x="72" y="330" type="curve"/>
      <point x="103" y="350" type="line"/>
      <point x="95" y="365"/>
      <point x="93" y="377"/>
      <point x="93" y="388" type="curve" smooth="yes"/>
      <point x="93" y="425"/>
      <point x="118" y="452"/>
      <point x="157" y="452" type="curve" smooth="yes"/>
      <point x="194" y="452"/>
      <point x="228" y="427"/>
      <point x="228" y="385" type="curve" smooth="yes"/>
      <point x="228" y="344"/>
      <point x="197" y="311"/>
      <point x="165" y="278" type="curve" smooth="yes"/>
      <point x="126" y="238"/>
      <point x="83" y="193"/>
      <point x="83" y="125" type="curve"/>
      <point x="83" y="38"/>
      <point x="144" y="-14"/>
      <point x="211" y="-14" type="curve" smooth="yes"/>
      <point x="279" y="-14"/>
      <point x="347" y="43"/>
      <point x="370" y="126" type="curve"/>
      <point x="372" y="126" type="line"/>
      <point x="395" y="43"/>
      <point x="463" y="-14"/>
      <point x="531" y="-14" type="curve" smooth="yes"/>
      <point x="597" y="-14"/>
      <point x="658" y="38"/>
      <point x="658" y="125" type="curve"/>
    </contour>
  </outline>
</glyph>
<glyph name="knKA" format="1">
  <advance width="480"/>
  <unicode hex="0C95"/>
  <outline>
    <contour>
      <point x="142" y="327"/>
      <point x="65" y="248"/>
      <point x="65" y="158" type="curve" smooth="yes"/>
      <point x="65" y="64"/>
      <point x="142" y="-14"/>
      <point x="239" y="-14" type="curve" smooth="yes"/>
      <point x="333" y="-14"/>
      <point x="410" y="64"/>
      <point x="410" y="158" type="curve" smooth="yes"/>
      <point x="410" y="248"/>
      <point x="333" y="327"/>
      <point x="239" y="327" type="curve" smooth="yes"/>
    </contour>
    <contour>
      <point x="301" y="303"/>
      <point x="354" y="251"/>
      <point x="354" y="185" type="curve" smooth="yes"/>
      <point x="354" y="117"/>
      <point x="303" y="71"/>
      <point x="239" y="71" type="curve" smooth="yes"/>
      <point x="174" y="71"/>
      <point x="123" y="117"/>
      <point x="123" y="185" type="curve" smooth="yes"/>
      <point x="123" y="251"/>
      <point x="176" y="303"/>
      <point x="239" y="303" type="curve"/>
    </contour>
    <contour>
      <point x="25" y="360" type="line"/>
      <point x="25" y="294" type="line"/>
      <point x="183" y="294" type="line"/>
      <point x="239" y="306" type="line" smooth="yes"/>
      <point x="298" y="294" type="line"/>
      <point x="450" y="294" type="line"/>
      <point x="450" y="360" type="line"/>
    </contour>
    <contour>
      <point x="361" y="644" type="line"/>
      <point x="385" y="635"/>
      <point x="407" y="610"/>
      <point x="407" y="576" type="curve" smooth="yes"/>
      <point x="407" y="536"/>
      <point x="376" y="509"/>
      <point x="315" y="509" type="curve" smooth="yes"/>
      <point x="25" y="509" type="line"/>
      <point x="25" y="434" type="line"/>
      <point x="315" y="434" type="line" smooth="yes"/>
      <point x="397" y="434"/>
      <point x="450" y="480"/>
      <point x="450" y="552" type="curve" smooth="yes"/>
      <point x="450" y="607"/>
      <point x="419" y="648"/>
      <point x="376" y="664" type="curve"/>
    </contour>
    <contour>
      <point x="266" y="438"/>
      <point x="249" y="471"/>
      <point x="209" y="488" type="curve"/>
      <point x="194" y="465" type="line"/>
      <point x="218" y="453"/>
      <point x="230" y="430"/>
      <point x="230" y="401" type="curve" smooth="yes"/>
      <point x="230" y="372"/>
      <point x="218" y="349"/>
      <point x="194" y="337" type="curve"/>
      <point x="209" y="314" type="line"/>
      <point x="249" y="331"/>
      <point x="266" y="364"/>
      <point x="266" y="401" type="curve" smooth="yes"/>
    </contour>
  </outline>
</glyph>
<glyph name="knKHA" format="1">
  <advance width="823"/>
  <unicode hex="0C96"/>
  <outline>
    <contour>
      <point x="382" y="71"/>
      <point x="335" y="229"/>
      <point x="180" y="229" type="curve" smooth="yes"/>
      <point x="94" y="229"/>
      <point x="40" y="181"/>
      <point x="40" y="109" type="curve"/>
      <point x="40" y="39"/>
      <point x="109" y="-14"/>
      <point x="195" y="-14" type="curve" smooth="yes"/>
      <point x="349" y="-14"/>
      <point x="437" y="169"/>
      <point x="437" y="279" type="curve"/>
      <point x="437" y="445"/>
      <point x="358" y="520"/>
      <point x="259" y="520" type="curve" smooth="yes"/>
      <point x="198" y="520"/>
      <point x="147" y="469"/>
      <point x="147" y="407" type="curve"/>
      <point x="147" y="353"/>
      <point x="177" y="300"/>
      <point x="237" y="300" type="curve" smooth="yes"/>
      <point x="281" y="300"/>
      <point x="305" y="330"/>
      <point x="305" y="356" type="curve" smooth="yes"/>
      <point x="305" y="385"/>
      <point x="284" y="408"/>
      <point x="257" y="408" type="curve" smooth="yes"/>
      <point x="229" y="408"/>
      <point x="212" y="387"/>
      <point x="212" y="357" type="curve" smooth="yes"/>
      <point x="212" y="352"/>
      <point x="211" y="351"/>
      <point x="208" y="351" type="curve" smooth="yes"/>
      <point x="196" y="351"/>
      <point x="189" y="374"/>
      <point x="189" y="390" type="curve"/>
      <point x="189" y="426"/>
      <point x="223" y="455"/>
      <point x="266" y="455" type="curve" smooth="yes"/>
      <point x="337" y="455"/>
      <point x="396" y="397"/>
      <point x="396" y="287" type="curve"/>
      <point x="396" y="159"/>
      <point x="327" y="71"/>
      <point x="200" y="71" type="curve" smooth="yes"/>
      <point x="137" y="71"/>
      <point x="112" y="98"/>
      <point x="112" y="127" type="curve"/>
      <point x="112" y="167"/>
      <point x="143" y="193"/>
      <point x="200" y="193" type="curve" smooth="yes"/>
      <point x="346" y="193"/>
      <point x="373" y="-14"/>
      <point x="529" y="-14" type="curve" smooth="yes"/>
      <point x="689" y="-14"/>
      <point x="768" y="115"/>
      <point x="768" y="282" type="curve"/>
      <point x="768" y="415"/>
      <point x="681" y="513"/>
      <point x="610" y="513" type="curve" smooth="yes"/>
      <point x="579" y="513"/>
      <point x="562" y="493"/>
      <point x="562" y="470" type="curve" smooth="yes"/>
      <point x="562" y="451"/>
      <point x="574" y="435"/>
      <point x="590" y="430" type="curve" smooth="yes"/>
      <point x="613" y="423"/>
      <point x="634" y="428"/>
      <point x="658" y="420" type="curve" smooth="yes"/>
      <point x="695" y="407"/>
      <point x="727" y="364"/>
      <point x="727" y="292" type="curve"/>
      <point x="727" y="159"/>
      <point x="658" y="71"/>
      <point x="531" y="71" type="curve" smooth="yes"/>
    </contour>
  </outline>
</glyph>
<glyph name="knGA" format="1">
  <advance width="604"/>
  <unicode hex="0C97"/>
  <outline>
    <contour>
      <point x="231" y="449" type="line"/>
      <point x="128" y="388"/>
      <point x="65" y="247"/>
      <point x="65" y="71" type="curve" smooth="yes"/>
      <point x="65" y="0" type="line"/>
      <point x="143" y="0" type="line"/>
      <point x="143" y="118" type="line" smooth="yes"/>
      <point x="143" y="317"/>
      <point x="217" y="438"/>
      <point x="302" y="438" type="curve" smooth="yes"/>
      <point x="387" y="438"/>
      <point x="461" y="317"/>
      <point x="461" y="118" type="curve" smooth="yes"/>
      <point x="461" y="0" type="line"/>
      <point x="539" y="0" type="line"/>
      <point x="539" y="71" type="line" smooth="yes"/>
      <point x="539" y="247"/>
      <point x="476" y="388"/>
      <point x="373" y="449" type="curve"/>
      <point x="302" y="465" type="line"/>
    </contour>
    <contour>
      <point x="444" y="644" type="line"/>
      <point x="468" y="635"/>
      <point x="490" y="610"/>
      <point x="490" y="576" type="curve" smooth="yes"/>
      <point x="490" y="536"/>
      <point x="459" y="509"/>
      <point x="398" y="509" type="curve" smooth="yes"/>
      <point x="77" y="509" type="line"/>
      <point x="77" y="434" type="line"/>
      <point x="237" y="434" type="line"/>
      <point x="302" y="444" type="line"/>
      <point x="368" y="434" type="line"/>
      <point x="398" y="434" type="line" smooth="yes"/>
      <point x="479" y="434"/>
      <point x="533" y="480"/>
      <point x="533" y="552" type="curve" smooth="yes"/>
      <point x="533" y="607"/>
      <point x="502" y="648"/>
      <point x="459" y="664" type="curve"/>
    </contour>
  </outline>
</glyph>
<glyph name="knGHA" format="1">
  <advance width="831"/>
  <unicode hex="0C98"/>
  <outline>
    <contour>
      <point x="309" y="390"/>
      <point x="284" y="363"/>
      <point x="284" y="331" type="curve" smooth="yes"/>
      <point x="284" y="298"/>
      <point x="309" y="271"/>
      <point x="343" y="271" type="curve" smooth="yes"/>
      <point x="376" y="271"/>
      <point x="403" y="298"/>
      <point x="403" y="331" type="curve" smooth="yes"/>
      <point x="403" y="363"/>
      <point x="376" y="390"/>
      <point x="343" y="390" type="curve" smooth="yes"/>
    </contour>
    <contour>
      <point x="691" y="472" type="line"/>
      <point x="726" y="447"/>
      <point x="757" y="401"/>
      <point x="757" y="358" type="curve" smooth="yes"/>
      <point x="757" y="321"/>
      <point x="738" y="294"/>
      <point x="704" y="294" type="curve" smooth="yes"/>
      <point x="653" y="294"/>
      <point x="601" y="368"/>
      <point x="585" y="390" type="curve"/>
      <point x="562" y="372" type="line"/>
      <point x="599" y="288"/>
      <point x="667" y="211"/>
      <point x="723" y="211" type="curve" smooth="yes"/>
      <point x="779" y="211"/>
      <point x="806" y="253"/>
      <point x="806" y="323" type="curve" smooth="yes"/>
      <point x="806" y="401"/>
      <point x="761" y="457"/>
      <point x="706" y="490" type="curve"/>
    </contour>
    <contour>
      <point x="326" y="145"/>
      <point x="261" y="71"/>
      <point x="186" y="71" type="curve"/>
      <point x="135" y="71"/>
      <point x="103" y="114"/>
      <point x="103" y="156" type="curve" smooth="yes"/>
      <point x="103" y="203"/>
      <point x="129" y="227"/>
      <point x="166" y="227" type="curve" smooth="yes"/>
      <point x="196" y="227"/>
      <point x="221" y="217"/>
      <point x="232" y="193" type="curve"/>
      <point x="248" y="208" type="line"/>
      <point x="235" y="250"/>
      <point x="211" y="287"/>
      <point x="163" y="287" type="curve"/>
      <point x="103" y="287"/>
      <point x="60" y="232"/>
      <point x="60" y="143" type="curve" smooth="yes"/>
      <point x="60" y="56"/>
      <point x="94" y="-14"/>
      <point x="183" y="-14" type="curve"/>
      <point x="251" y="-14"/>
      <point x="321" y="43"/>
      <point x="344" y="126" type="curve"/>
      <point x="346" y="126" type="line"/>
      <point x="369" y="43"/>
      <point x="438" y="-14"/>
      <point x="506" y="-14" type="curve" smooth="yes"/>
      <point x="598" y="-14"/>
      <point x="635" y="84"/>
      <point x="635" y="174" type="curve" smooth="yes"/>
      <point x="635" y="252"/>
      <point x="618" y="355"/>
      <point x="585" y="390" type="curve"/>
      <point x="562" y="372" type="line"/>
      <point x="580" y="330"/>
      <point x="597" y="260"/>
      <point x="597" y="202" type="curve" smooth="yes"/>
      <point x="597" y="141"/>
      <point x="569" y="71"/>
      <point x="493" y="71" type="curve" smooth="yes"/>
      <point x="428" y="71"/>
      <point x="363" y="145"/>
      <point x="349" y="221" type="curve"/>
      <point x="340" y="221" type="line"/>
    </contour>
    <contour>
      <point x="407" y="-90"/>
      <point x="365" y="-34"/>
      <point x="352" y="46" type="curve"/>
      <point x="334" y="46" type="line"/>
      <point x="322" y="-34"/>
      <point x="278" y="-90"/>
      <point x="278" y="-131" type="curve" smooth="yes"/>
      <point x="278" y="-180"/>
      <point x="316" y="-200"/>
      <point x="343" y="-200" type="curve"/>
      <point x="367" y="-200"/>
      <point x="407" y="-184"/>
      <point x="407" y="-131" type="curve" smooth="yes"/>
    </contour>
    <contour>
      <point x="597" y="644" type="line"/>
      <point x="621" y="635"/>
      <point x="643" y="610"/>
      <point x="643" y="576" type="curve" smooth="yes"/>
      <point x="643" y="536"/>
      <point x="612" y="509"/>
      <point x="551" y="509" type="curve" smooth="yes"/>
      <point x="60" y="509" type="line"/>
      <point x="60" y="434" type="line"/>
      <point x="551" y="434" type="line" smooth="yes"/>
      <point x="632" y="434"/>
      <point x="686" y="480"/>
      <point x="686" y="552" type="curve" smooth="yes"/>
      <point x="686" y="607"/>
      <point x="655" y="648"/>
      <point x="612" y="664" type="curve"/>
    </contour>
  </outline>
</glyph>
<glyph name="knNGA" format="1">
  <advance width="703"/>
  <unicode hex="0C99"/>
  <outline>
    <contour>
      <point x="329" y="371"/>
      <point x="352" y="395"/>
      <point x="382" y="395" type="curve" smooth="yes"/>
      <point x="412" y="395"/>
      <point x="435" y="371"/>
      <point x="435" y="341" type="curve" smooth="yes"/>
      <point x="435" y="312"/>
      <point x="412" y="288"/>
      <point x="382" y="288" type="curve" smooth="yes"/>
      <point x="352" y="288"/>
      <point x="329" y="312"/>
      <point x="329" y="341" type="curve" smooth="yes"/>
    </contour>
    <contour>
      <point x="363" y="536"/>
      <point x="271" y="438"/>
      <point x="219" y="346" type="curve"/>
      <point x="224" y="307" type="line"/>
      <point x="290" y="393"/>
      <point x="368" y="467"/>
      <point x="465" y="467" type="curve" smooth="yes"/>
      <point x="529" y="467"/>
      <point x="570" y="430"/>
      <point x="570" y="376" type="curve" smooth="yes"/>
      <point x="570" y="355"/>
      <point x="564" y="337"/>
      <point x="550" y="324" type="curve"/>
      <point x="569" y="308" type="line"/>
      <point x="595" y="325"/>
      <point x="613" y="356"/>
      <point x="613" y="402" type="curve" smooth="yes"/>
      <point x="613" y="472"/>
      <point x="564" y="536"/>
      <point x="480" y="536" type="curve" smooth="yes"/>
    </contour>
    <contour>
      <point x="638" y="185"/>
      <point x="611" y="220"/>
      <point x="580" y="250" type="curve"/>
      <point x="554" y="233" type="line"/>
      <point x="576" y="209"/>
      <point x="588" y="184"/>
      <point x="588" y="154" type="curve"/>
      <point x="588" y="116"/>
      <point x="565" y="71"/>
      <point x="507" y="71" type="curve" smooth="yes"/>
      <point x="434" y="71"/>
      <point x="368" y="146"/>
      <point x="355" y="221" type="curve"/>
      <point x="346" y="221" type="line"/>
      <point x="332" y="145"/>
      <point x="267" y="71"/>
      <point x="194" y="71" type="curve" smooth="yes"/>
      <point x="141" y="71"/>
      <point x="114" y="114"/>
      <point x="114" y="156" type="curve"/>
      <point x="114" y="187"/>
      <point x="144" y="219"/>
      <point x="176" y="253" type="curve" smooth="yes"/>
      <point x="216" y="294"/>
      <point x="261" y="340"/>
      <point x="261" y="399" type="curve" smooth="yes"/>
      <point x="261" y="473"/>
      <point x="203" y="519"/>
      <point x="137" y="519" type="curve" smooth="yes"/>
      <point x="79" y="519"/>
      <point x="20" y="485"/>
      <point x="20" y="416" type="curve" smooth="yes"/>
      <point x="20" y="384"/>
      <point x="31" y="352"/>
      <point x="52" y="330" type="curve"/>
      <point x="83" y="350" type="line"/>
      <point x="75" y="365"/>
      <point x="73" y="377"/>
      <point x="73" y="388" type="curve" smooth="yes"/>
      <point x="73" y="425"/>
      <point x="98" y="452"/>
      <point x="137" y="452" type="curve" smooth="yes"/>
      <point x="174" y="452"/>
      <point x="208" y="427"/>
      <point x="208" y="385" type="curve" smooth="yes"/>
      <point x="208" y="344"/>
      <point x="177" y="311"/>
      <point x="145" y="278" type="curve" smooth="yes"/>
      <point x="106" y="238"/>
      <point x="63" y="193"/>
      <point x="63" y="125" type="curve"/>
      <point x="63" y="38"/>
      <point x="124" y="-14"/>
      <point x="191" y="-14" type="curve" smooth="yes"/>
      <point x="259" y="-14"/>
      <point x="327" y="43"/>
      <point x="350" y="126" type="curve"/>
      <point x="352" y="126" type="line"/>
      <point x="375" y="43"/>
      <point x="443" y="-14"/>
      <point x="511" y="-14" type="curve" smooth="yes"/>
      <point x="577" y="-14"/>
      <point x="638" y="38"/>
      <point x="638" y="125" type="curve"/>
    </contour>
  </outline>
</glyph>
<glyph name="knCA" format="1">
  <advance width="725"/>
  <unicode hex="0C9A"/>
  <outline>
    <contour>
      <point x="373" y="365" type="line"/>
      <point x="373" y="294" type="line"/>
      <point x="649" y="294" type="line"/>
      <point x="649" y="365" type="line"/>
    </contour>
    <contour>
      <point x="493" y="448" type="line"/>
      <point x="546" y="425"/>
      <point x="546" y="365"/>
      <point x="493" y="342" type="curve"/>
      <point x="508" y="309" type="line"/>
      <point x="590" y="344"/>
      <point x="590" y="447"/>
      <point x="508" y="482" type="curve"/>
    </contour>
    <contour>
      <point x="638" y="225"/>
      <point x="592" y="311"/>
      <point x="508" y="327" type="curve"/>
      <point x="489" y="310" type="line"/>
      <point x="549" y="287"/>
      <point x="588" y="244"/>
      <point x="588" y="167" type="curve" smooth="yes"/>
      <point x="588" y="116"/>
      <point x="565" y="71"/>
      <point x="507" y="71" type="curve" smooth="yes"/>
      <point x="434" y="71"/>
      <point x="368" y="146"/>
      <point x="355" y="221" type="curve"/>
      <point x="346" y="221" type="line"/>
      <point x="332" y="145"/>
      <point x="267" y="71"/>
      <point x="194" y="71" type="curve" smooth="yes"/>
      <point x="141" y="71"/>
      <point x="114" y="104"/>
      <point x="114" y="146" type="curve"/>
      <point x="114" y="187"/>
      <point x="144" y="217"/>
      <point x="176" y="251" type="curve" smooth="yes"/>
      <point x="216" y="292"/>
      <point x="261" y="338"/>
      <point x="261" y="399" type="curve" smooth="yes"/>
      <point x="261" y="471"/>
      <point x="202" y="519"/>
      <point x="137" y="519" type="curve" smooth="yes"/>
      <point x="79" y="519"/>
      <point x="20" y="483"/>
      <point x="20" y="416" type="curve" smooth="yes"/>
      <point x="20" y="384"/>
      <point x="31" y="350"/>
      <point x="52" y="328" type="curve"/>
      <point x="83" y="348" type="line"/>
      <point x="75" y="363"/>
      <point x="72" y="376"/>
      <point x="72" y="387" type="curve" smooth="yes"/>
      <point x="72" y="424"/>
      <point x="98" y="450"/>
      <point x="137" y="450" type="curve" smooth="yes"/>
      <point x="174" y="450"/>
      <point x="208" y="427"/>
      <point x="208" y="385" type="curve" smooth="yes"/>
      <point x="208" y="342"/>
      <point x="177" y="309"/>
      <point x="145" y="276" type="curve" smooth="yes"/>
      <point x="106" y="236"/>
      <point x="63" y="194"/>
      <point x="63" y="125" type="curve"/>
      <point x="63" y="39"/>
      <point x="125" y="-14"/>
      <point x="191" y="-14" type="curve" smooth="yes"/>
      <point x="260" y="-14"/>
      <point x="327" y="43"/>
      <point x="350" y="126" type="curve"/>
      <point x="352" y="126" type="line"/>
      <point x="375" y="43"/>
      <point x="444" y="-14"/>
      <point x="511" y="-14" type="curve" smooth="yes"/>
      <point x="578" y="-14"/>
      <point x="638" y="38"/>
      <point x="638" y="145" type="curve" smooth="yes"/>
    </contour>
    <contour>
      <point x="571" y="644" type="line"/>
      <point x="595" y="635"/>
      <point x="617" y="610"/>
      <point x="617" y="576" type="curve" smooth="yes"/>
      <point x="617" y="536"/>
      <point x="586" y="509"/>
      <point x="525" y="509" type="curve" smooth="yes"/>
      <point x="373" y="509" type="line"/>
      <point x="373" y="434" type="line"/>
      <point x="525" y="434" type="line" smooth="yes"/>
      <point x="606" y="434"/>
      <point x="660" y="480"/>
      <point x="660" y="552" type="curve" smooth="yes"/>
      <point x="660" y="607"/>
      <point x="629" y="648"/>
      <point x="586" y="664" type="curve"/>
    </contour>
  </outline>
</glyph>
<glyph name="knCHA" format="1">
  <advance width="810"/>
  <unicode hex="0C9B"/>
  <outline>
    <contour>
      <point x="127" y="519"/>
      <point x="55" y="374"/>
      <point x="55" y="253" type="curve"/>
      <point x="55" y="97"/>
      <point x="141" y="-14"/>
      <point x="247" y="-14" type="curve"/>
      <point x="317" y="-14"/>
      <point x="385" y="43"/>
      <point x="408" y="126" type="curve"/>
      <point x="410" y="126" type="line"/>
      <point x="433" y="43"/>
      <point x="501" y="-14"/>
      <point x="571" y="-14" type="curve"/>
      <point x="682" y="-14"/>
      <point x="744" y="78"/>
      <point x="744" y="224" type="curve" smooth="yes"/>
      <point x="744" y="426"/>
      <point x="620" y="509"/>
      <point x="487" y="509" type="curve"/>
      <point x="527" y="434" type="line"/>
      <point x="656" y="434"/>
      <point x="703" y="362"/>
      <point x="703" y="237" type="curve" smooth="yes"/>
      <point x="703" y="168"/>
      <point x="663" y="71"/>
      <point x="565" y="71" type="curve"/>
      <point x="492" y="71"/>
      <point x="426" y="146"/>
      <point x="413" y="221" type="curve"/>
      <point x="404" y="221" type="line"/>
      <point x="390" y="145"/>
      <point x="325" y="71"/>
      <point x="242" y="71" type="curve"/>
      <point x="146" y="71"/>
      <point x="103" y="178"/>
      <point x="103" y="264" type="curve"/>
      <point x="103" y="367"/>
      <point x="141" y="454"/>
      <point x="234" y="454" type="curve"/>
      <point x="272" y="454"/>
      <point x="306" y="440"/>
      <point x="306" y="401" type="curve" smooth="yes"/>
      <point x="306" y="365"/>
      <point x="278" y="344"/>
      <point x="231" y="344" type="curve" smooth="yes"/>
      <point x="189" y="344"/>
      <point x="161" y="362"/>
      <point x="161" y="408" type="curve" smooth="yes"/>
      <point x="161" y="419"/>
      <point x="162" y="440"/>
      <point x="165" y="450" type="curve"/>
      <point x="176" y="475"/>
      <point x="171" y="481"/>
      <point x="156" y="477" type="curve"/>
      <point x="135" y="429" type="line"/>
      <point x="132" y="407"/>
      <point x="131" y="394"/>
      <point x="131" y="381" type="curve" smooth="yes"/>
      <point x="131" y="308"/>
      <point x="173" y="273"/>
      <point x="231" y="273" type="curve" smooth="yes"/>
      <point x="294" y="273"/>
      <point x="336" y="325"/>
      <point x="336" y="391" type="curve" smooth="yes"/>
      <point x="336" y="457"/>
      <point x="300" y="519"/>
      <point x="229" y="519" type="curve" smooth="yes"/>
    </contour>
    <contour>
      <point x="399" y="46" type="line"/>
      <point x="388" y="-34"/>
      <point x="344" y="-90"/>
      <point x="344" y="-131" type="curve" smooth="yes"/>
      <point x="344" y="-180"/>
      <point x="382" y="-200"/>
      <point x="408" y="-200" type="curve"/>
      <point x="433" y="-200"/>
      <point x="473" y="-184"/>
      <point x="473" y="-131" type="curve" smooth="yes"/>
      <point x="473" y="-90"/>
      <point x="430" y="-34"/>
      <point x="418" y="46" type="curve"/>
    </contour>
    <contour>
      <point x="656" y="644" type="line"/>
      <point x="680" y="635"/>
      <point x="702" y="610"/>
      <point x="702" y="576" type="curve" smooth="yes"/>
      <point x="702" y="536"/>
      <point x="671" y="509"/>
      <point x="610" y="509" type="curve" smooth="yes"/>
      <point x="449" y="509" type="line"/>
      <point x="449" y="434" type="line"/>
      <point x="610" y="434" type="line" smooth="yes"/>
      <point x="691" y="434"/>
      <point x="745" y="480"/>
      <point x="745" y="552" type="curve" smooth="yes"/>
      <point x="745" y="607"/>
      <point x="714" y="648"/>
      <point x="671" y="664" type="curve"/>
    </contour>
  </outline>
</glyph>
<glyph name="knJA" format="1">
  <advance width="703"/>
  <unicode hex="0C9C"/>
  <outline>
    <contour>
      <point x="567" y="287"/>
      <point x="620" y="350"/>
      <point x="620" y="432" type="curve" smooth="yes"/>
      <point x="620" y="477"/>
      <point x="597" y="510"/>
      <point x="561" y="536" type="curve"/>
      <point x="542" y="519" type="line"/>
      <point x="567" y="500"/>
      <point x="577" y="480"/>
      <point x="577" y="452" type="curve" smooth="yes"/>
      <point x="577" y="396"/>
      <point x="529" y="356"/>
      <point x="455" y="356" type="curve" smooth="yes"/>
      <point x="382" y="356"/>
      <point x="308" y="410"/>
      <point x="229" y="480" type="curve"/>
      <point x="194" y="477" type="line"/>
      <point x="270" y="396"/>
      <point x="352" y="287"/>
      <point x="475" y="287" type="curve" smooth="yes"/>
    </contour>
    <contour>
      <point x="638" y="185"/>
      <point x="611" y="220"/>
      <point x="580" y="250" type="curve"/>
      <point x="554" y="233" type="line"/>
      <point x="576" y="209"/>
      <point x="588" y="184"/>
      <point x="588" y="154" type="curve"/>
      <point x="588" y="116"/>
      <point x="565" y="71"/>
      <point x="507" y="71" type="curve" smooth="yes"/>
      <point x="434" y="71"/>
      <point x="368" y="146"/>
      <point x="355" y="221" type="curve"/>
      <point x="346" y="221" type="line"/>
      <point x="332" y="145"/>
      <point x="267" y="71"/>
      <point x="194" y="71" type="curve" smooth="yes"/>
      <point x="141" y="71"/>
      <point x="114" y="114"/>
      <point x="114" y="156" type="curve"/>
      <point x="114" y="187"/>
      <point x="144" y="219"/>
      <point x="176" y="253" type="curve" smooth="yes"/>
      <point x="216" y="294"/>
      <point x="261" y="340"/>
      <point x="261" y="399" type="curve" smooth="yes"/>
      <point x="261" y="473"/>
      <point x="203" y="519"/>
      <point x="137" y="519" type="curve" smooth="yes"/>
      <point x="79" y="519"/>
      <point x="20" y="485"/>
      <point x="20" y="416" type="curve" smooth="yes"/>
      <point x="20" y="384"/>
      <point x="31" y="352"/>
      <point x="52" y="330" type="curve"/>
      <point x="83" y="350" type="line"/>
      <point x="75" y="365"/>
      <point x="73" y="377"/>
      <point x="73" y="388" type="curve" smooth="yes"/>
      <point x="73" y="425"/>
      <point x="98" y="452"/>
      <point x="137" y="452" type="curve" smooth="yes"/>
      <point x="174" y="452"/>
      <point x="208" y="427"/>
      <point x="208" y="385" type="curve" smooth="yes"/>
      <point x="208" y="344"/>
      <point x="177" y="311"/>
      <point x="145" y="278" type="curve" smooth="yes"/>
      <point x="106" y="238"/>
      <point x="63" y="193"/>
      <point x="63" y="125" type="curve"/>
      <point x="63" y="38"/>
      <point x="124" y="-14"/>
      <point x="191" y="-14" type="curve" smooth="yes"/>
      <point x="259" y="-14"/>
      <point x="327" y="43"/>
      <point x="350" y="126" type="curve"/>
      <point x="352" y="126" type="line"/>
      <point x="375" y="43"/>
      <point x="443" y="-14"/>
      <point x="511" y="-14" type="curve" smooth="yes"/>
      <point x="577" y="-14"/>
      <point x="638" y="38"/>
      <point x="638" y="125" type="curve"/>
    </contour>
  </outline>
</glyph>
<glyph name="knJHA" format="1">
  <advance width="1226"/>
  <unicode hex="0C9D"/>
  <outline>
    <contour>
      <point x="874" y="-90"/>
      <point x="832" y="-34"/>
      <point x="819" y="46" type="curve"/>
      <point x="801" y="46" type="line"/>
      <point x="789" y="-34"/>
      <point x="746" y="-90"/>
      <point x="746" y="-131" type="curve" smooth="yes"/>
      <point x="746" y="-180"/>
      <point x="784" y="-200"/>
      <point x="810" y="-200" type="curve"/>
      <point x="834" y="-200"/>
      <point x="874" y="-184"/>
      <point x="874" y="-131" type="curve" smooth="yes"/>
    </contour>
    <contour>
      <point x="244" y="461"/>
      <point x="207" y="453"/>
      <point x="175" y="436" type="curve" smooth="yes"/>
      <point x="101" y="398"/>
      <point x="55" y="315"/>
      <point x="55" y="226" type="curve" smooth="yes"/>
      <point x="55" y="86"/>
      <point x="157" y="-14"/>
      <point x="285" y="-14" type="curve"/>
      <point x="413" y="-14"/>
      <point x="515" y="86"/>
      <point x="515" y="226" type="curve" smooth="yes"/>
      <point x="515" y="315"/>
      <point x="469" y="398"/>
      <point x="395" y="436" type="curve" smooth="yes"/>
      <point x="363" y="453"/>
      <point x="326" y="461"/>
      <point x="285" y="461" type="curve"/>
    </contour>
    <contour>
      <point x="386" y="433"/>
      <point x="463" y="360"/>
      <point x="463" y="261" type="curve" smooth="yes"/>
      <point x="463" y="161"/>
      <point x="396" y="71"/>
      <point x="285" y="71" type="curve"/>
      <point x="174" y="71"/>
      <point x="107" y="161"/>
      <point x="107" y="261" type="curve" smooth="yes"/>
      <point x="107" y="360"/>
      <point x="184" y="433"/>
      <point x="285" y="433" type="curve"/>
    </contour>
    <contour>
      <point x="426" y="644" type="line"/>
      <point x="450" y="635"/>
      <point x="472" y="610"/>
      <point x="472" y="576" type="curve" smooth="yes"/>
      <point x="472" y="536"/>
      <point x="441" y="509"/>
      <point x="380" y="509" type="curve" smooth="yes"/>
      <point x="55" y="509" type="line"/>
      <point x="55" y="434" type="line"/>
      <point x="218" y="434" type="line"/>
      <point x="284" y="451" type="line"/>
      <point x="348" y="434" type="line"/>
      <point x="380" y="434" type="line" smooth="yes"/>
      <point x="461" y="434"/>
      <point x="515" y="480"/>
      <point x="515" y="552" type="curve" smooth="yes"/>
      <point x="515" y="607"/>
      <point x="484" y="648"/>
      <point x="441" y="664" type="curve"/>
    </contour>
    <contour>
      <point x="831" y="392"/>
      <point x="717" y="509"/>
      <point x="631" y="509" type="curve" smooth="yes"/>
      <point x="595" y="509"/>
      <point x="576" y="496"/>
      <point x="576" y="473" type="curve" smooth="yes"/>
      <point x="576" y="450"/>
      <point x="587" y="434"/>
      <point x="617" y="434" type="curve"/>
      <point x="716" y="434"/>
      <point x="789" y="338"/>
      <point x="789" y="257" type="curve" smooth="yes"/>
      <point x="789" y="158"/>
      <point x="720" y="71"/>
      <point x="635" y="71" type="curve"/>
      <point x="548" y="71"/>
      <point x="499" y="145"/>
      <point x="479" y="189" type="curve"/>
      <point x="455" y="139" type="line"/>
      <point x="467" y="82"/>
      <point x="542" y="-14"/>
      <point x="647" y="-14" type="curve"/>
      <point x="772" y="-14"/>
      <point x="831" y="109"/>
      <point x="831" y="245" type="curve" smooth="yes"/>
    </contour>
    <contour>
      <point x="888" y="71"/>
      <point x="839" y="145"/>
      <point x="819" y="189" type="curve"/>
      <point x="795" y="139" type="line"/>
      <point x="807" y="82"/>
      <point x="882" y="-14"/>
      <point x="978" y="-14" type="curve"/>
      <point x="1091" y="-14"/>
      <point x="1171" y="115"/>
      <point x="1171" y="242" type="curve"/>
      <point x="1171" y="415"/>
      <point x="1085" y="513"/>
      <point x="1014" y="513" type="curve" smooth="yes"/>
      <point x="983" y="513"/>
      <point x="966" y="493"/>
      <point x="966" y="470" type="curve" smooth="yes"/>
      <point x="966" y="451"/>
      <point x="978" y="435"/>
      <point x="994" y="430" type="curve" smooth="yes"/>
      <point x="1017" y="423"/>
      <point x="1038" y="428"/>
      <point x="1062" y="420" type="curve" smooth="yes"/>
      <point x="1099" y="407"/>
      <point x="1130" y="344"/>
      <point x="1130" y="255" type="curve"/>
      <point x="1130" y="159"/>
      <point x="1060" y="71"/>
      <point x="978" y="71" type="curve"/>
    </contour>
  </outline>
</glyph>
<glyph name="kaNYA" format="1">
  <advance width="909"/>
  <unicode hex="0C9E"/>
  <outline>
    <contour>
      <point x="398" y="519"/>
      <point x="330" y="461"/>
      <point x="307" y="377" type="curve"/>
      <point x="305" y="377" type="line"/>
      <point x="282" y="461"/>
      <point x="214" y="519"/>
      <point x="145" y="519" type="curve" smooth="yes"/>
      <point x="55" y="519"/>
      <point x="10" y="456"/>
      <point x="10" y="387" type="curve" smooth="yes"/>
      <point x="10" y="352"/>
      <point x="19" y="323"/>
      <point x="40" y="296" type="curve"/>
      <point x="71" y="317" type="line"/>
      <point x="64" y="325"/>
      <point x="58" y="340"/>
      <point x="58" y="367" type="curve" smooth="yes"/>
      <point x="58" y="392"/>
      <point x="74" y="444"/>
      <point x="148" y="444" type="curve" smooth="yes"/>
      <point x="232" y="444"/>
      <point x="288" y="358"/>
      <point x="302" y="283" type="curve"/>
      <point x="310" y="283" type="line"/>
      <point x="324" y="358"/>
      <point x="380" y="444"/>
      <point x="464" y="444" type="curve" smooth="yes"/>
      <point x="537" y="444"/>
      <point x="592" y="392"/>
      <point x="592" y="295" type="curve"/>
      <point x="592" y="129"/>
      <point x="496" y="71"/>
      <point x="375" y="71" type="curve"/>
      <point x="280" y="71"/>
      <point x="249" y="96"/>
      <point x="249" y="127" type="curve" smooth="yes"/>
      <point x="249" y="153"/>
      <point x="280" y="184"/>
      <point x="352" y="184" type="curve" smooth="yes"/>
      <point x="497" y="184"/>
      <point x="579" y="48"/>
      <point x="579" y="-70" type="curve" smooth="yes"/>
      <point x="579" y="-85"/>
      <point x="590" y="-97"/>
      <point x="603" y="-97" type="curve" smooth="yes"/>
      <point x="616" y="-97"/>
      <point x="627" y="-85"/>
      <point x="627" y="-61" type="curve" smooth="yes"/>
      <point x="627" y="60"/>
      <point x="531" y="223"/>
      <point x="353" y="223" type="curve" smooth="yes"/>
      <point x="256" y="223"/>
      <point x="196" y="180"/>
      <point x="196" y="117" type="curve" smooth="yes"/>
      <point x="196" y="40"/>
      <point x="271" y="-14"/>
      <point x="382" y="-14" type="curve" smooth="yes"/>
      <point x="507" y="-14"/>
      <point x="630" y="78"/>
      <point x="630" y="294" type="curve"/>
      <point x="630" y="430"/>
      <point x="560" y="519"/>
      <point x="469" y="519" type="curve" smooth="yes"/>
    </contour>
    <contour>
      <point x="689" y="519"/>
      <point x="617" y="441"/>
      <point x="614" y="347" type="curve"/>
      <point x="624" y="293" type="line"/>
      <point x="625" y="367"/>
      <point x="680" y="444"/>
      <point x="761" y="444" type="curve" smooth="yes"/>
      <point x="835" y="444"/>
      <point x="851" y="392"/>
      <point x="851" y="367" type="curve" smooth="yes"/>
      <point x="851" y="340"/>
      <point x="845" y="325"/>
      <point x="838" y="317" type="curve"/>
      <point x="869" y="296" type="line"/>
      <point x="890" y="323"/>
      <point x="899" y="352"/>
      <point x="899" y="387" type="curve" smooth="yes"/>
      <point x="899" y="456"/>
      <point x="854" y="519"/>
      <point x="775" y="519" type="curve" smooth="yes"/>
    </contour>
  </outline>
</glyph>
<glyph name="knTTA" format="1">
  <advance width="780"/>
  <unicode hex="0C9F"/>
  <outline>
    <contour>
      <point x="177" y="530"/>
      <point x="165" y="560"/>
      <point x="165" y="590" type="curve" smooth="yes"/>
      <point x="165" y="623"/>
      <point x="186" y="655"/>
      <point x="228" y="670" type="curve"/>
      <point x="209" y="692" type="line"/>
      <point x="145" y="680"/>
      <point x="107" y="639"/>
      <point x="107" y="596" type="curve" smooth="yes"/>
      <point x="107" y="551"/>
      <point x="136" y="517"/>
      <point x="192" y="493" type="curve"/>
      <point x="213" y="508" type="line"/>
    </contour>
    <contour>
      <point x="575" y="470" type="line"/>
      <point x="631" y="494"/>
      <point x="660" y="539"/>
      <point x="660" y="585" type="curve" smooth="yes"/>
      <point x="660" y="639"/>
      <point x="622" y="680"/>
      <point x="558" y="692" type="curve"/>
      <point x="539" y="670" type="line"/>
      <point x="581" y="655"/>
      <point x="603" y="623"/>
      <point x="603" y="581" type="curve" smooth="yes"/>
      <point x="603" y="549"/>
      <point x="590" y="507"/>
      <point x="554" y="485" type="curve"/>
    </contour>
    <contour>
      <point x="551" y="465" type="line"/>
      <point x="642" y="421"/>
      <point x="683" y="352"/>
      <point x="683" y="263" type="curve" smooth="yes"/>
      <point x="683" y="149"/>
      <point x="633" y="71"/>
      <point x="546" y="71" type="curve" smooth="yes"/>
      <point x="473" y="71"/>
      <point x="407" y="146"/>
      <point x="395" y="221" type="curve"/>
      <point x="385" y="221" type="line"/>
      <point x="373" y="146"/>
      <point x="307" y="71"/>
      <point x="234" y="71" type="curve" smooth="yes"/>
      <point x="143" y="71"/>
      <point x="97" y="149"/>
      <point x="97" y="263" type="curve" smooth="yes"/>
      <point x="97" y="331"/>
      <point x="114" y="392"/>
      <point x="147" y="425" type="curve"/>
      <point x="145" y="414"/>
      <point x="144" y="401"/>
      <point x="144" y="389" type="curve" smooth="yes"/>
      <point x="144" y="316"/>
      <point x="185" y="281"/>
      <point x="234" y="281" type="curve" smooth="yes"/>
      <point x="287" y="281"/>
      <point x="319" y="333"/>
      <point x="319" y="399" type="curve" smooth="yes"/>
      <point x="319" y="465"/>
      <point x="292" y="517"/>
      <point x="222" y="517" type="curve" smooth="yes"/>
      <point x="129" y="517"/>
      <point x="55" y="397"/>
      <point x="55" y="263" type="curve" smooth="yes"/>
      <point x="55" y="75"/>
      <point x="115" y="-14"/>
      <point x="229" y="-14" type="curve" smooth="yes"/>
      <point x="298" y="-14"/>
      <point x="366" y="43"/>
      <point x="389" y="126" type="curve"/>
      <point x="391" y="126" type="line"/>
      <point x="414" y="43"/>
      <point x="482" y="-14"/>
      <point x="551" y="-14" type="curve" smooth="yes"/>
      <point x="660" y="-14"/>
      <point x="725" y="75"/>
      <point x="725" y="240" type="curve" smooth="yes"/>
      <point x="725" y="401"/>
      <point x="625" y="475"/>
      <point x="554" y="485" type="curve"/>
    </contour>
    <contour>
      <point x="289" y="373"/>
      <point x="270" y="352"/>
      <point x="234" y="352" type="curve" smooth="yes"/>
      <point x="201" y="352"/>
      <point x="174" y="370"/>
      <point x="174" y="416" type="curve" smooth="yes"/>
      <point x="174" y="427"/>
      <point x="175" y="438"/>
      <point x="177" y="448" type="curve"/>
      <point x="189" y="453"/>
      <point x="203" y="457"/>
      <point x="216" y="457" type="curve" smooth="yes"/>
      <point x="265" y="457"/>
      <point x="289" y="438"/>
      <point x="289" y="399" type="curve" smooth="yes"/>
    </contour>
  </outline>
</glyph>
<glyph name="knDDHA" format="1">
  <advance width="700"/>
  <unicode hex="0CA2"/>
  <outline>
    <contour>
      <point x="466" y="441"/>
      <point x="544" y="355"/>
      <point x="544" y="299" type="curve" smooth="yes"/>
      <point x="544" y="274"/>
      <point x="526" y="243"/>
      <point x="475" y="243" type="curve"/>
      <point x="438" y="243"/>
      <point x="417" y="262"/>
      <point x="417" y="285" type="curve" smooth="yes"/>
      <point x="417" y="307"/>
      <point x="439" y="326"/>
      <point x="475" y="326" type="curve" smooth="yes"/>
      <point x="536" y="326"/>
      <point x="583" y="254"/>
      <point x="584" y="174" type="curve"/>
      <point x="584" y="125"/>
      <point x="552" y="71"/>
      <point x="495" y="71" type="curve"/>
      <point x="429" y="71"/>
      <point x="364" y="145"/>
      <point x="350" y="221" type="curve" smooth="yes"/>
      <point x="341" y="221" type="line"/>
      <point x="327" y="145"/>
      <point x="261" y="71"/>
      <point x="196" y="71" type="curve" smooth="yes"/>
      <point x="138" y="71"/>
      <point x="106" y="124"/>
      <point x="106" y="192" type="curve" smooth="yes"/>
      <point x="106" y="300"/>
      <point x="213" y="441"/>
      <point x="345" y="441" type="curve"/>
    </contour>
    <contour>
      <point x="208" y="465"/>
      <point x="55" y="339"/>
      <point x="55" y="160" type="curve" smooth="yes"/>
      <point x="55" y="33"/>
      <point x="117" y="-14"/>
      <point x="185" y="-14" type="curve" smooth="yes"/>
      <point x="253" y="-14"/>
      <point x="321" y="43"/>
      <point x="344" y="126" type="curve"/>
      <point x="346" y="126" type="line"/>
      <point x="369" y="43"/>
      <point x="437" y="-14"/>
      <point x="505" y="-14" type="curve"/>
      <point x="572" y="-14"/>
      <point x="635" y="33"/>
      <point x="635" y="145" type="curve"/>
      <point x="635" y="218"/>
      <point x="575" y="355"/>
      <point x="468" y="355" type="curve"/>
      <point x="407" y="355"/>
      <point x="378" y="315"/>
      <point x="378" y="277" type="curve" smooth="yes"/>
      <point x="378" y="229"/>
      <point x="420" y="185"/>
      <point x="476" y="185" type="curve" smooth="yes"/>
      <point x="527" y="185"/>
      <point x="572" y="216"/>
      <point x="572" y="284" type="curve"/>
      <point x="572" y="397"/>
      <point x="450" y="465"/>
      <point x="345" y="465" type="curve"/>
    </contour>
    <contour>
      <point x="448" y="434" type="line"/>
      <point x="499" y="434" type="line" smooth="yes"/>
      <point x="580" y="434"/>
      <point x="634" y="480"/>
      <point x="634" y="552" type="curve" smooth="yes"/>
      <point x="634" y="607"/>
      <point x="603" y="648"/>
      <point x="560" y="664" type="curve"/>
      <point x="545" y="644" type="line"/>
      <point x="569" y="635"/>
      <point x="591" y="610"/>
      <point x="591" y="576" type="curve" smooth="yes"/>
      <point x="591" y="536"/>
      <point x="560" y="509"/>
      <point x="499" y="509" type="curve" smooth="yes"/>
      <point x="55" y="509" type="line"/>
      <point x="55" y="434" type="line"/>
      <point x="241" y="434" type="line"/>
      <point x="345" y="444" type="line"/>
    </contour>
    <contour>
      <point x="336" y="44" type="line"/>
      <point x="325" y="-36"/>
      <point x="281" y="-92"/>
      <point x="281" y="-133" type="curve" smooth="yes"/>
      <point x="281" y="-182"/>
      <point x="319" y="-202"/>
      <point x="345" y="-202" type="curve" smooth="yes"/>
      <point x="369" y="-202"/>
      <point x="410" y="-186"/>
      <point x="410" y="-133" type="curve" smooth="yes"/>
      <point x="410" y="-92"/>
      <point x="367" y="-36"/>
      <point x="354" y="44" type="curve"/>
    </contour>
  </outline>
</glyph>
<glyph name="knNNA" format="1">
  <advance width="795"/>
  <unicode hex="0CA3"/>
  <outline>
    <contour>
      <point x="656" y="-14"/>
      <point x="730" y="97"/>
      <point x="730" y="235" type="curve" smooth="yes"/>
      <point x="730" y="392"/>
      <point x="651" y="519"/>
      <point x="529" y="519" type="curve" smooth="yes"/>
      <point x="443" y="519"/>
      <point x="375" y="461"/>
      <point x="352" y="377" type="curve"/>
      <point x="349" y="377" type="line"/>
      <point x="326" y="461"/>
      <point x="264" y="519"/>
      <point x="188" y="519" type="curve" smooth="yes"/>
      <point x="118" y="519"/>
      <point x="55" y="461"/>
      <point x="55" y="369" type="curve" smooth="yes"/>
      <point x="55" y="309"/>
      <point x="91" y="243"/>
      <point x="138" y="235" type="curve"/>
      <point x="96" y="214"/>
      <point x="55" y="168"/>
      <point x="55" y="104" type="curve" smooth="yes"/>
      <point x="55" y="40"/>
      <point x="96" y="-14"/>
      <point x="168" y="-14" type="curve" smooth="yes"/>
      <point x="249" y="-14"/>
      <point x="287" y="84"/>
      <point x="290" y="139" type="curve"/>
      <point x="271" y="157" type="line"/>
      <point x="249" y="108"/>
      <point x="218" y="71"/>
      <point x="173" y="71" type="curve" smooth="yes"/>
      <point x="126" y="71"/>
      <point x="108" y="97"/>
      <point x="108" y="128" type="curve" smooth="yes"/>
      <point x="108" y="176"/>
      <point x="150" y="217"/>
      <point x="233" y="231" type="curve"/>
      <point x="233" y="240" type="line"/>
      <point x="162" y="253"/>
      <point x="108" y="287"/>
      <point x="108" y="352" type="curve" smooth="yes"/>
      <point x="108" y="392"/>
      <point x="138" y="434"/>
      <point x="196" y="434" type="curve" smooth="yes"/>
      <point x="267" y="434"/>
      <point x="332" y="358"/>
      <point x="346" y="283" type="curve"/>
      <point x="355" y="283" type="line"/>
      <point x="368" y="357"/>
      <point x="433" y="434"/>
      <point x="517" y="434" type="curve" smooth="yes"/>
      <point x="620" y="434"/>
      <point x="683" y="345"/>
      <point x="683" y="257" type="curve" smooth="yes"/>
      <point x="683" y="146"/>
      <point x="622" y="71"/>
      <point x="547" y="71" type="curve"/>
      <point x="483" y="71"/>
      <point x="443" y="125"/>
      <point x="443" y="165" type="curve" smooth="yes"/>
      <point x="443" y="203"/>
      <point x="469" y="227"/>
      <point x="506" y="227" type="curve" smooth="yes"/>
      <point x="536" y="227"/>
      <point x="561" y="217"/>
      <point x="571" y="193" type="curve"/>
      <point x="587" y="208" type="line"/>
      <point x="575" y="250"/>
      <point x="551" y="287"/>
      <point x="502" y="287" type="curve" smooth="yes"/>
      <point x="443" y="287"/>
      <point x="400" y="232"/>
      <point x="400" y="143" type="curve" smooth="yes"/>
      <point x="400" y="56"/>
      <point x="453" y="-14"/>
      <point x="552" y="-14" type="curve"/>
    </contour>
  </outline>
</glyph>
<glyph name="knTA" format="1">
  <advance width="595"/>
  <unicode hex="0CA4"/>
  <outline>
    <contour>
      <point x="349" y="440"/>
      <point x="410" y="394"/>
      <point x="410" y="338" type="curve" smooth="yes"/>
      <point x="410" y="279"/>
      <point x="368" y="247"/>
      <point x="312" y="247" type="curve" smooth="yes"/>
      <point x="264" y="247"/>
      <point x="234" y="265"/>
      <point x="234" y="294" type="curve" smooth="yes"/>
      <point x="234" y="325"/>
      <point x="272" y="344"/>
      <point x="332" y="344" type="curve" smooth="yes"/>
      <point x="421" y="344"/>
      <point x="494" y="293"/>
      <point x="494" y="213" type="curve" smooth="yes"/>
      <point x="494" y="122"/>
      <point x="423" y="71"/>
      <point x="301" y="71" type="curve" smooth="yes"/>
      <point x="174" y="71"/>
      <point x="100" y="136"/>
      <point x="100" y="206" type="curve" smooth="yes"/>
      <point x="100" y="226"/>
      <point x="103" y="243"/>
      <point x="113" y="254" type="curve"/>
      <point x="87" y="258" type="line"/>
      <point x="70" y="242"/>
      <point x="55" y="215"/>
      <point x="55" y="164" type="curve" smooth="yes"/>
      <point x="55" y="77"/>
      <point x="146" y="-14"/>
      <point x="297" y="-14" type="curve" smooth="yes"/>
      <point x="445" y="-14"/>
      <point x="540" y="75"/>
      <point x="540" y="191" type="curve" smooth="yes"/>
      <point x="540" y="307"/>
      <point x="441" y="380"/>
      <point x="333" y="380" type="curve" smooth="yes"/>
      <point x="236" y="380"/>
      <point x="179" y="342"/>
      <point x="179" y="287" type="curve" smooth="yes"/>
      <point x="179" y="230"/>
      <point x="236" y="191"/>
      <point x="307" y="191" type="curve" smooth="yes"/>
      <point x="387" y="191"/>
      <point x="455" y="242"/>
      <point x="455" y="322" type="curve" smooth="yes"/>
      <point x="455" y="383"/>
      <point x="398" y="437"/>
      <point x="360" y="449" type="curve"/>
      <point x="295" y="440" type="line"/>
    </contour>
    <component base="lip" xOffset="40"/>
  </outline>
</glyph>
<glyph name="knNA" format="1">
  <advance width="649"/>
  <unicode hex="0CA8"/>
  <outline>
    <contour>
      <point x="430" y="425" type="line" smooth="yes"/>
      <point x="509" y="425"/>
      <point x="566" y="480"/>
      <point x="566" y="549" type="curve" smooth="yes"/>
      <point x="566" y="594"/>
      <point x="543" y="636"/>
      <point x="491" y="663" type="curve"/>
      <point x="476" y="643" type="line"/>
      <point x="503" y="625"/>
      <point x="513" y="600"/>
      <point x="513" y="578" type="curve" smooth="yes"/>
      <point x="513" y="537"/>
      <point x="482" y="508"/>
      <point x="430" y="508" type="curve" smooth="yes"/>
      <point x="75" y="508" type="line"/>
      <point x="75" y="425" type="line"/>
      <point x="311" y="425" type="line"/>
      <point x="434" y="391"/>
      <point x="525" y="321"/>
      <point x="525" y="211" type="curve" smooth="yes"/>
      <point x="525" y="146"/>
      <point x="489" y="93"/>
      <point x="441" y="93" type="curve" smooth="yes"/>
      <point x="296" y="93"/>
      <point x="349" y="294"/>
      <point x="204" y="294" type="curve" smooth="yes"/>
      <point x="133" y="294"/>
      <point x="75" y="225"/>
      <point x="75" y="140" type="curve" smooth="yes"/>
      <point x="75" y="54"/>
      <point x="115" y="-23"/>
      <point x="181" y="-61" type="curve" smooth="yes"/>
      <point x="204" y="-75"/>
      <point x="234" y="-66"/>
      <point x="234" y="-43" type="curve" smooth="yes"/>
      <point x="234" y="-20"/>
      <point x="218" y="1"/>
      <point x="193" y="10" type="curve" smooth="yes"/>
      <point x="142" y="27"/>
      <point x="110" y="65"/>
      <point x="110" y="104" type="curve" smooth="yes"/>
      <point x="110" y="163"/>
      <point x="153" y="211"/>
      <point x="204" y="211" type="curve" smooth="yes"/>
      <point x="362" y="211"/>
      <point x="275" y="-14"/>
      <point x="441" y="-14" type="curve" smooth="yes"/>
      <point x="521" y="-14"/>
      <point x="584" y="72"/>
      <point x="584" y="176" type="curve" smooth="yes"/>
      <point x="584" y="284"/>
      <point x="524" y="372"/>
      <point x="400" y="425" type="curve"/>
    </contour>
  </outline>
</glyph>
<glyph name="knBA" format="1">
  <advance width="727"/>
  <unicode hex="0CAC"/>
  <outline>
    <contour>
      <point x="434" y="71"/>
      <point x="368" y="146"/>
      <point x="355" y="221" type="curve"/>
      <point x="346" y="221" type="line"/>
      <point x="332" y="145"/>
      <point x="267" y="71"/>
      <point x="194" y="71" type="curve" smooth="yes"/>
      <point x="141" y="71"/>
      <point x="114" y="104"/>
      <point x="114" y="146" type="curve" smooth="yes"/>
      <point x="114" y="187"/>
      <point x="144" y="217"/>
      <point x="176" y="251" type="curve" smooth="yes"/>
      <point x="216" y="292"/>
      <point x="261" y="338"/>
      <point x="261" y="397" type="curve" smooth="yes"/>
      <point x="261" y="471"/>
      <point x="202" y="519"/>
      <point x="137" y="519" type="curve" smooth="yes"/>
      <point x="79" y="519"/>
      <point x="20" y="483"/>
      <point x="20" y="414" type="curve" smooth="yes"/>
      <point x="20" y="382"/>
      <point x="31" y="350"/>
      <point x="52" y="328" type="curve"/>
      <point x="83" y="348" type="line"/>
      <point x="75" y="363"/>
      <point x="72" y="375"/>
      <point x="72" y="386" type="curve" smooth="yes"/>
      <point x="72" y="423"/>
      <point x="98" y="450"/>
      <point x="137" y="450" type="curve" smooth="yes"/>
      <point x="174" y="450"/>
      <point x="208" y="425"/>
      <point x="208" y="383" type="curve" smooth="yes"/>
      <point x="208" y="342"/>
      <point x="177" y="309"/>
      <point x="145" y="276" type="curve" smooth="yes"/>
      <point x="106" y="236"/>
      <point x="63" y="193"/>
      <point x="63" y="125" type="curve" smooth="yes"/>
      <point x="63" y="38"/>
      <point x="124" y="-14"/>
      <point x="191" y="-14" type="curve" smooth="yes"/>
      <point x="259" y="-14"/>
      <point x="327" y="43"/>
      <point x="350" y="126" type="curve"/>
      <point x="352" y="126" type="line"/>
      <point x="375" y="43"/>
      <point x="443" y="-14"/>
      <point x="514" y="-14" type="curve" smooth="yes"/>
      <point x="627" y="-14"/>
      <point x="667" y="115"/>
      <point x="667" y="242" type="curve" smooth="yes"/>
      <point x="667" y="415"/>
      <point x="581" y="513"/>
      <point x="510" y="513" type="curve" smooth="yes"/>
      <point x="479" y="513"/>
      <point x="462" y="493"/>
      <point x="462" y="470" type="curve" smooth="yes"/>
      <point x="462" y="451"/>
      <point x="474" y="435"/>
      <point x="490" y="430" type="curve" smooth="yes"/>
      <point x="513" y="423"/>
      <point x="534" y="428"/>
      <point x="558" y="420" type="curve" smooth="yes"/>
      <point x="595" y="407"/>
      <point x="626" y="344"/>
      <point x="626" y="255" type="curve" smooth="yes"/>
      <point x="626" y="159"/>
      <point x="589" y="71"/>
      <point x="507" y="71" type="curve" smooth="yes"/>
    </contour>
  </outline>
</glyph>
<glyph name="knBHA" format="1">
  <advance width="730"/>
  <unicode hex="0CAD"/>
  <outline>
    <contour>
      <point x="416" y="-90"/>
      <point x="373" y="-34"/>
      <point x="361" y="46" type="curve"/>
      <point x="342" y="46" type="line"/>
      <point x="331" y="-34"/>
      <point x="287" y="-90"/>
      <point x="287" y="-131" type="curve" smooth="yes"/>
      <point x="287" y="-180"/>
      <point x="325" y="-200"/>
      <point x="351" y="-200" type="curve"/>
      <point x="375" y="-200"/>
      <point x="416" y="-184"/>
      <point x="416" y="-131" type="curve" smooth="yes"/>
    </contour>
    <contour>
      <point x="581" y="644" type="line"/>
      <point x="605" y="635"/>
      <point x="627" y="610"/>
      <point x="627" y="576" type="curve" smooth="yes"/>
      <point x="627" y="536"/>
      <point x="596" y="509"/>
      <point x="535" y="509" type="curve" smooth="yes"/>
      <point x="344" y="509" type="line"/>
      <point x="344" y="434" type="line"/>
      <point x="535" y="434" type="line" smooth="yes"/>
      <point x="616" y="434"/>
      <point x="670" y="480"/>
      <point x="670" y="552" type="curve" smooth="yes"/>
      <point x="670" y="607"/>
      <point x="639" y="648"/>
      <point x="596" y="664" type="curve"/>
    </contour>
    <contour>
      <point x="532" y="434" type="move"/>
    </contour>
    <contour>
      <point x="616" y="-14"/>
      <point x="670" y="84"/>
      <point x="670" y="171" type="curve" smooth="yes"/>
      <point x="670" y="360"/>
      <point x="527" y="474"/>
      <point x="391" y="474" type="curve"/>
      <point x="381" y="434" type="line"/>
      <point x="533" y="424"/>
      <point x="630" y="301"/>
      <point x="630" y="203" type="curve" smooth="yes"/>
      <point x="630" y="121"/>
      <point x="583" y="71"/>
      <point x="507" y="71" type="curve"/>
      <point x="434" y="71"/>
      <point x="368" y="146"/>
      <point x="355" y="221" type="curve"/>
      <point x="346" y="221" type="line"/>
      <point x="332" y="145"/>
      <point x="267" y="71"/>
      <point x="194" y="71" type="curve" smooth="yes"/>
      <point x="141" y="71"/>
      <point x="114" y="104"/>
      <point x="114" y="146" type="curve"/>
      <point x="114" y="187"/>
      <point x="144" y="217"/>
      <point x="176" y="251" type="curve" smooth="yes"/>
      <point x="216" y="292"/>
      <point x="261" y="338"/>
      <point x="261" y="397" type="curve" smooth="yes"/>
      <point x="261" y="471"/>
      <point x="202" y="519"/>
      <point x="137" y="519" type="curve" smooth="yes"/>
      <point x="79" y="519"/>
      <point x="20" y="483"/>
      <point x="20" y="414" type="curve" smooth="yes"/>
      <point x="20" y="382"/>
      <point x="31" y="350"/>
      <point x="52" y="328" type="curve"/>
      <point x="83" y="348" type="line"/>
      <point x="75" y="363"/>
      <point x="72" y="375"/>
      <point x="72" y="386" type="curve" smooth="yes"/>
      <point x="72" y="423"/>
      <point x="98" y="450"/>
      <point x="137" y="450" type="curve" smooth="yes"/>
      <point x="174" y="450"/>
      <point x="208" y="425"/>
      <point x="208" y="383" type="curve" smooth="yes"/>
      <point x="208" y="342"/>
      <point x="177" y="309"/>
      <point x="145" y="276" type="curve" smooth="yes"/>
      <point x="106" y="236"/>
      <point x="63" y="193"/>
      <point x="63" y="125" type="curve"/>
      <point x="63" y="38"/>
      <point x="124" y="-14"/>
      <point x="191" y="-14" type="curve" smooth="yes"/>
      <point x="259" y="-14"/>
      <point x="327" y="43"/>
      <point x="350" y="126" type="curve"/>
      <point x="352" y="126" type="line"/>
      <point x="375" y="43"/>
      <point x="443" y="-14"/>
      <point x="514" y="-14" type="curve"/>
    </contour>
  </outline>
</glyph>
<glyph name="knYA" format="1">
  <advance width="1231"/>
  <unicode hex="0CAF"/>
  <outline>
    <contour>
      <point x="836" y="392"/>
      <point x="722" y="509"/>
      <point x="636" y="509" type="curve" smooth="yes"/>
      <point x="600" y="509"/>
      <point x="581" y="496"/>
      <point x="581" y="473" type="curve" smooth="yes"/>
      <point x="581" y="450"/>
      <point x="592" y="434"/>
      <point x="622" y="434" type="curve"/>
      <point x="721" y="434"/>
      <point x="794" y="338"/>
      <point x="794" y="257" type="curve" smooth="yes"/>
      <point x="794" y="158"/>
      <point x="725" y="71"/>
      <point x="640" y="71" type="curve"/>
      <point x="553" y="71"/>
      <point x="504" y="145"/>
      <point x="484" y="189" type="curve"/>
      <point x="460" y="139" type="line"/>
      <point x="472" y="82"/>
      <point x="547" y="-14"/>
      <point x="652" y="-14" type="curve"/>
      <point x="777" y="-14"/>
      <point x="836" y="109"/>
      <point x="836" y="245" type="curve" smooth="yes"/>
    </contour>
    <contour>
      <point x="146" y="519"/>
      <point x="55" y="402"/>
      <point x="55" y="250" type="curve" smooth="yes"/>
      <point x="55" y="99"/>
      <point x="146" y="-14"/>
      <point x="285" y="-14" type="curve"/>
      <point x="424" y="-14"/>
      <point x="515" y="99"/>
      <point x="515" y="250" type="curve" smooth="yes"/>
      <point x="515" y="402"/>
      <point x="424" y="519"/>
      <point x="285" y="519" type="curve" smooth="yes"/>
    </contour>
    <contour>
      <point x="386" y="434"/>
      <point x="473" y="371"/>
      <point x="473" y="256" type="curve" smooth="yes"/>
      <point x="473" y="146"/>
      <point x="386" y="70"/>
      <point x="285" y="70" type="curve"/>
      <point x="184" y="70"/>
      <point x="99" y="146"/>
      <point x="99" y="261" type="curve" smooth="yes"/>
      <point x="99" y="371"/>
      <point x="184" y="434"/>
      <point x="285" y="434" type="curve" smooth="yes"/>
    </contour>
    <contour>
      <point x="778" y="644" type="line"/>
      <point x="802" y="635"/>
      <point x="824" y="610"/>
      <point x="824" y="576" type="curve" smooth="yes"/>
      <point x="824" y="536"/>
      <point x="793" y="509"/>
      <point x="732" y="509" type="curve" smooth="yes"/>
      <point x="540" y="509" type="line"/>
      <point x="540" y="434" type="line"/>
      <point x="732" y="434" type="line" smooth="yes"/>
      <point x="813" y="434"/>
      <point x="867" y="480"/>
      <point x="867" y="552" type="curve" smooth="yes"/>
      <point x="867" y="607"/>
      <point x="836" y="648"/>
      <point x="793" y="664" type="curve"/>
    </contour>
    <contour>
      <point x="893" y="71"/>
      <point x="844" y="145"/>
      <point x="824" y="189" type="curve"/>
      <point x="800" y="139" type="line"/>
      <point x="812" y="82"/>
      <point x="887" y="-14"/>
      <point x="983" y="-14" type="curve"/>
      <point x="1096" y="-14"/>
      <point x="1176" y="115"/>
      <point x="1176" y="242" type="curve"/>
      <point x="1176" y="415"/>
      <point x="1090" y="513"/>
      <point x="1019" y="513" type="curve" smooth="yes"/>
      <point x="988" y="513"/>
      <point x="971" y="493"/>
      <point x="971" y="470" type="curve" smooth="yes"/>
      <point x="971" y="451"/>
      <point x="983" y="435"/>
      <point x="999" y="430" type="curve" smooth="yes"/>
      <point x="1022" y="423"/>
      <point x="1043" y="428"/>
      <point x="1067" y="420" type="curve" smooth="yes"/>
      <point x="1104" y="407"/>
      <point x="1135" y="344"/>
      <point x="1135" y="255" type="curve"/>
      <point x="1135" y="159"/>
      <point x="1065" y="71"/>
      <point x="983" y="71" type="curve"/>
    </contour>
  </outline>
</glyph>
<glyph name="knRRA" format="1">
  <advance width="812"/>
  <unicode hex="0CB1"/>
  <outline>
    <contour>
      <point x="182" y="354" type="line"/>
      <point x="182" y="293" type="line"/>
      <point x="630" y="293" type="line"/>
      <point x="630" y="354" type="line"/>
    </contour>
    <contour>
      <point x="489" y="71"/>
      <point x="423" y="146"/>
      <point x="410" y="221" type="curve"/>
      <point x="401" y="221" type="line"/>
      <point x="387" y="145"/>
      <point x="322" y="71"/>
      <point x="249" y="71" type="curve"/>
      <point x="167" y="71"/>
      <point x="102" y="154"/>
      <point x="102" y="265" type="curve"/>
      <point x="102" y="396"/>
      <point x="146" y="459"/>
      <point x="215" y="459" type="curve" smooth="yes"/>
      <point x="263" y="459"/>
      <point x="287" y="440"/>
      <point x="287" y="401" type="curve" smooth="yes"/>
      <point x="287" y="375"/>
      <point x="269" y="354"/>
      <point x="232" y="354" type="curve"/>
      <point x="232" y="293" type="line"/>
      <point x="285" y="293"/>
      <point x="317" y="335"/>
      <point x="317" y="401" type="curve" smooth="yes"/>
      <point x="317" y="467"/>
      <point x="291" y="519"/>
      <point x="220" y="519" type="curve" smooth="yes"/>
      <point x="134" y="519"/>
      <point x="55" y="421"/>
      <point x="55" y="244" type="curve"/>
      <point x="55" y="130"/>
      <point x="118" y="-14"/>
      <point x="245" y="-14" type="curve"/>
      <point x="314" y="-14"/>
      <point x="382" y="43"/>
      <point x="405" y="126" type="curve"/>
      <point x="407" y="126" type="line"/>
      <point x="430" y="43"/>
      <point x="498" y="-14"/>
      <point x="566" y="-14" type="curve"/>
      <point x="692" y="-14"/>
      <point x="757" y="130"/>
      <point x="757" y="244" type="curve"/>
      <point x="757" y="421"/>
      <point x="678" y="519"/>
      <point x="592" y="519" type="curve" smooth="yes"/>
      <point x="521" y="519"/>
      <point x="495" y="467"/>
      <point x="495" y="401" type="curve" smooth="yes"/>
      <point x="495" y="335"/>
      <point x="527" y="293"/>
      <point x="580" y="293" type="curve"/>
      <point x="580" y="354" type="line"/>
      <point x="543" y="354"/>
      <point x="525" y="375"/>
      <point x="525" y="401" type="curve" smooth="yes"/>
      <point x="525" y="440"/>
      <point x="549" y="459"/>
      <point x="597" y="459" type="curve" smooth="yes"/>
      <point x="666" y="459"/>
      <point x="710" y="396"/>
      <point x="710" y="265" type="curve"/>
      <point x="710" y="154"/>
      <point x="644" y="71"/>
      <point x="562" y="71" type="curve"/>
    </contour>
  </outline>
</glyph>
<glyph name="knLA" format="1">
  <advance width="691"/>
  <unicode hex="0CB2"/>
  <outline>
    <contour>
      <point x="55" y="103"/>
      <point x="172" y="-14"/>
      <point x="344" y="-14" type="curve"/>
      <point x="515" y="-14"/>
      <point x="636" y="126"/>
      <point x="636" y="283" type="curve"/>
      <point x="636" y="416"/>
      <point x="551" y="514"/>
      <point x="487" y="514" type="curve" smooth="yes"/>
      <point x="452" y="514"/>
      <point x="432" y="494"/>
      <point x="432" y="471" type="curve" smooth="yes"/>
      <point x="432" y="452"/>
      <point x="444" y="436"/>
      <point x="460" y="431" type="curve" smooth="yes"/>
      <point x="483" y="424"/>
      <point x="504" y="429"/>
      <point x="528" y="421" type="curve" smooth="yes"/>
      <point x="565" y="408"/>
      <point x="595" y="365"/>
      <point x="595" y="293" type="curve"/>
      <point x="595" y="167"/>
      <point x="483" y="71"/>
      <point x="342" y="71" type="curve"/>
      <point x="203" y="71"/>
      <point x="96" y="158"/>
      <point x="96" y="273" type="curve"/>
      <point x="96" y="341"/>
      <point x="113" y="392"/>
      <point x="146" y="425" type="curve"/>
      <point x="144" y="414"/>
      <point x="143" y="401"/>
      <point x="143" y="389" type="curve" smooth="yes"/>
      <point x="143" y="316"/>
      <point x="184" y="281"/>
      <point x="233" y="281" type="curve" smooth="yes"/>
      <point x="286" y="281"/>
      <point x="318" y="333"/>
      <point x="318" y="399" type="curve" smooth="yes"/>
      <point x="318" y="465"/>
      <point x="291" y="517"/>
      <point x="221" y="517" type="curve" smooth="yes"/>
      <point x="128" y="517"/>
      <point x="55" y="397"/>
      <point x="55" y="273" type="curve"/>
    </contour>
    <contour>
      <point x="288" y="373"/>
      <point x="269" y="352"/>
      <point x="233" y="352" type="curve" smooth="yes"/>
      <point x="200" y="352"/>
      <point x="173" y="370"/>
      <point x="173" y="416" type="curve" smooth="yes"/>
      <point x="173" y="427"/>
      <point x="174" y="438"/>
      <point x="176" y="448" type="curve"/>
      <point x="188" y="453"/>
      <point x="202" y="457"/>
      <point x="215" y="457" type="curve" smooth="yes"/>
      <point x="264" y="457"/>
      <point x="288" y="438"/>
      <point x="288" y="399" type="curve" smooth="yes"/>
    </contour>
  </outline>
</glyph>
<glyph name="knLLA" format="1">
  <advance width="560"/>
  <unicode hex="0CB3"/>
  <outline>
    <contour>
      <point x="53" y="435"/>
      <point x="116" y="459"/>
      <point x="184" y="459" type="curve" smooth="yes"/>
      <point x="235" y="459"/>
      <point x="250" y="445"/>
      <point x="250" y="428" type="curve" smooth="yes"/>
      <point x="250" y="405"/>
      <point x="227" y="394"/>
      <point x="191" y="394" type="curve" smooth="yes"/>
      <point x="144" y="394"/>
      <point x="128" y="418"/>
      <point x="128" y="441" type="curve" smooth="yes"/>
      <point x="128" y="464"/>
      <point x="136" y="471"/>
      <point x="143" y="477" type="curve"/>
      <point x="119" y="482" type="line"/>
      <point x="107" y="460"/>
      <point x="98" y="450"/>
      <point x="98" y="414" type="curve" smooth="yes"/>
      <point x="98" y="364"/>
      <point x="138" y="336"/>
      <point x="187" y="336" type="curve" smooth="yes"/>
      <point x="251" y="336"/>
      <point x="280" y="373"/>
      <point x="280" y="429" type="curve" smooth="yes"/>
      <point x="280" y="482"/>
      <point x="247" y="519"/>
      <point x="177" y="519" type="curve" smooth="yes"/>
      <point x="90" y="519"/>
      <point x="15" y="460"/>
      <point x="15" y="363" type="curve"/>
      <point x="15" y="127"/>
      <point x="362" y="197"/>
      <point x="362" y="109" type="curve"/>
      <point x="362" y="83"/>
      <point x="333" y="71"/>
      <point x="296" y="71" type="curve"/>
      <point x="253" y="71"/>
      <point x="223" y="85"/>
      <point x="223" y="112" type="curve"/>
      <point x="223" y="203"/>
      <point x="512" y="206"/>
      <point x="512" y="354" type="curve" smooth="yes"/>
      <point x="512" y="442"/>
      <point x="426" y="471"/>
      <point x="348" y="471" type="curve"/>
      <point x="388" y="434" type="line"/>
      <point x="408" y="434"/>
      <point x="473" y="423"/>
      <point x="473" y="354" type="curve" smooth="yes"/>
      <point x="473" y="232"/>
      <point x="175" y="245"/>
      <point x="175" y="86" type="curve"/>
      <point x="175" y="28"/>
      <point x="220" y="-14"/>
      <point x="291" y="-14" type="curve"/>
      <point x="358" y="-14"/>
      <point x="402" y="34"/>
      <point x="402" y="97" type="curve" smooth="yes"/>
      <point x="402" y="291"/>
      <point x="53" y="198"/>
      <point x="53" y="370" type="curve"/>
    </contour>
    <contour>
      <point x="461" y="644" type="line"/>
      <point x="485" y="635"/>
      <point x="507" y="610"/>
      <point x="507" y="576" type="curve" smooth="yes"/>
      <point x="507" y="536"/>
      <point x="476" y="509"/>
      <point x="415" y="509" type="curve" smooth="yes"/>
      <point x="334" y="509" type="line"/>
      <point x="334" y="434" type="line"/>
      <point x="415" y="434" type="line" smooth="yes"/>
      <point x="496" y="434"/>
      <point x="550" y="480"/>
      <point x="550" y="552" type="curve" smooth="yes"/>
      <point x="550" y="607"/>
      <point x="519" y="648"/>
      <point x="476" y="664" type="curve"/>
    </contour>
  </outline>
</glyph>
<glyph name="knSHA" format="1">
  <advance width="560"/>
  <unicode hex="0CB6"/>
  <outline>
    <contour>
      <point x="175" y="461"/>
      <point x="124" y="426"/>
      <point x="124" y="377" type="curve" smooth="yes"/>
      <point x="124" y="342"/>
      <point x="148" y="309"/>
      <point x="196" y="309" type="curve" smooth="yes"/>
      <point x="230" y="309"/>
      <point x="248" y="331"/>
      <point x="248" y="353" type="curve"/>
      <point x="248" y="375"/>
      <point x="232" y="393"/>
      <point x="210" y="393" type="curve"/>
      <point x="190" y="393"/>
      <point x="176" y="376"/>
      <point x="176" y="354" type="curve" smooth="yes"/>
      <point x="176" y="351"/>
      <point x="175" y="347"/>
      <point x="171" y="347" type="curve"/>
      <point x="162" y="347"/>
      <point x="159" y="366"/>
      <point x="159" y="378" type="curve"/>
      <point x="159" y="408"/>
      <point x="188" y="439"/>
      <point x="231" y="439" type="curve"/>
      <point x="274" y="439"/>
      <point x="311" y="399"/>
      <point x="311" y="346" type="curve" smooth="yes"/>
      <point x="311" y="291"/>
      <point x="277" y="268"/>
      <point x="226" y="268" type="curve"/>
      <point x="209" y="268"/>
      <point x="171" y="268"/>
      <point x="157" y="268" type="curve" smooth="yes"/>
      <point x="84" y="268"/>
      <point x="40" y="224"/>
      <point x="40" y="165" type="curve"/>
      <point x="40" y="75"/>
      <point x="114" y="-14"/>
      <point x="260" y="-14" type="curve" smooth="yes"/>
      <point x="390" y="-14"/>
      <point x="501" y="90"/>
      <point x="501" y="236" type="curve" smooth="yes"/>
      <point x="501" y="379"/>
      <point x="391" y="461"/>
      <point x="268" y="462" type="curve" smooth="yes"/>
    </contour>
    <contour>
      <point x="354" y="434"/>
      <point x="439" y="373"/>
      <point x="439" y="263" type="curve"/>
      <point x="439" y="138"/>
      <point x="372" y="71"/>
      <point x="241" y="71" type="curve" smooth="yes"/>
      <point x="131" y="71"/>
      <point x="79" y="116"/>
      <point x="79" y="169" type="curve" smooth="yes"/>
      <point x="79" y="203"/>
      <point x="104" y="226"/>
      <point x="153" y="226" type="curve"/>
      <point x="229" y="226" type="line"/>
      <point x="304" y="226"/>
      <point x="349" y="277"/>
      <point x="349" y="342" type="curve"/>
      <point x="349" y="396"/>
      <point x="315" y="429"/>
      <point x="283" y="439" type="curve"/>
    </contour>
    <contour>
      <point x="431" y="644" type="line"/>
      <point x="455" y="635"/>
      <point x="477" y="610"/>
      <point x="477" y="576" type="curve" smooth="yes"/>
      <point x="477" y="536"/>
      <point x="446" y="509"/>
      <point x="385" y="509" type="curve" smooth="yes"/>
      <point x="40" y="509" type="line"/>
      <point x="40" y="434" type="line"/>
      <point x="176" y="434" type="line"/>
      <point x="277" y="459" type="line"/>
      <point x="385" y="434" type="line"/>
      <point x="466" y="434"/>
      <point x="520" y="480"/>
      <point x="520" y="552" type="curve" smooth="yes"/>
      <point x="520" y="607"/>
      <point x="489" y="648"/>
      <point x="446" y="664" type="curve"/>
    </contour>
  </outline>
</glyph>
<glyph name="knSA" format="1">
  <advance width="679"/>
  <unicode hex="0CB8"/>
  <outline>
    <contour>
      <point x="60" y="121"/>
      <point x="118" y="247"/>
      <point x="238" y="247" type="curve" smooth="yes"/>
      <point x="376" y="247"/>
      <point x="389" y="71"/>
      <point x="497" y="71" type="curve" smooth="yes"/>
      <point x="592" y="71"/>
      <point x="591" y="279"/>
      <point x="508" y="360" type="curve"/>
      <point x="533" y="377" type="line"/>
      <point x="655" y="270"/>
      <point x="660" y="-14"/>
      <point x="510" y="-14" type="curve" smooth="yes"/>
      <point x="389" y="-14"/>
      <point x="386" y="175"/>
      <point x="238" y="175" type="curve" smooth="yes"/>
      <point x="136" y="175"/>
      <point x="97" y="78"/>
      <point x="74" y="-14" type="curve"/>
      <point x="48" y="0" type="line"/>
    </contour>
    <contour>
      <point x="355" y="288"/>
      <point x="377" y="314"/>
      <point x="377" y="347" type="curve" smooth="yes"/>
      <point x="377" y="380"/>
      <point x="355" y="404"/>
      <point x="319" y="404" type="curve" smooth="yes"/>
      <point x="283" y="404"/>
      <point x="261" y="380"/>
      <point x="261" y="347" type="curve" smooth="yes"/>
      <point x="261" y="314"/>
      <point x="283" y="288"/>
      <point x="319" y="288" type="curve" smooth="yes"/>
    </contour>
    <contour>
      <point x="535" y="644" type="line"/>
      <point x="559" y="635"/>
      <point x="581" y="610"/>
      <point x="581" y="576" type="curve" smooth="yes"/>
      <point x="581" y="536"/>
      <point x="550" y="509"/>
      <point x="489" y="509" type="curve" smooth="yes"/>
      <point x="45" y="509" type="line"/>
      <point x="45" y="434" type="line"/>
      <point x="489" y="434" type="line"/>
      <point x="570" y="434"/>
      <point x="624" y="480"/>
      <point x="624" y="552" type="curve" smooth="yes"/>
      <point x="624" y="607"/>
      <point x="593" y="648"/>
      <point x="550" y="664" type="curve"/>
    </contour>
  </outline>
</glyph>
<glyph name="knHA" format="1">
  <advance width="724"/>
  <unicode hex="0CB9"/>
  <outline>
    <contour>
      <point x="579" y="644" type="line"/>
      <point x="603" y="635"/>
      <point x="625" y="610"/>
      <point x="625" y="576" type="curve" smooth="yes"/>
      <point x="625" y="536"/>
      <point x="594" y="509"/>
      <point x="533" y="509" type="curve" smooth="yes"/>
      <point x="55" y="509" type="line"/>
      <point x="55" y="434" type="line"/>
      <point x="533" y="434" type="line" smooth="yes"/>
      <point x="614" y="434"/>
      <point x="668" y="480"/>
      <point x="668" y="552" type="curve" smooth="yes"/>
      <point x="668" y="607"/>
      <point x="637" y="648"/>
      <point x="594" y="664" type="curve"/>
    </contour>
    <contour>
      <point x="229" y="435" type="line"/>
      <point x="311" y="427"/>
      <point x="340" y="363"/>
      <point x="340" y="269" type="curve"/>
      <point x="380" y="234" type="line"/>
      <point x="380" y="391"/>
      <point x="346" y="450"/>
      <point x="230" y="472" type="curve"/>
    </contour>
    <contour>
      <point x="428" y="340"/>
      <point x="386" y="302"/>
      <point x="359" y="247" type="curve"/>
      <point x="356" y="99" type="line"/>
      <point x="382" y="25"/>
      <point x="435" y="-14"/>
      <point x="503" y="-14" type="curve" smooth="yes"/>
      <point x="598" y="-14"/>
      <point x="669" y="64"/>
      <point x="669" y="162" type="curve" smooth="yes"/>
      <point x="669" y="261"/>
      <point x="598" y="340"/>
      <point x="503" y="340" type="curve" smooth="yes"/>
    </contour>
    <contour>
      <point x="558" y="296"/>
      <point x="608" y="251"/>
      <point x="608" y="182" type="curve" smooth="yes"/>
      <point x="608" y="111"/>
      <point x="558" y="71"/>
      <point x="498" y="71" type="curve" smooth="yes"/>
      <point x="434" y="71"/>
      <point x="383" y="111"/>
      <point x="383" y="182" type="curve" smooth="yes"/>
      <point x="383" y="251"/>
      <point x="433" y="296"/>
      <point x="498" y="296" type="curve" smooth="yes"/>
    </contour>
    <contour>
      <point x="126" y="340"/>
      <point x="55" y="261"/>
      <point x="55" y="162" type="curve" smooth="yes"/>
      <point x="55" y="64"/>
      <point x="126" y="-14"/>
      <point x="221" y="-14" type="curve" smooth="yes"/>
      <point x="289" y="-14"/>
      <point x="342" y="25"/>
      <point x="368" y="99" type="curve"/>
      <point x="365" y="247" type="line"/>
      <point x="338" y="302"/>
      <point x="296" y="340"/>
      <point x="221" y="340" type="curve" smooth="yes"/>
    </contour>
    <contour>
      <point x="291" y="296"/>
      <point x="341" y="251"/>
      <point x="341" y="182" type="curve" smooth="yes"/>
      <point x="341" y="111"/>
      <point x="290" y="71"/>
      <point x="226" y="71" type="curve" smooth="yes"/>
      <point x="166" y="71"/>
      <point x="116" y="111"/>
      <point x="116" y="182" type="curve" smooth="yes"/>
      <point x="116" y="251"/>
      <point x="166" y="296"/>
      <point x="226" y="296" type="curve" smooth="yes"/>
    </contour>
  </outline>
</glyph>
<glyph name="knmAA" format="1">
  <advance width="445"/>
  <unicode hex="0CBE"/>
  <outline>
    <contour>
      <point x="251" y="434"/>
      <point x="346" y="356"/>
      <point x="346" y="236" type="curve" smooth="yes"/>
      <point x="346" y="132"/>
      <point x="297" y="69"/>
      <point x="198" y="69" type="curve" smooth="yes"/>
      <point x="124" y="69"/>
      <point x="81" y="113"/>
      <point x="81" y="170" type="curve"/>
      <point x="81" y="212"/>
      <point x="100" y="238"/>
      <point x="113" y="238" type="curve" smooth="yes"/>
      <point x="117" y="238"/>
      <point x="119" y="234"/>
      <point x="119" y="228" type="curve" smooth="yes"/>
      <point x="119" y="192"/>
      <point x="140" y="166"/>
      <point x="174" y="166" type="curve" smooth="yes"/>
      <point x="208" y="166"/>
      <point x="234" y="195"/>
      <point x="234" y="231" type="curve" smooth="yes"/>
      <point x="234" y="263"/>
      <point x="208" y="300"/>
      <point x="155" y="300" type="curve" smooth="yes"/>
      <point x="76" y="300"/>
      <point x="39" y="234"/>
      <point x="39" y="156" type="curve"/>
      <point x="39" y="57"/>
      <point x="102" y="-13"/>
      <point x="199" y="-13" type="curve" smooth="yes"/>
      <point x="309" y="-13"/>
      <point x="385" y="83"/>
      <point x="385" y="239" type="curve" smooth="yes"/>
      <point x="385" y="402"/>
      <point x="270" y="509"/>
      <point x="45" y="509" type="curve"/>
      <point x="-200" y="509" type="line"/>
      <point x="-200" y="434" type="line"/>
      <point x="96" y="434" type="line"/>
    </contour>
  </outline>
</glyph>
<glyph name="knmI" format="1">
  <advance width="244"/>
  <unicode hex="0CBF"/>
  <outline>
    <contour>
      <point x="234" y="680"/>
      <point x="148" y="794"/>
      <point x="56" y="794" type="curve" smooth="yes"/>
      <point x="-5" y="794"/>
      <point x="-40" y="753"/>
      <point x="-40" y="695" type="curve" smooth="yes"/>
      <point x="-40" y="626"/>
      <point x="14" y="571"/>
      <point x="78" y="571" type="curve" smooth="yes"/>
      <point x="137" y="571"/>
      <point x="159" y="615"/>
      <point x="159" y="661" type="curve"/>
      <point x="159" y="707"/>
      <point x="140" y="734"/>
      <point x="114" y="757" type="curve"/>
      <point x="59" y="761" type="line"/>
      <point x="89" y="735"/>
      <point x="113" y="708"/>
      <point x="113" y="669" type="curve" smooth="yes"/>
      <point x="113" y="633"/>
      <point x="105" y="605"/>
      <point x="60" y="605" type="curve" smooth="yes"/>
      <point x="20" y="605"/>
      <point x="-12" y="639"/>
      <point x="-12" y="676" type="curve" smooth="yes"/>
      <point x="-12" y="708"/>
      <point x="9" y="734"/>
      <point x="53" y="734" type="curve" smooth="yes"/>
      <point x="127" y="734"/>
      <point x="191" y="698"/>
      <point x="191" y="607" type="curve"/>
      <point x="191" y="530"/>
      <point x="161" y="509"/>
      <point x="100" y="509" type="curve"/>
      <point x="99" y="434" type="line"/>
      <point x="180" y="434"/>
      <point x="234" y="480"/>
      <point x="234" y="583" type="curve"/>
    </contour>
  </outline>
</glyph>
<glyph name="knmII" format="1">
  <advance width="533"/>
  <unicode hex="0CC0"/>
  <outline>
    <contour>
      <point x="234" y="680"/>
      <point x="148" y="794"/>
      <point x="56" y="794" type="curve" smooth="yes"/>
      <point x="-5" y="794"/>
      <point x="-40" y="753"/>
      <point x="-40" y="695" type="curve" smooth="yes"/>
      <point x="-40" y="626"/>
      <point x="14" y="571"/>
      <point x="78" y="571" type="curve" smooth="yes"/>
      <point x="137" y="571"/>
      <point x="159" y="615"/>
      <point x="159" y="661" type="curve"/>
      <point x="159" y="707"/>
      <point x="140" y="734"/>
      <point x="114" y="757" type="curve"/>
      <point x="59" y="761" type="line"/>
      <point x="89" y="735"/>
      <point x="113" y="708"/>
      <point x="113" y="669" type="curve" smooth="yes"/>
      <point x="113" y="633"/>
      <point x="105" y="605"/>
      <point x="60" y="605" type="curve" smooth="yes"/>
      <point x="20" y="605"/>
      <point x="-12" y="639"/>
      <point x="-12" y="676" type="curve" smooth="yes"/>
      <point x="-12" y="708"/>
      <point x="9" y="734"/>
      <point x="53" y="734" type="curve" smooth="yes"/>
      <point x="127" y="734"/>
      <point x="191" y="698"/>
      <point x="191" y="607" type="curve"/>
      <point x="191" y="530"/>
      <point x="161" y="509"/>
      <point x="100" y="509" type="curve"/>
      <point x="99" y="434" type="line"/>
      <point x="180" y="434"/>
      <point x="234" y="480"/>
      <point x="234" y="583" type="curve"/>
    </contour>
    <contour>
      <point x="324" y="392"/>
      <point x="314" y="361"/>
      <point x="314" y="325" type="curve" smooth="yes"/>
      <point x="314" y="267"/>
      <point x="341" y="229"/>
      <point x="389" y="229" type="curve" smooth="yes"/>
      <point x="426" y="229"/>
      <point x="483" y="269"/>
      <point x="483" y="345" type="curve" smooth="yes"/>
      <point x="483" y="421"/>
      <point x="446" y="476"/>
      <point x="381" y="476" type="curve" smooth="yes"/>
      <point x="291" y="476"/>
      <point x="240" y="363"/>
      <point x="240" y="248" type="curve" smooth="yes"/>
      <point x="240" y="151"/>
      <point x="278" y="59"/>
      <point x="347" y="-15" type="curve"/>
      <point x="400" y="-15" type="line"/>
      <point x="399" y="14" type="line"/>
      <point x="320" y="91"/>
      <point x="276" y="170"/>
      <point x="276" y="240" type="curve"/>
      <point x="276" y="346"/>
      <point x="318" y="408"/>
      <point x="388" y="408" type="curve" smooth="yes"/>
      <point x="426" y="408"/>
      <point x="455" y="386"/>
      <point x="455" y="347" type="curve" smooth="yes"/>
      <point x="455" y="317"/>
      <point x="430" y="287"/>
      <point x="391" y="287" type="curve" smooth="yes"/>
      <point x="356" y="287"/>
      <point x="338" y="314"/>
      <point x="338" y="347" type="curve" smooth="yes"/>
      <point x="338" y="381"/>
      <point x="351" y="408"/>
      <point x="378" y="438" type="curve"/>
      <point x="334" y="420" type="line"/>
    </contour>
  </outline>
</glyph>
<glyph name="knmU" format="1">
  <advance width="340"/>
  <unicode hex="0CC1"/>
  <outline>
    <contour>
      <point x="205" y="-14"/>
      <point x="285" y="115"/>
      <point x="285" y="242" type="curve"/>
      <point x="285" y="415"/>
      <point x="199" y="513"/>
      <point x="128" y="513" type="curve" smooth="yes"/>
      <point x="97" y="513"/>
      <point x="80" y="493"/>
      <point x="80" y="470" type="curve" smooth="yes"/>
      <point x="80" y="451"/>
      <point x="92" y="435"/>
      <point x="108" y="430" type="curve" smooth="yes"/>
      <point x="131" y="423"/>
      <point x="152" y="428"/>
      <point x="176" y="420" type="curve" smooth="yes"/>
      <point x="213" y="407"/>
      <point x="244" y="344"/>
      <point x="244" y="255" type="curve"/>
      <point x="244" y="159"/>
      <point x="174" y="71"/>
      <point x="92" y="71" type="curve"/>
      <point x="13" y="71"/>
      <point x="-52" y="132"/>
      <point x="-87" y="235" type="curve"/>
      <point x="-107" y="216" type="line"/>
      <point x="-107" y="89"/>
      <point x="-4" y="-14"/>
      <point x="92" y="-14" type="curve"/>
    </contour>
  </outline>
</glyph>
<glyph name="knmUU" format="1">
  <advance width="708"/>
  <unicode hex="0CC2"/>
  <outline>
    <contour>
      <point x="614" y="140"/>
      <point x="564" y="71"/>
      <point x="472" y="71" type="curve" smooth="yes"/>
      <point x="401" y="71"/>
      <point x="359" y="112"/>
      <point x="359" y="169" type="curve"/>
      <point x="359" y="211"/>
      <point x="368" y="237"/>
      <point x="380" y="237" type="curve" smooth="yes"/>
      <point x="385" y="237"/>
      <point x="386" y="232"/>
      <point x="386" y="227" type="curve" smooth="yes"/>
      <point x="386" y="191"/>
      <point x="408" y="165"/>
      <point x="441" y="165" type="curve" smooth="yes"/>
      <point x="476" y="165"/>
      <point x="501" y="194"/>
      <point x="501" y="230" type="curve" smooth="yes"/>
      <point x="501" y="262"/>
      <point x="476" y="299"/>
      <point x="423" y="299" type="curve" smooth="yes"/>
      <point x="344" y="299"/>
      <point x="307" y="233"/>
      <point x="307" y="155" type="curve"/>
      <point x="307" y="56"/>
      <point x="370" y="-14"/>
      <point x="456" y="-14" type="curve" smooth="yes"/>
      <point x="567" y="-14"/>
      <point x="653" y="82"/>
      <point x="653" y="238" type="curve"/>
      <point x="653" y="424"/>
      <point x="515" y="519"/>
      <point x="398" y="519" type="curve"/>
      <point x="305" y="519"/>
      <point x="184" y="456"/>
      <point x="184" y="273" type="curve"/>
      <point x="184" y="177"/>
      <point x="168" y="71"/>
      <point x="75" y="71" type="curve"/>
      <point x="-6" y="71"/>
      <point x="-56" y="145"/>
      <point x="-85" y="222" type="curve"/>
      <point x="-107" y="182" type="line"/>
      <point x="-98" y="84"/>
      <point x="-11" y="-14"/>
      <point x="78" y="-14" type="curve"/>
      <point x="201" y="-14"/>
      <point x="231" y="103"/>
      <point x="231" y="274" type="curve"/>
      <point x="231" y="416"/>
      <point x="320" y="437"/>
      <point x="398" y="437" type="curve" smooth="yes"/>
      <point x="492" y="437"/>
      <point x="614" y="357"/>
      <point x="614" y="235" type="curve"/>
    </contour>
  </outline>
</glyph>
<glyph name="knmvR" format="1">
  <advance width="109"/>
  <unicode hex="0CC3"/>
  <outline>
    <contour>
      <point x="-42" y="-89"/>
      <point x="-48" y="-108"/>
      <point x="-48" y="-123" type="curve" smooth="yes"/>
      <point x="-48" y="-145"/>
      <point x="-35" y="-160"/>
      <point x="-17" y="-160" type="curve" smooth="yes"/>
      <point x="2" y="-160"/>
      <point x="13" y="-144"/>
      <point x="13" y="-124" type="curve" smooth="yes"/>
      <point x="13" y="-105"/>
      <point x="-2" y="-91"/>
      <point x="-21" y="-91" type="curve" smooth="yes"/>
      <point x="-47" y="-91"/>
      <point x="-83" y="-115"/>
      <point x="-83" y="-175" type="curve" smooth="yes"/>
      <point x="-83" y="-229"/>
      <point x="-34" y="-269"/>
      <point x="26" y="-269" type="curve" smooth="yes"/>
      <point x="94" y="-269"/>
      <point x="136" y="-215"/>
      <point x="136" y="-155" type="curve" smooth="yes"/>
      <point x="136" y="-84"/>
      <point x="107" y="-31"/>
      <point x="72" y="6" type="curve" smooth="yes"/>
      <point x="41" y="37"/>
      <point x="28" y="55"/>
      <point x="28" y="71" type="curve" smooth="yes"/>
      <point x="28" y="83"/>
      <point x="36" y="89"/>
      <point x="46" y="89" type="curve" smooth="yes"/>
      <point x="56" y="89"/>
      <point x="64" y="85"/>
      <point x="76" y="68" type="curve" smooth="yes"/>
      <point x="117" y="12"/>
      <point x="159" y="-73"/>
      <point x="159" y="-157" type="curve" smooth="yes"/>
      <point x="159" y="-239"/>
      <point x="109" y="-308"/>
      <point x="23" y="-308" type="curve" smooth="yes"/>
      <point x="-39" y="-308"/>
      <point x="-103" y="-259"/>
      <point x="-103" y="-175" type="curve" smooth="yes"/>
      <point x="-103" y="-95"/>
      <point x="-59" y="-62"/>
      <point x="-26" y="-62" type="curve" smooth="yes"/>
      <point x="0" y="-62"/>
      <point x="28" y="-78"/>
      <point x="28" y="-127" type="curve" smooth="yes"/>
      <point x="28" y="-161"/>
      <point x="15" y="-188"/>
      <point x="-17" y="-188" type="curve" smooth="yes"/>
      <point x="-44" y="-188"/>
      <point x="-64" y="-162"/>
      <point x="-64" y="-134" type="curve" smooth="yes"/>
      <point x="-64" y="-108"/>
      <point x="-61" y="-93"/>
      <point x="-51" y="-77" type="curve"/>
      <point x="-28" y="-76" type="line"/>
    </contour>
  </outline>
</glyph>
<glyph name="knmE" format="1">
  <advance width="-5"/>
  <unicode hex="0CC6"/>
  <outline>
    <contour>
      <point x="-200" y="434" type="line"/>
      <point x="-119" y="434"/>
      <point x="-65" y="480"/>
      <point x="-65" y="553" type="curve" smooth="yes"/>
      <point x="-65" y="651"/>
      <point x="-143" y="685"/>
      <point x="-200" y="685" type="curve" smooth="yes"/>
      <point x="-255" y="685"/>
      <point x="-283" y="657"/>
      <point x="-283" y="625" type="curve" smooth="yes"/>
      <point x="-283" y="592"/>
      <point x="-260" y="571"/>
      <point x="-226" y="571" type="curve" smooth="yes"/>
      <point x="-192" y="571"/>
      <point x="-171" y="597"/>
      <point x="-171" y="633" type="curve" smooth="yes"/>
      <point x="-171" y="639"/>
      <point x="-169" y="643"/>
      <point x="-165" y="643" type="curve" smooth="yes"/>
      <point x="-152" y="643"/>
      <point x="-108" y="629"/>
      <point x="-108" y="577" type="curve"/>
      <point x="-108" y="530"/>
      <point x="-148" y="509"/>
      <point x="-199" y="509" type="curve"/>
    </contour>
  </outline>
</glyph>
<glyph name="knmOO" format="1">
  <advance width="1062"/>
  <unicode hex="0CCB"/>
  <outline>
    <contour>
      <point x="-200" y="434" type="line"/>
      <point x="-119" y="434"/>
      <point x="-65" y="480"/>
      <point x="-65" y="553" type="curve" smooth="yes"/>
      <point x="-65" y="651"/>
      <point x="-143" y="685"/>
      <point x="-200" y="685" type="curve" smooth="yes"/>
      <point x="-255" y="685"/>
      <point x="-283" y="657"/>
      <point x="-283" y="625" type="curve" smooth="yes"/>
      <point x="-283" y="592"/>
      <point x="-260" y="571"/>
      <point x="-226" y="571" type="curve" smooth="yes"/>
      <point x="-192" y="571"/>
      <point x="-171" y="597"/>
      <point x="-171" y="633" type="curve" smooth="yes"/>
      <point x="-171" y="639"/>
      <point x="-169" y="643"/>
      <point x="-165" y="643" type="curve" smooth="yes"/>
      <point x="-152" y="643"/>
      <point x="-108" y="629"/>
      <point x="-108" y="577" type="curve"/>
      <point x="-108" y="530"/>
      <point x="-148" y="509"/>
      <point x="-199" y="509" type="curve"/>
    </contour>
    <contour>
      <point x="853" y="392"/>
      <point x="843" y="361"/>
      <point x="843" y="325" type="curve" smooth="yes"/>
      <point x="843" y="267"/>
      <point x="870" y="229"/>
      <point x="918" y="229" type="curve" smooth="yes"/>
      <point x="955" y="229"/>
      <point x="1012" y="269"/>
      <point x="1012" y="345" type="curve" smooth="yes"/>
      <point x="1012" y="421"/>
      <point x="975" y="476"/>
      <point x="910" y="476" type="curve" smooth="yes"/>
      <point x="820" y="476"/>
      <point x="769" y="363"/>
      <point x="769" y="248" type="curve" smooth="yes"/>
      <point x="769" y="151"/>
      <point x="807" y="59"/>
      <point x="876" y="-15" type="curve"/>
      <point x="929" y="-15" type="line"/>
      <point x="928" y="14" type="line"/>
      <point x="849" y="91"/>
      <point x="805" y="170"/>
      <point x="805" y="240" type="curve"/>
      <point x="805" y="346"/>
      <point x="847" y="408"/>
      <point x="917" y="408" type="curve" smooth="yes"/>
      <point x="955" y="408"/>
      <point x="984" y="386"/>
      <point x="984" y="347" type="curve" smooth="yes"/>
      <point x="984" y="317"/>
      <point x="959" y="287"/>
      <point x="920" y="287" type="curve" smooth="yes"/>
      <point x="885" y="287"/>
      <point x="867" y="314"/>
      <point x="867" y="347" type="curve" smooth="yes"/>
      <point x="867" y="381"/>
      <point x="880" y="408"/>
      <point x="907" y="438" type="curve"/>
      <point x="863" y="420" type="line"/>
    </contour>
    <contour>
      <point x="624" y="140"/>
      <point x="574" y="71"/>
      <point x="482" y="71" type="curve" smooth="yes"/>
      <point x="411" y="71"/>
      <point x="369" y="112"/>
      <point x="369" y="169" type="curve"/>
      <point x="369" y="211"/>
      <point x="378" y="237"/>
      <point x="390" y="237" type="curve" smooth="yes"/>
      <point x="395" y="237"/>
      <point x="396" y="232"/>
      <point x="396" y="227" type="curve" smooth="yes"/>
      <point x="396" y="191"/>
      <point x="418" y="165"/>
      <point x="451" y="165" type="curve" smooth="yes"/>
      <point x="486" y="165"/>
      <point x="511" y="194"/>
      <point x="511" y="230" type="curve" smooth="yes"/>
      <point x="511" y="262"/>
      <point x="486" y="299"/>
      <point x="433" y="299" type="curve" smooth="yes"/>
      <point x="354" y="299"/>
      <point x="317" y="233"/>
      <point x="317" y="155" type="curve"/>
      <point x="317" y="56"/>
      <point x="380" y="-14"/>
      <point x="466" y="-14" type="curve" smooth="yes"/>
      <point x="577" y="-14"/>
      <point x="663" y="82"/>
      <point x="663" y="238" type="curve"/>
      <point x="663" y="424"/>
      <point x="525" y="519"/>
      <point x="408" y="519" type="curve"/>
      <point x="315" y="519"/>
      <point x="194" y="456"/>
      <point x="194" y="273" type="curve"/>
      <point x="194" y="177"/>
      <point x="178" y="71"/>
      <point x="85" y="71" type="curve"/>
      <point x="4" y="71"/>
      <point x="-46" y="145"/>
      <point x="-75" y="222" type="curve"/>
      <point x="-97" y="182" type="line"/>
      <point x="-88" y="84"/>
      <point x="-1" y="-14"/>
      <point x="88" y="-14" type="curve"/>
      <point x="211" y="-14"/>
      <point x="241" y="103"/>
      <point x="241" y="274" type="curve"/>
      <point x="241" y="416"/>
      <point x="330" y="437"/>
      <point x="408" y="437" type="curve" smooth="yes"/>
      <point x="502" y="437"/>
      <point x="624" y="357"/>
      <point x="624" y="235" type="curve"/>
    </contour>
  </outline>
</glyph>
<glyph name="knmAU" format="1">
  <advance width="383"/>
  <unicode hex="0CCC"/>
  <outline>
    <contour>
      <point x="219" y="634"/>
      <point x="314" y="556"/>
      <point x="314" y="436" type="curve" smooth="yes"/>
      <point x="314" y="332"/>
      <point x="265" y="269"/>
      <point x="166" y="269" type="curve" smooth="yes"/>
      <point x="92" y="269"/>
      <point x="49" y="313"/>
      <point x="49" y="370" type="curve"/>
      <point x="49" y="412"/>
      <point x="68" y="438"/>
      <point x="81" y="438" type="curve" smooth="yes"/>
      <point x="85" y="438"/>
      <point x="87" y="434"/>
      <point x="87" y="428" type="curve" smooth="yes"/>
      <point x="87" y="392"/>
      <point x="108" y="366"/>
      <point x="142" y="366" type="curve" smooth="yes"/>
      <point x="176" y="366"/>
      <point x="202" y="395"/>
      <point x="202" y="431" type="curve" smooth="yes"/>
      <point x="202" y="463"/>
      <point x="176" y="500"/>
      <point x="123" y="500" type="curve" smooth="yes"/>
      <point x="44" y="500"/>
      <point x="7" y="434"/>
      <point x="7" y="356" type="curve"/>
      <point x="7" y="257"/>
      <point x="70" y="187"/>
      <point x="167" y="187" type="curve" smooth="yes"/>
      <point x="277" y="187"/>
      <point x="353" y="283"/>
      <point x="353" y="439" type="curve" smooth="yes"/>
      <point x="353" y="602"/>
      <point x="238" y="709"/>
      <point x="13" y="709" type="curve"/>
      <point x="-302" y="709" type="line"/>
      <point x="-302" y="634" type="line"/>
      <point x="64" y="634" type="line"/>
    </contour>
    <contour>
      <point x="-155" y="644" type="line"/>
      <point x="-131" y="635"/>
      <point x="-109" y="610"/>
      <point x="-109" y="576" type="curve" smooth="yes"/>
      <point x="-109" y="536"/>
      <point x="-140" y="509"/>
      <point x="-201" y="509" type="curve" smooth="yes"/>
      <point x="-222" y="509" type="line"/>
      <point x="-222" y="434" type="line"/>
      <point x="-201" y="434" type="line" smooth="yes"/>
      <point x="-120" y="434"/>
      <point x="-66" y="480"/>
      <point x="-66" y="552" type="curve" smooth="yes"/>
      <point x="-66" y="607"/>
      <point x="-97" y="648"/>
      <point x="-140" y="664" type="curve"/>
    </contour>
  </outline>
</glyph>
<glyph name="knVirama" format="1">
  <advance width="254"/>
  <unicode hex="0CCD"/>
  <outline>
    <contour>
      <point x="149" y="267"/>
      <point x="195" y="294"/>
      <point x="195" y="371" type="curve" smooth="yes"/>
      <point x="195" y="445"/>
      <point x="146" y="509"/>
      <point x="45" y="509" type="curve" smooth="yes"/>
      <point x="-242" y="509" type="line"/>
      <point x="-242" y="434" type="line"/>
      <point x="70" y="434" type="line" smooth="yes"/>
      <point x="127" y="434"/>
      <point x="164" y="406"/>
      <point x="164" y="371" type="curve" smooth="yes"/>
      <point x="164" y="343"/>
      <point x="143" y="326"/>
      <point x="110" y="326" type="curve"/>
      <point x="65" y="326"/>
      <point x="45" y="355"/>
      <point x="45" y="418" type="curve" smooth="yes"/>
      <point x="45" y="526"/>
      <point x="136" y="584"/>
      <point x="222" y="584" type="curve"/>
      <point x="254" y="584" type="line"/>
      <point x="254" y="614" type="line"/>
      <point x="217" y="614" type="line"/>
      <point x="112" y="614"/>
      <point x="10" y="532"/>
      <point x="10" y="413" type="curve" smooth="yes"/>
      <point x="10" y="347"/>
      <point x="35" y="267"/>
      <point x="107" y="267" type="curve" smooth="yes"/>
    </contour>
  </outline>
</glyph>
<glyph name="knLengthmark" format="1">
  <advance width="343"/>
  <unicode hex="0CD5"/>
  <outline>
    <contour>
      <point x="140" y="391"/>
      <point x="124" y="360"/>
      <point x="124" y="324" type="curve" smooth="yes"/>
      <point x="124" y="266"/>
      <point x="152" y="228"/>
      <point x="200" y="228" type="curve" smooth="yes"/>
      <point x="237" y="228"/>
      <point x="293" y="268"/>
      <point x="293" y="344" type="curve" smooth="yes"/>
      <point x="293" y="420"/>
      <point x="256" y="475"/>
      <point x="192" y="475" type="curve" smooth="yes"/>
      <point x="101" y="475"/>
      <point x="50" y="362"/>
      <point x="50" y="247" type="curve" smooth="yes"/>
      <point x="50" y="150"/>
      <point x="88" y="59"/>
      <point x="157" y="-15" type="curve"/>
      <point x="240" y="-15" type="line"/>
      <point x="142" y="70"/>
      <point x="86" y="160"/>
      <point x="86" y="239" type="curve"/>
      <point x="86" y="345"/>
      <point x="129" y="407"/>
      <point x="199" y="407" type="curve" smooth="yes"/>
      <point x="237" y="407"/>
      <point x="265" y="385"/>
      <point x="265" y="346" type="curve" smooth="yes"/>
      <point x="265" y="316"/>
      <point x="240" y="286"/>
      <point x="201" y="286" type="curve" smooth="yes"/>
      <point x="167" y="286"/>
      <point x="148" y="313"/>
      <point x="148" y="346" type="curve" smooth="yes"/>
      <point x="148" y="380"/>
      <point x="162" y="407"/>
      <point x="188" y="437" type="curve"/>
      <point x="150" y="419" type="line"/>
    </contour>
  </outline>
</glyph>
<glyph name="knLLLA" format="1">
  <advance width="804"/>
  <unicode hex="0CDE"/>
  <outline>
    <contour>
      <point x="392" y="221" type="line"/>
      <point x="378" y="145"/>
      <point x="312" y="71"/>
      <point x="239" y="71" type="curve"/>
      <point x="134" y="71"/>
      <point x="103" y="188"/>
      <point x="103" y="274" type="curve"/>
      <point x="103" y="397"/>
      <point x="141" y="459"/>
      <point x="224" y="459" type="curve" smooth="yes"/>
      <point x="272" y="459"/>
      <point x="306" y="440"/>
      <point x="306" y="401" type="curve" smooth="yes"/>
      <point x="306" y="365"/>
      <point x="278" y="344"/>
      <point x="231" y="344" type="curve" smooth="yes"/>
      <point x="189" y="344"/>
      <point x="161" y="362"/>
      <point x="161" y="408" type="curve" smooth="yes"/>
      <point x="161" y="419"/>
      <point x="162" y="440"/>
      <point x="165" y="450" type="curve"/>
      <point x="146" y="447" type="line"/>
      <point x="135" y="429" type="line"/>
      <point x="132" y="407"/>
      <point x="131" y="394"/>
      <point x="131" y="381" type="curve" smooth="yes"/>
      <point x="131" y="308"/>
      <point x="173" y="273"/>
      <point x="231" y="273" type="curve" smooth="yes"/>
      <point x="294" y="273"/>
      <point x="336" y="325"/>
      <point x="336" y="391" type="curve" smooth="yes"/>
      <point x="336" y="457"/>
      <point x="300" y="519"/>
      <point x="229" y="519" type="curve" smooth="yes"/>
      <point x="127" y="519"/>
      <point x="55" y="414"/>
      <point x="55" y="253" type="curve"/>
      <point x="55" y="97"/>
      <point x="123" y="-14"/>
      <point x="236" y="-14" type="curve"/>
      <point x="304" y="-14"/>
      <point x="373" y="43"/>
      <point x="396" y="126" type="curve"/>
      <point x="398" y="126" type="line"/>
      <point x="421" y="43"/>
      <point x="490" y="-14"/>
      <point x="558" y="-14" type="curve"/>
      <point x="671" y="-14"/>
      <point x="739" y="97"/>
      <point x="739" y="253" type="curve"/>
      <point x="739" y="414"/>
      <point x="667" y="519"/>
      <point x="565" y="519" type="curve" smooth="yes"/>
      <point x="494" y="519"/>
      <point x="458" y="457"/>
      <point x="458" y="391" type="curve" smooth="yes"/>
      <point x="458" y="325"/>
      <point x="500" y="273"/>
      <point x="563" y="273" type="curve" smooth="yes"/>
      <point x="621" y="273"/>
      <point x="663" y="308"/>
      <point x="663" y="381" type="curve" smooth="yes"/>
      <point x="663" y="394"/>
      <point x="662" y="407"/>
      <point x="659" y="429" type="curve"/>
      <point x="648" y="447" type="line"/>
      <point x="629" y="450" type="line"/>
      <point x="632" y="440"/>
      <point x="633" y="419"/>
      <point x="633" y="408" type="curve" smooth="yes"/>
      <point x="633" y="362"/>
      <point x="605" y="344"/>
      <point x="563" y="344" type="curve" smooth="yes"/>
      <point x="516" y="344"/>
      <point x="488" y="365"/>
      <point x="488" y="401" type="curve" smooth="yes"/>
      <point x="488" y="440"/>
      <point x="522" y="459"/>
      <point x="570" y="459" type="curve" smooth="yes"/>
      <point x="653" y="459"/>
      <point x="691" y="397"/>
      <point x="691" y="274" type="curve"/>
      <point x="691" y="188"/>
      <point x="660" y="71"/>
      <point x="555" y="71" type="curve"/>
      <point x="482" y="71"/>
      <point x="415" y="145"/>
      <point x="401" y="221" type="curve"/>
    </contour>
  </outline>
</glyph>
<glyph name="knvRR" format="1">
  <advance width="1409"/>
  <unicode hex="0CE0"/>
  <outline>
    <contour>
      <point x="1030" y="519"/>
      <point x="932" y="456"/>
      <point x="932" y="273" type="curve" smooth="yes"/>
      <point x="932" y="117"/>
      <point x="906" y="71"/>
      <point x="833" y="71" type="curve" smooth="yes"/>
      <point x="775" y="71"/>
      <point x="716" y="145"/>
      <point x="697" y="189" type="curve"/>
      <point x="673" y="119" type="line"/>
      <point x="705" y="62"/>
      <point x="770" y="-14"/>
      <point x="855" y="-14" type="curve" smooth="yes"/>
      <point x="964" y="-14"/>
      <point x="979" y="103"/>
      <point x="979" y="274" type="curve" smooth="yes"/>
      <point x="979" y="416"/>
      <point x="1049" y="454"/>
      <point x="1134" y="454" type="curve" smooth="yes"/>
      <point x="1227" y="454"/>
      <point x="1312" y="373"/>
      <point x="1312" y="217" type="curve" smooth="yes"/>
      <point x="1312" y="125"/>
      <point x="1265" y="50"/>
      <point x="1183" y="50" type="curve" smooth="yes"/>
      <point x="1140" y="50"/>
      <point x="1105" y="79"/>
      <point x="1105" y="116" type="curve"/>
      <point x="1105" y="132"/>
      <point x="1112" y="155"/>
      <point x="1125" y="155" type="curve" smooth="yes"/>
      <point x="1127" y="155"/>
      <point x="1128" y="154"/>
      <point x="1128" y="148" type="curve" smooth="yes"/>
      <point x="1128" y="118"/>
      <point x="1146" y="97"/>
      <point x="1173" y="97" type="curve" smooth="yes"/>
      <point x="1201" y="97"/>
      <point x="1222" y="120"/>
      <point x="1222" y="149" type="curve" smooth="yes"/>
      <point x="1222" y="176"/>
      <point x="1197" y="206"/>
      <point x="1154" y="206" type="curve" smooth="yes"/>
      <point x="1094" y="206"/>
      <point x="1064" y="153"/>
      <point x="1064" y="99" type="curve"/>
      <point x="1064" y="36"/>
      <point x="1115" y="-14"/>
      <point x="1176" y="-14" type="curve" smooth="yes"/>
      <point x="1275" y="-14"/>
      <point x="1354" y="77"/>
      <point x="1354" y="252" type="curve" smooth="yes"/>
      <point x="1354" y="438"/>
      <point x="1240" y="519"/>
      <point x="1123" y="519" type="curve"/>
    </contour>
    <contour>
      <point x="475" y="508"/>
      <point x="456" y="488"/>
      <point x="456" y="465" type="curve" smooth="yes"/>
      <point x="456" y="442"/>
      <point x="467" y="434"/>
      <point x="497" y="434" type="curve"/>
      <point x="596" y="434"/>
      <point x="669" y="358"/>
      <point x="669" y="247" type="curve" smooth="yes"/>
      <point x="669" y="158"/>
      <point x="600" y="71"/>
      <point x="515" y="71" type="curve" smooth="yes"/>
      <point x="428" y="71"/>
      <point x="379" y="145"/>
      <point x="359" y="189" type="curve"/>
      <point x="335" y="119" type="line"/>
      <point x="367" y="62"/>
      <point x="432" y="-14"/>
      <point x="527" y="-14" type="curve" smooth="yes"/>
      <point x="652" y="-14"/>
      <point x="711" y="109"/>
      <point x="711" y="235" type="curve" smooth="yes"/>
      <point x="711" y="392"/>
      <point x="597" y="508"/>
      <point x="511" y="508" type="curve" smooth="yes"/>
    </contour>
    <contour>
      <point x="641" y="644" type="line"/>
      <point x="665" y="635"/>
      <point x="687" y="610"/>
      <point x="687" y="576" type="curve" smooth="yes"/>
      <point x="687" y="536"/>
      <point x="656" y="509"/>
      <point x="595" y="509" type="curve" smooth="yes"/>
      <point x="404" y="509" type="line"/>
      <point x="404" y="434" type="line"/>
      <point x="595" y="434" type="line" smooth="yes"/>
      <point x="676" y="434"/>
      <point x="730" y="480"/>
      <point x="730" y="552" type="curve" smooth="yes"/>
      <point x="730" y="607"/>
      <point x="699" y="648"/>
      <point x="656" y="664" type="curve"/>
    </contour>
    <contour>
      <point x="366" y="436"/>
      <point x="260" y="519"/>
      <point x="167" y="519" type="curve"/>
      <point x="96" y="519"/>
      <point x="60" y="457"/>
      <point x="60" y="401" type="curve" smooth="yes"/>
      <point x="60" y="325"/>
      <point x="102" y="283"/>
      <point x="165" y="283" type="curve" smooth="yes"/>
      <point x="223" y="283"/>
      <point x="265" y="308"/>
      <point x="265" y="381" type="curve" smooth="yes"/>
      <point x="265" y="394"/>
      <point x="264" y="407"/>
      <point x="261" y="429" type="curve"/>
      <point x="221" y="450" type="line"/>
      <point x="234" y="440"/>
      <point x="235" y="419"/>
      <point x="235" y="408" type="curve" smooth="yes"/>
      <point x="235" y="372"/>
      <point x="207" y="354"/>
      <point x="165" y="354" type="curve" smooth="yes"/>
      <point x="118" y="354"/>
      <point x="90" y="375"/>
      <point x="90" y="407" type="curve" smooth="yes"/>
      <point x="90" y="440"/>
      <point x="114" y="459"/>
      <point x="152" y="459" type="curve"/>
      <point x="239" y="459"/>
      <point x="324" y="381"/>
      <point x="324" y="253" type="curve"/>
      <point x="324" y="124"/>
      <point x="239" y="46"/>
      <point x="152" y="46" type="curve"/>
      <point x="114" y="46"/>
      <point x="90" y="65"/>
      <point x="90" y="98" type="curve" smooth="yes"/>
      <point x="90" y="130"/>
      <point x="118" y="151"/>
      <point x="165" y="151" type="curve" smooth="yes"/>
      <point x="207" y="151"/>
      <point x="235" y="133"/>
      <point x="235" y="97" type="curve" smooth="yes"/>
      <point x="235" y="86"/>
      <point x="234" y="65"/>
      <point x="221" y="55" type="curve"/>
      <point x="261" y="76" type="line"/>
      <point x="264" y="98"/>
      <point x="265" y="111"/>
      <point x="265" y="124" type="curve" smooth="yes"/>
      <point x="265" y="197"/>
      <point x="223" y="222"/>
      <point x="165" y="222" type="curve" smooth="yes"/>
      <point x="102" y="222"/>
      <point x="60" y="180"/>
      <point x="60" y="104" type="curve" smooth="yes"/>
      <point x="60" y="48"/>
      <point x="96" y="-14"/>
      <point x="167" y="-14" type="curve"/>
      <point x="260" y="-14"/>
      <point x="366" y="69"/>
      <point x="366" y="253" type="curve"/>
    </contour>
  </outline>
</glyph>
<glyph name="knvLL" format="1">
  <advance width="1479"/>
  <unicode hex="0CE1"/>
  <outline>
    <contour>
      <point x="1323" y="424"/>
      <point x="1207" y="509"/>
      <point x="1070" y="509" type="curve"/>
      <point x="750" y="509" type="line"/>
      <point x="737" y="469" type="line"/>
      <point x="797" y="421"/>
      <point x="874" y="335"/>
      <point x="874" y="215" type="curve"/>
      <point x="874" y="135"/>
      <point x="816" y="71"/>
      <point x="728" y="71" type="curve" smooth="yes"/>
      <point x="559" y="71" type="line" smooth="yes"/>
      <point x="496" y="71"/>
      <point x="464" y="114"/>
      <point x="464" y="161" type="curve" smooth="yes"/>
      <point x="464" y="232"/>
      <point x="607" y="242"/>
      <point x="607" y="371" type="curve" smooth="yes"/>
      <point x="607" y="461"/>
      <point x="548" y="519"/>
      <point x="484" y="519" type="curve" smooth="yes"/>
      <point x="415" y="519"/>
      <point x="347" y="461"/>
      <point x="324" y="377" type="curve"/>
      <point x="322" y="377" type="line"/>
      <point x="299" y="461"/>
      <point x="230" y="519"/>
      <point x="161" y="519" type="curve" smooth="yes"/>
      <point x="85" y="519"/>
      <point x="26" y="456"/>
      <point x="26" y="377" type="curve" smooth="yes"/>
      <point x="26" y="347"/>
      <point x="34" y="321"/>
      <point x="56" y="296" type="curve"/>
      <point x="87" y="317" type="line"/>
      <point x="80" y="325"/>
      <point x="74" y="340"/>
      <point x="74" y="354" type="curve" smooth="yes"/>
      <point x="74" y="392"/>
      <point x="105" y="444"/>
      <point x="164" y="444" type="curve" smooth="yes"/>
      <point x="249" y="444"/>
      <point x="304" y="358"/>
      <point x="318" y="283" type="curve"/>
      <point x="327" y="283" type="line"/>
      <point x="340" y="358"/>
      <point x="396" y="444"/>
      <point x="479" y="444" type="curve" smooth="yes"/>
      <point x="532" y="444"/>
      <point x="560" y="416"/>
      <point x="560" y="372" type="curve" smooth="yes"/>
      <point x="560" y="269"/>
      <point x="417" y="275"/>
      <point x="417" y="140" type="curve" smooth="yes"/>
      <point x="417" y="55"/>
      <point x="470" y="0"/>
      <point x="536" y="0" type="curve" smooth="yes"/>
      <point x="728" y="0" type="line" smooth="yes"/>
      <point x="846" y="0"/>
      <point x="916" y="73"/>
      <point x="916" y="194" type="curve"/>
      <point x="916" y="306"/>
      <point x="875" y="391"/>
      <point x="817" y="444" type="curve"/>
      <point x="1081" y="444" type="line" smooth="yes"/>
      <point x="1204" y="444"/>
      <point x="1284" y="341"/>
      <point x="1284" y="235" type="curve"/>
      <point x="1284" y="140"/>
      <point x="1234" y="71"/>
      <point x="1142" y="71" type="curve" smooth="yes"/>
      <point x="1071" y="71"/>
      <point x="1029" y="112"/>
      <point x="1029" y="169" type="curve"/>
      <point x="1029" y="211"/>
      <point x="1038" y="237"/>
      <point x="1050" y="237" type="curve" smooth="yes"/>
      <point x="1055" y="237"/>
      <point x="1056" y="232"/>
      <point x="1056" y="227" type="curve" smooth="yes"/>
      <point x="1056" y="191"/>
      <point x="1078" y="165"/>
      <point x="1111" y="165" type="curve" smooth="yes"/>
      <point x="1146" y="165"/>
      <point x="1171" y="194"/>
      <point x="1171" y="230" type="curve" smooth="yes"/>
      <point x="1171" y="262"/>
      <point x="1146" y="299"/>
      <point x="1093" y="299" type="curve" smooth="yes"/>
      <point x="1014" y="299"/>
      <point x="977" y="233"/>
      <point x="977" y="155" type="curve"/>
      <point x="977" y="56"/>
      <point x="1040" y="-14"/>
      <point x="1126" y="-14" type="curve" smooth="yes"/>
      <point x="1237" y="-14"/>
      <point x="1323" y="82"/>
      <point x="1323" y="248" type="curve"/>
    </contour>
  </outline>
</glyph>
<glyph name="knSix" format="1">
  <advance width="475"/>
  <unicode hex="0CEC"/>
  <outline>
    <contour>
      <point x="374" y="194"/>
      <point x="329" y="154"/>
      <point x="264" y="154" type="curve"/>
      <point x="198" y="154"/>
      <point x="157" y="195"/>
      <point x="157" y="256" type="curve" smooth="yes"/>
      <point x="157" y="317"/>
      <point x="229" y="330"/>
      <point x="229" y="408" type="curve"/>
      <point x="229" y="448"/>
      <point x="203" y="466"/>
      <point x="166" y="466" type="curve" smooth="yes"/>
      <point x="135" y="466"/>
      <point x="116" y="454"/>
      <point x="102" y="443" type="curve"/>
      <point x="85" y="462" type="line"/>
      <point x="103" y="511"/>
      <point x="135" y="543"/>
      <point x="183" y="543" type="curve" smooth="yes"/>
      <point x="236" y="543"/>
      <point x="275" y="507"/>
      <point x="275" y="446" type="curve" smooth="yes"/>
      <point x="275" y="314"/>
      <point x="188" y="316"/>
      <point x="188" y="254" type="curve" smooth="yes"/>
      <point x="188" y="215"/>
      <point x="219" y="190"/>
      <point x="259" y="190" type="curve" smooth="yes"/>
      <point x="303" y="190"/>
      <point x="335" y="207"/>
      <point x="335" y="246" type="curve"/>
      <point x="335" y="284"/>
      <point x="294" y="306"/>
      <point x="236" y="306" type="curve" smooth="yes"/>
      <point x="182" y="306"/>
      <point x="97" y="270"/>
      <point x="97" y="186" type="curve"/>
      <point x="97" y="126"/>
      <point x="144" y="83"/>
      <point x="263" y="83" type="curve" smooth="yes"/>
      <point x="470" y="83" type="line"/>
      <point x="470" y="0" type="line"/>
      <point x="264" y="0" type="line" smooth="yes"/>
      <point x="104" y="0"/>
      <point x="65" y="74"/>
      <point x="65" y="176" type="curve" smooth="yes"/>
      <point x="65" y="278"/>
      <point x="129" y="362"/>
      <point x="238" y="362" type="curve"/>
      <point x="318" y="362"/>
      <point x="374" y="325"/>
      <point x="374" y="250" type="curve"/>
    </contour>
  </outline>
</glyph>
<glyph name="knEight" format="1">
  <advance width="623"/>
  <unicode hex="0CEE"/>
  <outline>
    <contour>
      <point x="573" y="508" type="line"/>
      <point x="526" y="508" type="line"/>
      <point x="466" y="508"/>
      <point x="414" y="465"/>
      <point x="414" y="404" type="curve" smooth="yes"/>
      <point x="414" y="316"/>
      <point x="497" y="286"/>
      <point x="497" y="212" type="curve" smooth="yes"/>
      <point x="497" y="135"/>
      <point x="441" y="93"/>
      <point x="327" y="93" type="curve"/>
      <point x="195" y="93"/>
      <point x="107" y="176"/>
      <point x="107" y="302" type="curve" smooth="yes"/>
      <point x="107" y="354"/>
      <point x="124" y="400"/>
      <point x="151" y="429" type="curve"/>
      <point x="149" y="417"/>
      <point x="148" y="404"/>
      <point x="148" y="392" type="curve" smooth="yes"/>
      <point x="148" y="318"/>
      <point x="189" y="283"/>
      <point x="235" y="283" type="curve" smooth="yes"/>
      <point x="290" y="283"/>
      <point x="322" y="335"/>
      <point x="322" y="404" type="curve" smooth="yes"/>
      <point x="322" y="467"/>
      <point x="296" y="519"/>
      <point x="232" y="519" type="curve" smooth="yes"/>
      <point x="140" y="519"/>
      <point x="60" y="414"/>
      <point x="60" y="276" type="curve" smooth="yes"/>
      <point x="60" y="103"/>
      <point x="173" y="-14"/>
      <point x="327" y="-14" type="curve"/>
      <point x="471" y="-14"/>
      <point x="551" y="72"/>
      <point x="551" y="187" type="curve" smooth="yes"/>
      <point x="551" y="314"/>
      <point x="460" y="325"/>
      <point x="460" y="394" type="curve" smooth="yes"/>
      <point x="460" y="429"/>
      <point x="488" y="448"/>
      <point x="532" y="448" type="curve"/>
      <point x="573" y="448" type="line"/>
    </contour>
    <contour>
      <point x="268" y="459"/>
      <point x="293" y="440"/>
      <point x="293" y="404" type="curve" smooth="yes"/>
      <point x="293" y="375"/>
      <point x="274" y="354"/>
      <point x="239" y="354" type="curve" smooth="yes"/>
      <point x="205" y="354"/>
      <point x="178" y="372"/>
      <point x="178" y="419" type="curve" smooth="yes"/>
      <point x="178" y="429"/>
      <point x="179" y="440"/>
      <point x="181" y="450" type="curve"/>
      <point x="193" y="455"/>
      <point x="206" y="459"/>
      <point x="225" y="459" type="curve" smooth="yes"/>
    </contour>
  </outline>
</glyph>
<glyph name="uni2225" format="1">
  <advance width="380"/>
  <unicode hex="2225"/>
  <outline>
    <contour>
      <point x="220" y="676" type="line" smooth="yes"/>
      <point x="220" y="695"/>
      <point x="254" y="707"/>
      <point x="264" y="707" type="curve" smooth="yes"/>
      <point x="274" y="707"/>
      <point x="280" y="701"/>
      <point x="280" y="694" type="curve" smooth="yes"/>
      <point x="280" y="-265" type="line" smooth="yes"/>
      <point x="280" y="-282"/>
      <point x="249" y="-289"/>
      <point x="237" y="-289" type="curve" smooth="yes"/>
      <point x="225" y="-289"/>
      <point x="220" y="-282"/>
      <point x="220" y="-275" type="curve" smooth="yes"/>
    </contour>
    <contour>
      <point x="100" y="676" type="line" smooth="yes"/>
      <point x="100" y="695"/>
      <point x="134" y="707"/>
      <point x="144" y="707" type="curve" smooth="yes"/>
      <point x="154" y="707"/>
      <point x="160" y="701"/>
      <point x="160" y="694" type="curve" smooth="yes"/>
      <point x="160" y="-265" type="line" smooth="yes"/>
      <point x="160" y="-282"/>
      <point x="129" y="-289"/>
      <point x="117" y="-289" type="curve" smooth="yes"/>
      <point x="105" y="-289"/>
      <point x="100" y="-282"/>
      <point x="100" y="-275" type="curve" smooth="yes"/>
    </contour>
  </outline>
</glyph>
<glyph name="uni226F" format="1">
  <advance width="590"/>
  <unicode hex="226F"/>
  <outline>
    <contour>
      <point x="399" y="578" type="line" smooth="yes"/>
      <point x="404" y="589"/>
      <point x="417" y="595"/>
      <point x="438" y="595" type="curve" smooth="yes"/>
      <point x="445" y="595"/>
      <point x="452" y="589"/>
      <point x="452" y="582" type="curve" smooth="yes"/>
      <point x="452" y="580" type="line"/>
      <point x="154" y="-117" type="line" smooth="yes"/>
      <point x="150" y="-127"/>
      <point x="140" y="-132"/>
      <point x="125" y="-132" type="curve" smooth="yes"/>
      <point x="109" y="-132"/>
      <point x="101" y="-128"/>
      <point x="101" y="-120" type="curve"/>
      <point x="102" y="-119" type="line"/>
      <point x="102" y="-118"/>
      <point x="102" y="-118"/>
      <point x="102" y="-117" type="curve"/>
    </contour>
    <contour>
      <point x="77" y="408" type="line" smooth="yes"/>
      <point x="61" y="416"/>
      <point x="53" y="443"/>
      <point x="53" y="453" type="curve" smooth="yes"/>
      <point x="53" y="463"/>
      <point x="59" y="469"/>
      <point x="64" y="469" type="curve"/>
      <point x="65" y="468" type="line"/>
      <point x="66" y="468"/>
      <point x="66" y="468"/>
      <point x="67" y="468" type="curve"/>
      <point x="496" y="268" type="line" smooth="yes"/>
      <point x="523" y="255"/>
      <point x="537" y="246"/>
      <point x="537" y="241" type="curve" smooth="yes"/>
      <point x="537" y="229"/>
      <point x="521" y="203"/>
      <point x="504" y="195" type="curve" smooth="yes"/>
      <point x="67" y="-5" type="line"/>
      <point x="66" y="-5"/>
      <point x="65" y="-5"/>
      <point x="64" y="-6" type="curve"/>
      <point x="57" y="-6"/>
      <point x="54" y="-2"/>
      <point x="54" y="5" type="curve" smooth="yes"/>
      <point x="54" y="19"/>
      <point x="66" y="47"/>
      <point x="85" y="55" type="curve"/>
      <point x="458" y="229" type="line" smooth="yes"/>
      <point x="460" y="230"/>
      <point x="460" y="232"/>
      <point x="457" y="234" type="curve"/>
    </contour>
  </outline>
</glyph>
